<svg xmlns:mydata="http://www.w3.org/2000/svg" mydata:contrastcolor="120a17" mydata:template="Contrast" mydata:presentation="2.5" mydata:layouttype="undefined" mydata:specialfontid="undefined" mydata:id1="321" mydata:id2="032" mydata:companyname="Ryan Rigley" mydata:companytagline="" version="1.1" xmlns="http://www.w3.org/2000/svg" xmlns:xlink="http://www.w3.org/1999/xlink" viewBox="0 0 550 470" width="550"  height="470" ><defs><linearGradient x1="139.49637" y1="235" x2="410.50363" y2="235" gradientUnits="userSpaceOnUse" id="color-1755442772"><stop offset="0" stop-color="#000000"></stop><stop offset="1" stop-color="#000000"></stop></linearGradient><linearGradient x1="139.49637" y1="235" x2="410.50363" y2="235" gradientUnits="userSpaceOnUse" id="color-1755442772"><stop offset="0" stop-color="#000000"></stop><stop offset="1" stop-color="#000000"></stop></linearGradient><linearGradient x1="139.49637" y1="235" x2="410.50363" y2="235" gradientUnits="userSpaceOnUse" id="color-1755442772"><stop offset="0" stop-color="#000000"></stop><stop offset="1" stop-color="#000000"></stop></linearGradient><linearGradient x1="139.49637" y1="235" x2="410.50363" y2="235" gradientUnits="userSpaceOnUse" id="color-1755442772"><stop offset="0" stop-color="#000000"></stop><stop offset="1" stop-color="#000000"></stop></linearGradient><linearGradient x1="139.49637" y1="235" x2="410.50363" y2="235" gradientUnits="userSpaceOnUse" id="color-1755442772"><stop offset="0" stop-color="#000000"></stop><stop offset="1" stop-color="#000000"></stop></linearGradient><linearGradient x1="139.49637" y1="235" x2="410.50363" y2="235" gradientUnits="userSpaceOnUse" id="color-1755442772"><stop offset="0" stop-color="#000000"></stop><stop offset="1" stop-color="#000000"></stop></linearGradient><linearGradient x1="139.49637" y1="235" x2="410.50363" y2="235" gradientUnits="userSpaceOnUse" id="color-1755442772"><stop offset="0" stop-color="#000000"></stop><stop offset="1" stop-color="#000000"></stop></linearGradient><linearGradient x1="139.49637" y1="235" x2="410.50363" y2="235" gradientUnits="userSpaceOnUse" id="color-1755442772"><stop offset="0" stop-color="#000000"></stop><stop offset="1" stop-color="#000000"></stop></linearGradient><linearGradient x1="139.49637" y1="235" x2="410.50363" y2="235" gradientUnits="userSpaceOnUse" id="color-1755442772"><stop offset="0" stop-color="#000000"></stop><stop offset="1" stop-color="#000000"></stop></linearGradient><linearGradient x1="139.49637" y1="235" x2="410.50363" y2="235" gradientUnits="userSpaceOnUse" id="color-1755442772"><stop offset="0" stop-color="#000000"></stop><stop offset="1" stop-color="#000000"></stop></linearGradient><linearGradient x1="139.49637" y1="235" x2="410.50363" y2="235" gradientUnits="userSpaceOnUse" id="color-1755442772"><stop offset="0" stop-color="#000000"></stop><stop offset="1" stop-color="#000000"></stop></linearGradient><linearGradient x1="139.49637" y1="235" x2="410.50363" y2="235" gradientUnits="userSpaceOnUse" id="color-1755442772"><stop offset="0" stop-color="#000000"></stop><stop offset="1" stop-color="#000000"></stop></linearGradient><linearGradient x1="139.49637" y1="235" x2="410.50363" y2="235" gradientUnits="userSpaceOnUse" id="color-1755442772"><stop offset="0" stop-color="#000000"></stop><stop offset="1" stop-color="#000000"></stop></linearGradient><linearGradient x1="139.49637" y1="235" x2="410.50363" y2="235" gradientUnits="userSpaceOnUse" id="color-1755442772"><stop offset="0" stop-color="#000000"></stop><stop offset="1" stop-color="#000000"></stop></linearGradient><linearGradient x1="139.49637" y1="235" x2="410.50363" y2="235" gradientUnits="userSpaceOnUse" id="color-1755442772"><stop offset="0" stop-color="#000000"></stop><stop offset="1" stop-color="#000000"></stop></linearGradient><linearGradient x1="139.49637" y1="235" x2="410.50363" y2="235" gradientUnits="userSpaceOnUse" id="color-1755442772"><stop offset="0" stop-color="#000000"></stop><stop offset="1" stop-color="#000000"></stop></linearGradient></defs><g fill="url(&quot;#color-1755442772&quot;)" fill-rule="nonzero" stroke="none" stroke-width="1" stroke-linecap="butt" stroke-linejoin="miter" stroke-miterlimit="10" stroke-dasharray="" stroke-dashoffset="0" font-family="none" font-weight="none" font-size="none" text-anchor="none" style="mix-blend-mode: normal"><g data-paper-data="{&quot;isGlobalGroup&quot;:true}" fill="url(&quot;#color-1755442772&quot;)"><g data-paper-data="{&quot;textHeightFactor&quot;:0.2439486734462354,&quot;isSecondaryText&quot;:true}" fill="url(&quot;#color-1755442772&quot;)"><path d="M154.59182,338.50871c1.14523,0 2.17212,0.12598 3.08067,0.37793c0.90855,0.25195 1.67585,0.61842 2.30191,1.09942c0.62606,0.481 1.10705,1.06888 1.44299,1.76365c0.33593,0.69477 0.5039,1.48498 0.5039,2.37062c0,1.22158 -0.30539,2.25228 -0.91618,3.09212c-0.61079,0.83983 -1.4888,1.48116 -2.63403,1.92398l3.77925,5.40548h-3.77925l-3.36697,-4.80996h-0.41228h-4.92448v4.80996h-3.32116v-16.0332zM149.66734,340.22655v7.78756h4.92448c1.20631,0 2.13776,-0.31685 2.79436,-0.95054c0.6566,-0.63369 0.9849,-1.61477 0.9849,-2.94324c0,-1.32847 -0.3283,-2.30954 -0.9849,-2.94324c-0.6566,-0.63369 -1.58805,-0.95054 -2.79436,-0.95054z" data-paper-data="{&quot;glyphName&quot;:&quot;R&quot;,&quot;glyphIndex&quot;:0,&quot;firstGlyphOfWord&quot;:true,&quot;word&quot;:1}" fill="url(&quot;#color-1755442772&quot;)"></path><path d="M194.11461,354.54191h-3.32116v-16.0332h3.32116z" data-paper-data="{&quot;glyphName&quot;:&quot;I&quot;,&quot;glyphIndex&quot;:1,&quot;word&quot;:1}" fill="url(&quot;#color-1755442772&quot;)"></path><path d="M232.41594,338.05061c1.38954,0 2.70274,0.23668 3.93959,0.71004c1.23685,0.47336 2.29046,1.11469 3.16083,1.92398l-1.14523,1.37427c-0.87037,-0.80929 -1.78274,-1.39336 -2.7371,-1.7522c-0.95436,-0.35884 -1.95071,-0.53826 -2.98905,-0.53826c-0.77876,0 -1.49643,0.13361 -2.15303,0.40083c-0.6566,0.26722 -1.22539,0.67568 -1.70639,1.22539c-0.481,0.54971 -0.8551,1.2483 -1.12232,2.09577c-0.26722,0.84747 -0.40083,1.85909 -0.40083,3.03486c0,1.20631 0.13743,2.24083 0.41228,3.10357c0.27485,0.86274 0.6566,1.57278 1.14523,2.13013c0.48863,0.55734 1.08033,0.96963 1.7751,1.23685c0.69477,0.26722 1.45444,0.40083 2.27901,0.40083c0.68714,0 1.27884,-0.06108 1.7751,-0.18324c0.49627,-0.12216 0.91237,-0.26722 1.2483,-0.43519c0.39701,-0.18324 0.72531,-0.39701 0.9849,-0.64133v-4.35187h-2.97759v-1.4888h6.29876v6.29876c-0.56498,0.45809 -1.22158,0.86274 -1.96979,1.21394c-0.64133,0.30539 -1.43154,0.58025 -2.37062,0.82456c-0.93909,0.24432 -2.01179,0.36647 -3.21809,0.36647c-1.37427,0 -2.61112,-0.18324 -3.71054,-0.54971c-1.09942,-0.36647 -2.03851,-0.90855 -2.81726,-1.62622c-0.77876,-0.71768 -1.37427,-1.60332 -1.78656,-2.65693c-0.41228,-1.05361 -0.61842,-2.26755 -0.61842,-3.64183c0,-1.37427 0.20614,-2.58822 0.61842,-3.64183c0.41228,-1.05361 0.99635,-1.93925 1.7522,-2.65693c0.75585,-0.71768 1.67203,-1.25975 2.74855,-1.62622c1.07652,-0.36647 2.27137,-0.54971 3.58457,-0.54971z" data-paper-data="{&quot;glyphName&quot;:&quot;G&quot;,&quot;glyphIndex&quot;:2,&quot;word&quot;:1}" fill="url(&quot;#color-1755442772&quot;)"></path><path d="M289.20991,352.82407v1.71784h-13.17013v-16.0332h3.32116v14.31536z" data-paper-data="{&quot;glyphName&quot;:&quot;L&quot;,&quot;glyphIndex&quot;:3,&quot;word&quot;:1}" fill="url(&quot;#color-1755442772&quot;)"></path><path d="M325.21377,340.22655v5.26805h8.36017v1.71784h-8.36017v5.61162h10.65063v1.71784h-13.97179v-16.0332h13.97179v1.71784z" data-paper-data="{&quot;glyphName&quot;:&quot;E&quot;,&quot;glyphIndex&quot;:4,&quot;word&quot;:1}" fill="url(&quot;#color-1755442772&quot;)"></path><path d="M379.38882,349.73195v4.80996h-3.32116v-4.80996l-7.44399,-11.22324h3.66473l5.38258,8.13112h0.11452l5.38258,-8.13112h3.66473z" data-paper-data="{&quot;glyphName&quot;:&quot;Y&quot;,&quot;glyphIndex&quot;:5,&quot;lastGlyphOfWord&quot;:true,&quot;word&quot;:1}" fill="url(&quot;#color-1755442772&quot;)"></path><path d="M139.49637,287.7348v-2.21411h271.00725v2.21411z" data-paper-data="{&quot;isContainerTopLineAboveSecondaryText&quot;:true}" fill="url(&quot;#color-1755442772&quot;)"></path></g><g data-paper-data="{&quot;isPrimaryText&quot;:true}" fill="url(&quot;#color-1755442772&quot;)"><path d="M179.30195,208.73041c-0.1194,0.35821 -0.08955,0.71641 0.08955,1.07462c0.1791,0.35821 0.26865,0.83581 0.26865,1.43282c-0.2388,0.2388 -0.26865,0.44776 -0.08955,0.62686c0.1791,0.1791 0.32835,0.38806 0.44776,0.62686v1.07462c0.59701,1.31342 1.19402,2.53729 1.79103,3.67161c0.59701,1.13432 1.19402,2.29848 1.79103,3.4925c0.2388,0.95521 0.62686,1.85073 1.16417,2.68654c0.53731,0.83581 1.10447,1.67163 1.70148,2.50744c1.19402,2.38804 2.50744,4.44772 3.94026,6.17904c1.43282,1.73133 3.22385,3.85071 5.37308,6.35815l5.91039,5.55218c0.1194,0.2388 0.32835,0.41791 0.62686,0.53731c0.2985,0.1194 0.56716,0.2985 0.80596,0.53731c1.07462,0.59701 1.97013,1.16417 2.68654,1.70148c0.71641,0.53731 1.46267,1.01492 2.23878,1.43282c0.77611,0.41791 1.64177,0.80596 2.59699,1.16417c0.95521,0.35821 2.14923,0.65671 3.58205,0.89551l2.14923,0.35821c0.59701,0.1194 0.65671,0.20895 0.1791,0.26865c-0.47761,0.0597 -0.35821,0.08955 0.35821,0.08955c1.43282,-0.1194 2.65669,-0.02985 3.67161,0.26865c1.01492,0.2985 1.64177,0.56716 1.88058,0.80596c0,0.2388 0.1194,0.47761 0.35821,0.71641c0.2388,0.2388 0.2388,0.53731 0,0.89551c0,0 0,0.1194 0,0.35821c-0.1194,0.59701 -0.44776,1.13432 -0.98506,1.61192c-0.53731,0.47761 -0.80596,0.83581 -0.80596,1.07462l-0.89551,0.89551c0.1194,0.2388 0,0.47761 -0.35821,0.71641c-0.35821,0.2388 -0.65671,0.53731 -0.89551,0.89551c-0.47761,0.1194 -0.89551,0.20895 -1.25372,0.26865c-0.35821,0.0597 -0.65671,0.20895 -0.89551,0.44776c-0.2388,0 -0.38806,0.02985 -0.44776,0.08955c-0.0597,0.0597 -0.20895,0.02985 -0.44776,-0.08955c-0.59701,0.2388 -0.95521,0.2985 -1.07462,0.1791c-0.1194,-0.1194 -0.47761,-0.1791 -1.07462,-0.1791c-2.86564,-0.2388 -4.95517,-0.59701 -6.26859,-1.07462c-1.31342,-0.47761 -3.04475,-1.25372 -5.19398,-2.32834c-0.95521,-0.35821 -1.67163,-0.68656 -2.14923,-0.98506c-0.47761,-0.2985 -1.19402,-0.74626 -2.14923,-1.34327c-1.55222,-0.95521 -3.1343,-2.08953 -4.74622,-3.40295c-1.61192,-1.31342 -3.2537,-2.62684 -4.92532,-3.94026c-2.02983,-2.26863 -3.94026,-4.53727 -5.73129,-6.8059c-1.79103,-2.26863 -3.52235,-4.77607 -5.19398,-7.52231c-0.35821,-1.07462 -0.89551,-1.97013 -1.61192,-2.68654l-1.25372,-3.04475c-0.71641,-0.95521 -1.37312,-1.99998 -1.97013,-3.1343c-0.59701,-1.13432 -1.01492,-2.35819 -1.25372,-3.67161c0,-0.1194 -0.02985,-0.1791 -0.08955,-0.1791c-0.0597,0 -0.08955,-0.0597 -0.08955,-0.1791c-0.59701,-1.43282 -1.10447,-2.89549 -1.52237,-4.38802c-0.41791,-1.49252 -0.74626,-3.194 -0.98506,-5.10443c-0.2388,0.1194 -0.44776,0.35821 -0.62686,0.71641c-0.1791,0.35821 -0.32835,0.65671 -0.44776,0.89551c-1.31342,3.22385 -2.47759,6.02979 -3.4925,8.41783c-1.01492,2.38804 -1.97013,4.71637 -2.86564,6.98501c-0.89551,2.26863 -1.79103,4.65667 -2.68654,7.16411c-0.89551,2.50744 -1.94028,5.55218 -3.1343,9.13424c-0.47761,1.91043 -0.98506,3.79101 -1.52237,5.64173c-0.53731,1.85073 -1.22387,3.79101 -2.05968,5.82084l-1.97013,6.98501c-0.1194,0.1194 -0.1791,0.1194 -0.1791,0c0,-0.1194 -0.0597,-0.1791 -0.1791,-0.1791c0,0.47761 -0.08955,0.74626 -0.26865,0.80596c-0.1791,0.0597 -0.26865,0.20895 -0.26865,0.44776c-0.2388,0 -0.41791,0.1194 -0.53731,0.35821c-0.1194,0.2388 -0.41791,0.41791 -0.89551,0.53731c-0.35821,0.1194 -0.53731,0.2388 -0.53731,0.35821c-0.2388,-0.1194 -0.44776,-0.2388 -0.62686,-0.35821c-0.1791,-0.1194 -0.32835,-0.1791 -0.44776,-0.1791c-0.1194,0.2388 -0.44776,0.26865 -0.98506,0.08955c-0.53731,-0.1791 -1.13432,-0.41791 -1.79103,-0.71641c-0.65671,-0.2985 -1.22387,-0.65671 -1.70148,-1.07462c-0.47761,-0.41791 -0.77611,-0.74626 -0.89551,-0.98506c0.1194,-0.47761 0.02985,-0.86566 -0.26865,-1.16417c-0.2985,-0.2985 -0.44776,-0.74626 -0.44776,-1.34327v-0.89551c0,-0.59701 -0.0597,-1.04477 -0.1791,-1.34327c-0.1194,-0.2985 0,-0.62686 0.35821,-0.98506v-0.71641c1.19402,-4.05966 2.29848,-7.64171 3.3134,-10.74616c1.01492,-3.10445 2.02983,-6.11934 3.04475,-9.04469c1.01492,-2.92534 2.08953,-5.88054 3.22385,-8.86558c1.13432,-2.98504 2.41789,-6.388 3.85071,-10.20885c0.71641,-2.02983 1.43282,-3.73131 2.14923,-5.10443c0.71641,-1.37312 1.43282,-3.1343 2.14923,-5.28353c0.1194,-0.47761 0.26865,-0.86566 0.44776,-1.16417c0.1791,-0.2985 0.20895,-0.62686 0.08955,-0.98506c0,-0.2388 0.08955,-0.35821 0.26865,-0.35821c0.1791,0 0.38806,-0.0597 0.62686,-0.1791c2.14923,-5.13428 4.41787,-10.08945 6.8059,-14.86552c2.38804,-4.77607 4.95517,-9.55214 7.70142,-14.32822c0.2388,-0.95521 0.59701,-1.76118 1.07462,-2.41789c0.47761,-0.65671 0.77611,-1.46267 0.89551,-2.41789c0.59701,-0.59701 1.04477,-1.25372 1.34327,-1.97013c0.2985,-0.71641 0.62686,-1.37312 0.98506,-1.97013c0.47761,-0.47761 0.77611,-1.01492 0.89551,-1.61192c0.1194,-0.59701 0.47761,-1.13432 1.07462,-1.61192c0,-0.59701 0.14925,-1.01492 0.44776,-1.25372c0.2985,-0.2388 0.44776,-0.53731 0.44776,-0.89551c0.59701,-0.83581 1.13432,-1.73133 1.61192,-2.68654c0.47761,-0.95521 1.01492,-1.91043 1.61192,-2.86564c0.35821,-0.71641 0.77611,-1.37312 1.25372,-1.97013c0.47761,-0.59701 0.89551,-1.31342 1.25372,-2.14923c0.47761,-0.59701 0.92536,-1.34327 1.34327,-2.23878c0.41791,-0.89551 0.92536,-1.64177 1.52237,-2.23878l0.35821,-0.71641c0.2388,-0.2388 0.44776,-0.41791 0.62686,-0.53731c0.1791,-0.1194 0.26865,-0.2985 0.26865,-0.53731l1.43282,-2.32834l2.86564,-4.11936c0.47761,-0.2388 0.83581,-0.62686 1.07462,-1.16417c0.2388,-0.53731 0.47761,-0.92536 0.71641,-1.16417c0.47761,-0.35821 1.10447,-0.47761 1.88058,-0.35821c0.77611,0.1194 1.52237,0.35821 2.23878,0.71641c0.71641,0.35821 1.34327,0.83581 1.88058,1.43282c0.53731,0.59701 0.86566,1.13432 0.98506,1.61192c0,0.1194 0.02985,0.2388 0.08955,0.35821c0.0597,0.1194 0.08955,0.2985 0.08955,0.53731c0.1194,0.2388 0.1791,0.47761 0.1791,0.71641c0.1194,0.47761 0.1194,0.98506 0,1.52237c-0.1194,0.53731 -0.1194,1.10447 0,1.70148c-0.59701,1.67163 -1.37312,3.1343 -2.32834,4.38802c-0.95521,1.25372 -1.85073,2.71639 -2.68654,4.38802c-0.95521,1.67163 -1.94028,3.22385 -2.95519,4.65667c-1.01492,1.43282 -2.05968,3.22385 -3.1343,5.37308c-0.2388,0.59701 -0.44776,1.10447 -0.62686,1.52237c-0.1791,0.41791 -0.56716,0.92536 -1.16417,1.52237c-0.59701,1.55222 -1.37312,3.04475 -2.32834,4.47757c-0.95521,1.43282 -1.85073,2.92534 -2.68654,4.47757c-0.47761,1.31342 -1.01492,2.44774 -1.61192,3.40295l-2.68654,4.83577l-0.71641,2.32834c-0.1194,0.2388 -0.20895,0.35821 -0.26865,0.35821c-0.0597,0 -0.14925,0.0597 -0.26865,0.1791c-0.47761,0.71641 -0.86566,1.40297 -1.16417,2.05968c-0.2985,0.65671 -0.56716,1.40297 -0.80596,2.23878c-1.31342,2.02983 -2.41789,3.91041 -3.3134,5.64173c-0.89551,1.73133 -1.82088,3.73131 -2.77609,5.99994c3.46265,-1.07462 6.89545,-2.14923 10.2984,-3.22385c3.40295,-1.07462 6.71635,-2.14923 9.9402,-3.22385c1.07462,-0.59701 2.14923,-1.10447 3.22385,-1.52237c1.07462,-0.41791 2.20893,-0.92536 3.40295,-1.52237c0.71641,-0.2388 1.01492,-0.35821 0.89551,-0.35821c0.47761,-0.2388 1.07462,-0.47761 1.79103,-0.71641c0.71641,-0.2388 1.37312,-0.47761 1.97013,-0.71641c2.02983,-0.95521 3.85071,-1.91043 5.46263,-2.86564c1.61192,-0.95521 3.3731,-1.85073 5.28353,-2.68654v-0.1791c3.10445,-1.67163 6.5671,-3.46265 10.38796,-5.37308c3.82086,-1.91043 7.28351,-3.99996 10.38796,-6.26859c1.31342,-1.07462 2.68654,-2.11938 4.11936,-3.1343c1.43282,-1.01492 2.74624,-2.11938 3.94026,-3.3134c1.19402,-1.31342 2.38804,-2.77609 3.58205,-4.38802c1.19402,-1.61192 2.38804,-3.2537 3.58205,-4.92532c0.83581,-1.79103 1.55222,-3.76116 2.14923,-5.91039c0.59701,-2.14923 0.89551,-4.41787 0.89551,-6.8059c-0.2388,-2.26863 -0.68656,-4.05966 -1.34327,-5.37308c-0.65671,-1.31342 -1.58207,-2.62684 -2.77609,-3.94026c-1.31342,-1.43282 -2.65669,-2.59699 -4.02981,-3.4925c-1.37312,-0.89551 -3.0746,-1.76118 -5.10443,-2.59699c-1.67163,-0.59701 -3.82086,-1.19402 -6.4477,-1.79103c-2.62684,-0.59701 -5.07458,-0.95521 -7.34321,-1.07462c-8.83573,-0.95521 -17.07446,-0.35821 -24.71617,1.79103c-5.61188,1.67163 -10.65661,3.4328 -15.13418,5.28353c-4.47757,1.85073 -8.98499,4.32832 -13.52225,7.43276c-1.07462,0.47761 -2.14923,1.13432 -3.22385,1.97013c-1.07462,0.83581 -2.14923,1.55222 -3.22385,2.14923c-1.07462,0.71641 -1.73133,1.22387 -1.97013,1.52237c-0.2388,0.2985 -0.89551,0.74626 -1.97013,1.34327c-0.71641,0.59701 -1.22387,1.01492 -1.52237,1.25372c-0.2985,0.2388 -0.56716,0.44776 -0.80596,0.62686c-0.2388,0.1791 -0.47761,0.41791 -0.71641,0.71641c-0.2388,0.2985 -0.65671,0.68656 -1.25372,1.16417c-1.67163,1.07462 -2.98504,2.14923 -3.94026,3.22385c-0.95521,1.07462 -2.08953,2.26863 -3.40295,3.58205c0,0.2388 -0.1791,0.44776 -0.53731,0.62686c-0.35821,0.1791 -0.71641,0.44776 -1.07462,0.80596c-0.2388,0.2388 -0.41791,0.44776 -0.53731,0.62686c-0.1194,0.1791 -0.2985,0.32835 -0.53731,0.44776c-0.35821,0.47761 -0.74626,0.83581 -1.16417,1.07462c-0.41791,0.2388 -0.86566,0.53731 -1.34327,0.89551c-0.2388,-0.2388 -0.44776,-0.26865 -0.62686,-0.08955c-0.1791,0.1791 -0.44776,0.26865 -0.80596,0.26865c-0.2388,-0.2388 -0.38806,-0.38806 -0.44776,-0.44776c-0.0597,-0.0597 -0.14925,-0.26865 -0.26865,-0.62686c-0.1194,-0.2388 -0.20895,-0.2985 -0.26865,-0.1791c-0.0597,0.1194 -0.14925,0.1791 -0.26865,0.1791c-0.1194,-0.35821 -0.20895,-0.62686 -0.26865,-0.80596c-0.0597,-0.1791 -0.20895,-0.38806 -0.44776,-0.62686c-1.07462,-2.50744 -1.34327,-4.44772 -0.80596,-5.82084c0.53731,-1.37312 1.64177,-2.89549 3.3134,-4.56712l2.86564,-3.22385l1.25372,-1.43282c0.2388,-0.2388 0.56716,-0.44776 0.98506,-0.62686c0.41791,-0.1791 0.80596,-0.44776 1.16417,-0.80596c0.59701,-0.95521 1.43282,-1.76118 2.50744,-2.41789c1.07462,-0.65671 2.08953,-1.40297 3.04475,-2.23878c1.43282,-1.19402 2.53729,-2.08953 3.3134,-2.68654c0.77611,-0.59701 1.49252,-1.13432 2.14923,-1.61192c0.65671,-0.47761 1.34327,-0.92536 2.05968,-1.34327c0.71641,-0.41791 1.73133,-1.04477 3.04475,-1.88058c3.10445,-1.79103 6.23874,-3.4328 9.40289,-4.92532c3.16415,-1.49252 6.47755,-2.89549 9.9402,-4.20891c4.05966,-1.79103 8.29842,-3.22385 12.71629,-4.29846c4.41787,-1.07462 9.13424,-1.73133 14.14911,-1.97013c0.47761,-0.1194 0.92536,-0.14925 1.34327,-0.08955c0.41791,0.0597 0.86566,0.08955 1.34327,0.08955c0.59701,-0.1194 1.25372,-0.2388 1.97013,-0.35821c0.71641,-0.1194 1.31342,-0.0597 1.79103,0.1791c0.2388,-0.1194 0.35821,-0.1194 0.35821,0c0,0.1194 0.1194,0.1194 0.35821,0c0.83581,0.1194 1.64177,0.08955 2.41789,-0.08955c0.77611,-0.1791 1.46267,-0.14925 2.05968,0.08955c2.14923,0.1194 4.53727,0.32835 7.16411,0.62686c2.62684,0.2985 4.95517,0.74626 6.98501,1.34327c1.55222,0.47761 3.16415,1.07462 4.83577,1.79103c1.67163,0.71641 2.98504,1.37312 3.94026,1.97013l1.61192,0.71641l1.25372,0.53731l0.89551,0.89551c1.67163,1.07462 3.16415,2.26863 4.47757,3.58205c1.31342,1.31342 2.44774,2.98504 3.40295,5.01488c0.59701,1.31342 1.22387,2.65669 1.88058,4.02981c0.65671,1.37312 1.04477,2.89549 1.16417,4.56712c0.2388,0.71641 0.38806,1.61192 0.44776,2.68654c0.0597,1.07462 0.02985,2.02983 -0.08955,2.86564c-0.1194,2.02983 -0.41791,4.05966 -0.89551,6.08949c-0.47761,2.02983 -1.01492,3.88056 -1.61192,5.55218c-0.59701,1.55222 -1.22387,2.95519 -1.88058,4.20891c-0.65671,1.25372 -1.52237,2.53729 -2.59699,3.85071c-1.31342,1.91043 -2.86564,3.64175 -4.65667,5.19398c-1.31342,1.67163 -2.95519,3.22385 -4.92532,4.65667c-1.97013,1.43282 -3.79101,2.92534 -5.46263,4.47757c-0.95521,0.71641 -1.97013,1.37312 -3.04475,1.97013c-1.07462,0.59701 -1.97013,1.25372 -2.68654,1.97013c-2.14923,1.43282 -4.59697,2.83579 -7.34321,4.20891c-2.74624,1.37312 -5.43278,2.71639 -8.05962,4.02981c-0.2388,0.2388 -0.47761,0.38806 -0.71641,0.44776c-0.2388,0.0597 -0.47761,0.20895 -0.71641,0.44776c-0.59701,0.1194 -0.98506,0.2388 -1.16417,0.35821c-0.1791,0.1194 -0.44776,0.2388 -0.80596,0.35821c-1.19402,0.95521 -2.32834,1.61192 -3.40295,1.97013c-0.2388,0.2388 -0.59701,0.35821 -1.07462,0.35821c-0.47761,0.2388 -0.65671,0.35821 -0.53731,0.35821c0,0.1194 -0.02985,0.14925 -0.08955,0.08955c-0.0597,-0.0597 -0.08955,-0.02985 -0.08955,0.08955h-0.35821l-2.50744,1.07462c-0.1194,0 -0.1791,0.02985 -0.1791,0.08955c0,0.0597 -0.0597,0.08955 -0.1791,0.08955h-0.1791c-0.2388,0.1194 -0.35821,0.20895 -0.35821,0.26865c0,0.0597 -0.1194,0.08955 -0.35821,0.08955l-0.89551,0.35821c0.1194,0 -0.0597,0.1194 -0.53731,0.35821c-0.59701,0.47761 -1.25372,0.71641 -1.97013,0.71641c-0.71641,0 -1.25372,0.2388 -1.61192,0.71641c-1.07462,0.2388 -1.97013,0.50746 -2.68654,0.80596c-0.71641,0.2985 -1.55222,0.56716 -2.50744,0.80596c-0.95521,0.59701 -1.94028,1.01492 -2.95519,1.25372c-1.01492,0.2388 -1.99998,0.53731 -2.95519,0.89551c-1.07462,0.35821 -2.11938,0.71641 -3.1343,1.07462c-1.01492,0.35821 -1.99998,0.65671 -2.95519,0.89551z" data-paper-data="{&quot;glyphName&quot;:&quot;R&quot;,&quot;glyphIndex&quot;:0,&quot;firstGlyphOfWord&quot;:true,&quot;word&quot;:1}" fill="url(&quot;#color-1755442772&quot;)"></path><path d="M283.71882,261.74481c-0.2388,-0.1194 -0.35821,0.1194 -0.35821,0.71641l0.1791,-0.1791c0,0 0.0597,-0.0597 0.1791,-0.1791c0.1194,0 0.1791,-0.0597 0.1791,-0.1791l0.71641,0.53731h-0.35821c-0.35821,0.2388 -0.53731,0.41791 -0.53731,0.53731c0,0.2388 -0.02985,0.2985 -0.08955,0.1791c-0.0597,-0.1194 -0.08955,-0.2388 -0.08955,-0.35821h-0.1791v-0.1791c0.1194,0 0.1791,-0.0597 0.1791,-0.1791c0,0 -0.0597,0.0597 -0.1791,0.1791v-0.1791l-0.35821,0.53731c-0.1194,0 -0.20895,-0.0597 -0.26865,-0.1791c-0.0597,-0.1194 -0.20895,-0.2388 -0.44776,-0.35821c-0.2388,0 -0.32835,0.0597 -0.26865,0.1791c0.0597,0.1194 0.02985,0.1791 -0.08955,0.1791c-0.59701,-0.1194 -1.10447,-0.1791 -1.52237,-0.1791c-0.41791,0 -0.92536,0 -1.52237,0c0,0.1194 -0.2985,0.08955 -0.89551,-0.08955c-0.59701,-0.1791 -0.95521,-0.14925 -1.07462,0.08955c0,-0.2388 -1.10447,-0.35821 -3.3134,-0.35821c-2.20893,0 -4.68652,0.1791 -7.43276,0.53731c-2.74624,0.35821 -5.34323,0.86566 -7.79097,1.52237c-2.44774,0.65671 -3.85071,1.40297 -4.20891,2.23878c0,0.2388 -0.1791,0.59701 -0.53731,1.07462c-0.35821,0.47761 -0.59701,0.71641 -0.71641,0.71641c-0.1194,0.1194 -0.08955,0.20895 0.08955,0.26865c0.1791,0.0597 0.14925,0.20895 -0.08955,0.44776c-1.07462,2.26863 -1.94028,4.08951 -2.59699,5.46263c-0.65671,1.37312 -1.28357,2.65669 -1.88058,3.85071c-0.59701,1.19402 -1.25372,2.47759 -1.97013,3.85071c-0.71641,1.37312 -1.67163,3.194 -2.86564,5.46263c-2.38804,4.65667 -4.41787,8.68648 -6.08949,12.08943c-1.67163,3.40295 -2.74624,5.34323 -3.22385,5.82084c-0.47761,0.95521 -1.01492,1.76118 -1.61192,2.41789c-0.59701,0.65671 -1.13432,1.46267 -1.61192,2.41789c-0.59701,1.07462 -1.34327,2.23878 -2.23878,3.4925c-0.89551,1.25372 -1.82088,2.47759 -2.77609,3.67161c-0.95521,1.19402 -1.91043,2.32834 -2.86564,3.40295c-0.95521,1.07462 -1.73133,1.85073 -2.32834,2.32834c0,0.2388 -0.0597,0.38806 -0.1791,0.44776c-0.1194,0.0597 -0.1791,0.14925 -0.1791,0.26865c-0.1194,0.35821 -0.41791,0.68656 -0.89551,0.98506c-0.47761,0.2985 -1.01492,0.56716 -1.61192,0.80596c-1.91043,2.14923 -4.53727,3.94026 -7.88052,5.37308c-0.95521,0.59701 -2.02983,0.95521 -3.22385,1.07462c-1.19402,0.1194 -2.32834,0.1194 -3.40295,0c-1.07462,-0.1194 -1.97013,-0.41791 -2.68654,-0.89551c-0.71641,-0.47761 -1.55222,-0.95521 -2.50744,-1.43282c-0.59701,-0.83581 -1.19402,-1.46267 -1.79103,-1.88058c-0.59701,-0.41791 -1.07462,-0.92536 -1.43282,-1.52237c-0.35821,-0.71641 -0.41791,-1.25372 -0.1791,-1.61192c-0.47761,-0.95521 -0.83581,-1.85073 -1.07462,-2.68654c-0.2388,-0.83581 -0.41791,-1.85073 -0.53731,-3.04475c-0.1194,-0.47761 -0.1791,-0.95521 -0.1791,-1.43282c0,-0.47761 0,-0.83581 0,-1.07462c0.1194,-2.26863 0.32835,-4.47757 0.62686,-6.6268c0.2985,-2.14923 0.68656,-4.23876 1.16417,-6.26859c0.83581,-3.22385 1.70148,-5.64173 2.59699,-7.25366c0.89551,-1.61192 1.99998,-3.6119 3.3134,-5.99994c0.35821,-0.59701 0.71641,-1.13432 1.07462,-1.61192c0.35821,-0.47761 0.65671,-0.83581 0.89551,-1.07462c0,-0.1194 0.02985,-0.1791 0.08955,-0.1791c0.0597,0 0.08955,-0.0597 0.08955,-0.1791l0.1791,-0.1791c0.1194,0 0.1791,-0.0597 0.1791,-0.1791c0,0 0.0597,-0.1194 0.1791,-0.35821c1.91043,-2.26863 3.6119,-4.02981 5.10443,-5.28353c1.49252,-1.25372 3.4328,-2.89549 5.82084,-4.92532c2.38804,-1.79103 4.68652,-3.40295 6.89545,-4.83577c2.20893,-1.43282 4.68652,-2.86564 7.43276,-4.29846c0.1194,0 0.1791,-0.0597 0.1791,-0.1791c0.1194,0 0.2388,-0.0597 0.35821,-0.1791c0.35821,-0.47761 0.80596,-0.74626 1.34327,-0.80596c0.53731,-0.0597 1.22387,-0.38806 2.05968,-0.98506c2.62684,-0.83581 4.77607,-1.64177 6.4477,-2.41789c1.67163,-0.77611 3.94026,-1.64177 6.8059,-2.59699c0.59701,-0.59701 0.95521,-1.10447 1.07462,-1.52237c0.1194,-0.41791 0.2985,-0.92536 0.53731,-1.52237c0.1194,-0.2388 0.1791,-0.47761 0.1791,-0.71641c0.1194,-0.1194 0.50746,-0.92536 1.16417,-2.41789c0.65671,-1.49252 1.34327,-3.10445 2.05968,-4.83577c0.71641,-1.73133 1.40297,-3.40295 2.05968,-5.01488c0.65671,-1.61192 1.04477,-2.59699 1.16417,-2.95519l6.6268,-16.11924l0.53731,-1.43282l0.53731,-0.89551l1.25372,-3.04475c-0.71641,0.59701 -1.40297,1.22387 -2.05968,1.88058c-0.65671,0.65671 -1.28357,1.22387 -1.88058,1.70148l-1.07462,1.25372l-3.58205,3.22385c-0.59701,0.59701 -1.25372,1.22387 -1.97013,1.88058c-0.71641,0.65671 -1.43282,1.16417 -2.14923,1.52237l0.1791,-0.1791h-0.1791c-0.1194,0 -0.1791,0.0597 -0.1791,0.1791l-1.61192,1.43282c-0.35821,0 -0.53731,0.1194 -0.53731,0.35821c0.1194,-0.1194 0.2985,-0.1791 0.53731,-0.1791l-4.11936,3.04475c-0.59701,0.47761 -1.28357,0.83581 -2.05968,1.07462c-0.77611,0.2388 -1.46267,0.65671 -2.05968,1.25372c-0.2388,-0.2388 -0.47761,-0.2985 -0.71641,-0.1791c-0.2388,0.1194 -0.53731,0.2388 -0.89551,0.35821c-0.1194,0.1194 -0.2985,0.1791 -0.53731,0.1791h-0.1791c-0.83581,0.2388 -1.70148,0.35821 -2.59699,0.35821c-0.89551,0 -1.58207,-0.1194 -2.05968,-0.35821c-0.2388,-0.1194 -0.44776,-0.1194 -0.62686,0c-0.1791,0.1194 -0.26865,0.1194 -0.26865,0c-0.1194,-0.2388 -0.1791,-0.35821 -0.1791,-0.35821c-0.2388,0 -0.56716,-0.14925 -0.98506,-0.44776c-0.41791,-0.2985 -0.74626,-0.50746 -0.98506,-0.62686c0,0.2388 0,0.35821 0,0.35821c-0.1194,-0.1194 -0.1791,-0.2985 -0.1791,-0.53731c-0.1194,0 -0.2985,-0.1194 -0.53731,-0.35821c-0.59701,-0.2388 -0.95521,-0.56716 -1.07462,-0.98506c-0.1194,-0.41791 -0.2388,-1.04477 -0.35821,-1.88058c0,-0.47761 -0.1194,-0.83581 -0.35821,-1.07462c-0.1194,0 -0.1791,-0.1791 -0.1791,-0.53731c-0.2388,-0.2388 -0.2388,-0.71641 0,-1.43282c0,-0.2388 0.02985,-0.47761 0.08955,-0.71641c0.0597,-0.2388 0.08955,-0.53731 0.08955,-0.89551c0.35821,-2.02983 0.62686,-3.70146 0.80596,-5.01488c0.1791,-1.31342 0.56716,-2.62684 1.16417,-3.94026c0.1194,-1.07462 0.35821,-2.02983 0.71641,-2.86564c0.35821,-0.83581 0.77611,-1.73133 1.25372,-2.68654c0.2388,-0.95521 0.56716,-1.82088 0.98506,-2.59699c0.41791,-0.77611 0.74626,-1.64177 0.98506,-2.59699c0.2388,-0.35821 0.50746,-0.71641 0.80596,-1.07462c0.2985,-0.35821 0.44776,-0.77611 0.44776,-1.25372c0.2388,-0.83581 0.77611,-1.67163 1.61192,-2.50744l7.70142,-12.89539c0.2388,-0.1194 0.38806,-0.32835 0.44776,-0.62686c0.0597,-0.2985 0.20895,-0.56716 0.44776,-0.80596l2.68654,-3.76116l2.14923,-2.86564c1.31342,-0.95521 2.65669,-0.95521 4.02981,0c1.37312,0.95521 2.17908,1.97013 2.41789,3.04475c0,0.35821 0.1194,0.59701 0.35821,0.71641c0,0 0.1194,0.1194 0.35821,0.35821c0.1194,0.2388 0.14925,0.50746 0.08955,0.80596c-0.0597,0.2985 -0.02985,0.56716 0.08955,0.80596c-0.1194,0.2388 -0.1791,0.65671 -0.1791,1.25372c-0.2388,0.59701 -0.53731,1.16417 -0.89551,1.70148c-0.35821,0.53731 -0.65671,0.98506 -0.89551,1.34327c-1.79103,2.14923 -3.46265,4.56712 -5.01488,7.25366c-1.55222,2.68654 -3.16415,5.40293 -4.83577,8.14917c-0.83581,1.43282 -1.61192,2.89549 -2.32834,4.38802c-0.71641,1.49252 -1.49252,3.0746 -2.32834,4.74622c-0.47761,0.83581 -0.86566,1.67163 -1.16417,2.50744c-0.2985,0.83581 -0.62686,1.73133 -0.98506,2.68654c-0.2388,0.83581 -0.41791,1.76118 -0.53731,2.77609c-0.1194,1.01492 0.0597,1.99998 0.53731,2.95519c0.59701,0.1194 1.25372,0 1.97013,-0.35821c0.71641,-0.35821 1.19402,-0.65671 1.43282,-0.89551c1.31342,-0.95521 2.65669,-1.99998 4.02981,-3.1343c1.37312,-1.13432 2.65669,-2.29848 3.85071,-3.4925c1.07462,-0.59701 1.91043,-1.31342 2.50744,-2.14923c4.65667,-4.17906 8.71633,-8.47753 12.17898,-12.89539c1.67163,-1.67163 3.194,-3.4328 4.56712,-5.28353c1.37312,-1.85073 2.59699,-3.6119 3.67161,-5.28353c0.59701,-1.07462 1.19402,-2.17908 1.79103,-3.3134c0.59701,-1.13432 1.31342,-1.99998 2.14923,-2.59699c0.1194,-0.59701 0.2985,-1.04477 0.53731,-1.34327c0.2388,-0.2985 0.47761,-0.68656 0.71641,-1.16417c0.35821,0 0.53731,-0.1194 0.53731,-0.35821l0.1791,-0.1791l0.71641,-1.07462c0.35821,-0.71641 1.07462,-1.43282 2.14923,-2.14923c0.83581,-0.59701 1.85073,-0.59701 3.04475,0c0.47761,0.35821 0.95521,1.01492 1.43282,1.97013c0.59701,0.59701 0.98506,1.25372 1.16417,1.97013c0.1791,0.71641 0.08955,1.55222 -0.26865,2.50744c-0.2388,0.2388 -0.41791,0.53731 -0.53731,0.89551c-0.1194,0.35821 -0.2985,0.77611 -0.53731,1.25372c-0.1194,0.47761 -0.41791,1.07462 -0.89551,1.79103c0,0.59701 -0.08955,1.01492 -0.26865,1.25372c-0.1791,0.2388 -0.38806,0.47761 -0.62686,0.71641c-0.59701,0.83581 -1.07462,1.55222 -1.43282,2.14923c-0.35821,0.59701 -0.71641,1.25372 -1.07462,1.97013c-0.71641,0.95521 -1.28357,1.99998 -1.70148,3.1343c-0.41791,1.13432 -0.98506,2.17908 -1.70148,3.1343l-5.55218,12.71629l-2.32834,6.08949v0.35821c-0.59701,1.19402 -1.07462,2.17908 -1.43282,2.95519c-0.35821,0.77611 -0.47761,1.04477 -0.35821,0.80596l-5.55218,13.4327c-1.31342,2.74624 -2.32834,5.13428 -3.04475,7.16411c-0.71641,2.02983 -1.55222,4.41787 -2.50744,7.16411c0.59701,0 1.25372,-0.08955 1.97013,-0.26865c0.71641,-0.1791 1.37312,-0.38806 1.97013,-0.62686c2.38804,-0.71641 4.41787,-1.13432 6.08949,-1.25372c1.67163,-0.1194 2.92534,-0.1791 3.76116,-0.1791c-0.1194,-0.1194 0.35821,-0.1791 1.43282,-0.1791c1.07462,0 1.91043,0.0597 2.50744,0.1791c1.79103,0 3.10445,0.2388 3.94026,0.71641c0.1194,0.1194 0.20895,0.08955 0.26865,-0.08955c0.0597,-0.1791 0.14925,-0.08955 0.26865,0.26865c-0.1194,0.2388 0.35821,0.35821 1.43282,0.35821c1.07462,0 1.61192,0.1194 1.61192,0.35821c0.47761,0.1194 0.65671,0.35821 0.53731,0.71641c-0.1194,0.35821 0.0597,0.59701 0.53731,0.71641v-1.07462c0.2388,0.1194 0.2985,0.53731 0.1791,1.25372c-0.1194,0.71641 0.0597,1.07462 0.53731,1.07462c0.1194,0.1194 0.1791,0.53731 0.1791,1.25372c0,0.71641 -0.1194,1.19402 -0.35821,1.43282v0.1791c0,0 -0.0597,0 -0.1791,0l-0.35821,-0.1791zM242.5252,269.98353c-2.50744,0.59701 -5.04473,1.67163 -7.61186,3.22385c-2.56714,1.55222 -5.16413,3.16415 -7.79097,4.83577c-2.26863,1.43282 -4.17906,2.74624 -5.73129,3.94026c-1.55222,1.19402 -2.98504,2.38804 -4.29846,3.58205c-1.31342,1.19402 -2.53729,2.47759 -3.67161,3.85071c-1.13432,1.37312 -2.41789,3.0149 -3.85071,4.92532c-0.35821,0.83581 -0.65671,1.43282 -0.89551,1.79103c-0.2388,0.35821 -0.44776,0.65671 -0.62686,0.89551c-0.1791,0.2388 -0.38806,0.56716 -0.62686,0.98506c-0.2388,0.41791 -0.59701,1.04477 -1.07462,1.88058l-1.25372,3.76116c-0.47761,0.71641 -0.95521,1.88058 -1.43282,3.4925c-0.47761,1.61192 -0.80596,3.3134 -0.98506,5.10443c-0.1791,1.79103 -0.20895,3.58205 -0.08955,5.37308c0.1194,1.79103 0.53731,3.28355 1.25372,4.47757c0.35821,0.71641 1.13432,0.95521 2.32834,0.71641c2.38804,-0.35821 4.23876,-1.19402 5.55218,-2.50744c1.31342,-1.31342 2.98504,-2.92534 5.01488,-4.83577c0,-0.35821 0.1194,-0.59701 0.35821,-0.71641c0.2388,-0.1194 0.41791,-0.2985 0.53731,-0.53731c0.35821,0 0.53731,-0.14925 0.53731,-0.44776c0,-0.2985 0.1791,-0.50746 0.53731,-0.62686c0.71641,-1.19402 1.46267,-2.20893 2.23878,-3.04475c0.77611,-0.83581 1.40297,-1.73133 1.88058,-2.68654c1.43282,-1.79103 2.32834,-3.0746 2.68654,-3.85071c0.35821,-0.77611 0.95521,-1.99998 1.79103,-3.67161c0.2388,-0.2388 0.35821,-0.41791 0.35821,-0.53731c0,-0.1194 0.1194,-0.2985 0.35821,-0.53731c1.43282,-2.86564 2.68654,-5.19398 3.76116,-6.98501c1.07462,-1.79103 2.05968,-3.52235 2.95519,-5.19398c0.89551,-1.67163 1.85073,-3.4925 2.86564,-5.46263c1.01492,-1.97013 2.23878,-4.50742 3.67161,-7.61186c0,-0.1194 0.08955,-0.32835 0.26865,-0.62686c0.1791,-0.2985 0.20895,-0.44776 0.08955,-0.44776zM263.48021,219.29747c-0.1194,0 -0.1791,0.0597 -0.1791,0.1791c0,0 0.0597,-0.0597 0.1791,-0.1791z" data-paper-data="{&quot;glyphName&quot;:&quot;y&quot;,&quot;glyphIndex&quot;:1,&quot;word&quot;:1}" fill="url(&quot;#color-1755442772&quot;)"></path><path d="M352.67336,199.23797l0.1791,0.35821v0.35821c0.2388,-0.1194 0.44776,-0.2388 0.62686,-0.35821c0.1791,-0.1194 0.38806,-0.2388 0.62686,-0.35821c0.1194,-0.1194 0.14925,-0.02985 0.08955,0.26865c-0.0597,0.2985 -0.02985,0.44776 0.08955,0.44776c0.1194,0 0.2388,-0.08955 0.35821,-0.26865c0.1194,-0.1791 0.1791,-0.20895 0.1791,-0.08955c0,0.1194 0.0597,0.2388 0.1791,0.35821h0.35821c0.35821,0 0.53731,0 0.53731,0c0.1194,0.1194 0.1791,0.35821 0.1791,0.71641v0.71641c0,0.35821 -0.0597,0.71641 -0.1791,1.07462c-0.1194,0.35821 -0.2388,0.71641 -0.35821,1.07462c-0.2388,0.59701 -0.50746,1.16417 -0.80596,1.70148c-0.2985,0.53731 -0.50746,1.10447 -0.62686,1.70148c-0.59701,1.67163 -1.43282,3.28355 -2.50744,4.83577l-2.14923,3.22385c-0.83581,0.95521 -1.37312,1.73133 -1.61192,2.32834c-2.02983,3.34325 -4.32832,6.26859 -6.89545,8.77603c-2.56714,2.50744 -5.40293,5.13428 -8.50738,7.88052c-0.2388,0.1194 -0.71641,0.44776 -1.43282,0.98506c-0.71641,0.53731 -1.19402,0.80596 -1.43282,0.80596c-0.2388,0.2388 -0.65671,0.47761 -1.25372,0.71641c-0.59701,0.2388 -1.19402,0.47761 -1.79103,0.71641c-0.47761,0.47761 -0.71641,0.62686 -0.71641,0.44776c0,-0.1791 -0.59701,-0.14925 -1.79103,0.08955c-0.71641,0.2388 -1.58207,0.2985 -2.59699,0.1791c-1.01492,-0.1194 -1.82088,-0.1791 -2.41789,-0.1791c-0.1194,-0.2388 -0.47761,-0.35821 -1.07462,-0.35821c-0.59701,0 -0.95521,-0.0597 -1.07462,-0.1791c-0.2388,-0.1194 -0.47761,-0.26865 -0.71641,-0.44776c-0.2388,-0.1791 -0.47761,-0.32835 -0.71641,-0.44776c-0.59701,-0.47761 -1.10447,-1.40297 -1.52237,-2.77609c-0.41791,-1.37312 -0.74626,-2.53729 -0.98506,-3.4925c-0.1194,-0.71641 -0.14925,-1.46267 -0.08955,-2.23878c0.0597,-0.77611 0.02985,-1.40297 -0.08955,-1.88058c-0.59701,0.35821 -1.10447,0.77611 -1.52237,1.25372c-0.41791,0.47761 -0.86566,1.01492 -1.34327,1.61192l-2.86564,2.50744l-5.37308,4.29846c-1.31342,0.95521 -2.59699,1.88058 -3.85071,2.77609c-1.25372,0.89551 -2.71639,1.70148 -4.38802,2.41789c-0.95521,0.1194 -2.05968,0.32835 -3.3134,0.62686c-1.25372,0.2985 -2.17908,0.20895 -2.77609,-0.26865c-0.2388,0 -0.53731,-0.02985 -0.89551,-0.08955c-0.35821,-0.0597 -0.65671,-0.08955 -0.89551,-0.08955l-4.29846,-1.97013c-0.35821,-0.35821 -0.65671,-0.80596 -0.89551,-1.34327c-0.2388,-0.53731 -0.47761,-1.22387 -0.71641,-2.05968c-0.35821,-0.59701 -0.71641,-1.25372 -1.07462,-1.97013c-0.35821,-0.71641 -0.41791,-1.67163 -0.1791,-2.86564c0.1194,-1.07462 0.2388,-2.08953 0.35821,-3.04475c0.1194,-0.95521 0.2985,-1.73133 0.53731,-2.32834c0.1194,-0.35821 0.1791,-0.74626 0.1791,-1.16417c0,-0.41791 0.1194,-0.74626 0.35821,-0.98506c0.47761,-1.55222 0.95521,-2.86564 1.43282,-3.94026c0.47761,-1.07462 1.13432,-2.44774 1.97013,-4.11936l1.79103,-3.76116c0.2388,-1.19402 0.71641,-1.97013 1.43282,-2.32834c0.59701,-1.31342 1.28357,-2.44774 2.05968,-3.40295c0.77611,-0.95521 1.52237,-2.02983 2.23878,-3.22385c0.1194,0 0.20895,-0.0597 0.26865,-0.1791c0.0597,-0.1194 0.14925,-0.1791 0.26865,-0.1791c0.2388,-0.95521 0.71641,-1.73133 1.43282,-2.32834c0.71641,-0.59701 1.31342,-1.25372 1.79103,-1.97013c0.1194,-0.1194 0.2985,-0.1791 0.53731,-0.1791c0.83581,-1.43282 1.79103,-2.56714 2.86564,-3.40295c1.07462,-0.83581 2.14923,-1.67163 3.22385,-2.50744c2.02983,-1.91043 4.35817,-3.40295 6.98501,-4.47757c0.2388,-0.47761 0.65671,-0.77611 1.25372,-0.89551c0.59701,-0.1194 1.25372,-0.41791 1.97013,-0.89551c0.95521,-0.35821 1.82088,-0.53731 2.59699,-0.53731c0.77611,0 1.52237,0 2.23878,0c0.35821,0 0.77611,0 1.25372,0c0.47761,0 0.95521,0.1194 1.43282,0.35821c-0.1194,-0.1194 0,-0.1194 0.35821,0c0.35821,0.1194 0.77611,0.26865 1.25372,0.44776c0.47761,0.1791 0.95521,0.35821 1.43282,0.53731c0.47761,0.1791 0.83581,0.26865 1.07462,0.26865l1.07462,1.25372c0.59701,0.59701 1.07462,1.10447 1.43282,1.52237c0.35821,0.41791 0.77611,1.40297 1.25372,2.95519c0.95521,-1.31342 1.67163,-2.26863 2.14923,-2.86564c0.47761,-0.59701 1.25372,-1.55222 2.32834,-2.86564c0.59701,-0.83581 1.07462,-1.28357 1.43282,-1.34327c0.35821,-0.0597 1.07462,-0.08955 2.14923,-0.08955c0.35821,0 0.71641,0.2388 1.07462,0.71641c0.35821,0.47761 0.77611,0.83581 1.25372,1.07462c0.95521,0.47761 1.46267,1.40297 1.52237,2.77609c0.0597,1.37312 -0.14925,2.53729 -0.62686,3.4925c-0.1194,0.2388 -0.2985,0.47761 -0.53731,0.71641c-0.2388,0.2388 -0.35821,0.47761 -0.35821,0.71641c-0.1194,0.35821 -0.41791,0.77611 -0.89551,1.25372l-0.1791,0.1791v0.1791c0,0.1194 -0.0597,0.2388 -0.1791,0.35821c-0.35821,0.47761 -0.50746,0.80596 -0.44776,0.98506c0.0597,0.1791 -0.02985,0.38806 -0.26865,0.62686c-0.2388,0.2388 -0.41791,0.47761 -0.53731,0.71641c-0.1194,0.2388 -0.2388,0.53731 -0.35821,0.89551l-1.25372,1.43282c-0.2388,0.47761 -0.47761,0.98506 -0.71641,1.52237c-0.2388,0.53731 -0.47761,0.92536 -0.71641,1.16417c-0.2388,0.71641 -0.50746,1.22387 -0.80596,1.52237c-0.2985,0.2985 -0.56716,0.56716 -0.80596,0.80596c-0.2388,0.2388 -0.47761,0.83581 -0.71641,1.79103c-0.35821,0.2388 -0.59701,0.62686 -0.71641,1.16417c-0.1194,0.53731 -0.47761,1.04477 -1.07462,1.52237c-0.95521,2.38804 -1.85073,4.86562 -2.68654,7.43276c-0.83581,2.56714 -1.19402,5.58203 -1.07462,9.04469c0.2388,0.59701 0.62686,0.86566 1.16417,0.80596c0.53731,-0.0597 0.68656,-0.02985 0.44776,0.08955c1.19402,-0.83581 2.05968,-1.40297 2.59699,-1.70148c0.53731,-0.2985 1.01492,-0.53731 1.43282,-0.71641c0.41791,-0.1791 0.89551,-0.50746 1.43282,-0.98506c0.53731,-0.47761 1.34327,-1.37312 2.41789,-2.68654l2.32834,-2.14923c2.50744,-2.50744 4.74622,-5.10443 6.71635,-7.79097c1.97013,-2.68654 3.97011,-5.52233 5.99994,-8.50738c0.2388,-0.47761 0.65671,-1.01492 1.25372,-1.61192l0.53731,-0.71641l1.07462,-1.25372c0.2388,-0.2388 0.41791,-0.35821 0.53731,-0.35821zM290.52472,232.73017c3.10445,-1.67163 5.99994,-3.67161 8.68648,-5.99994c2.68654,-2.32834 5.19398,-4.80592 7.52231,-7.43276c2.32834,-2.62684 4.50742,-5.31338 6.53725,-8.05962c2.02983,-2.74624 3.99996,-5.37308 5.91039,-7.88052c1.07462,-3.10445 1.70148,-5.28353 1.88058,-6.53725c0.1791,-1.25372 -0.20895,-2.41789 -1.16417,-3.4925c-0.47761,-0.47761 -1.01492,-0.71641 -1.61192,-0.71641c-0.59701,0 -1.13432,0.0597 -1.61192,0.1791l-3.22385,1.79103c-2.50744,1.79103 -4.65667,3.70146 -6.4477,5.73129c-2.02983,1.91043 -3.5522,3.6119 -4.56712,5.10443c-1.01492,1.49252 -1.70148,2.41789 -2.05968,2.77609c-0.71641,0.95521 -1.46267,1.97013 -2.23878,3.04475c-0.77611,1.07462 -1.46267,2.08953 -2.05968,3.04475c-0.83581,1.19402 -1.58207,2.38804 -2.23878,3.58205c-0.65671,1.19402 -1.28357,2.44774 -1.88058,3.76116l-1.79103,3.76116c-0.59701,1.19402 -0.89551,2.26863 -0.89551,3.22385v3.04475c0.95521,0.2388 1.22387,0.44776 0.80596,0.62686c-0.41791,0.1791 -0.26865,0.32835 0.44776,0.44776z" data-paper-data="{&quot;glyphName&quot;:&quot;a&quot;,&quot;glyphIndex&quot;:2,&quot;word&quot;:1}" fill="url(&quot;#color-1755442772&quot;)"></path><path d="M410.34442,201.02899c0.2388,0.35821 0.20895,0.74626 -0.08955,1.16417c-0.2985,0.41791 -0.50746,0.80596 -0.62686,1.16417c0.2388,0.1194 0.35821,0.0597 0.35821,-0.1791c0,-0.2388 0.1194,-0.2985 0.35821,-0.1791c0,0.59701 -0.2388,1.37312 -0.71641,2.32834c-0.47761,0.95521 -0.98506,1.94028 -1.52237,2.95519c-0.53731,1.01492 -1.07462,1.94028 -1.61192,2.77609c-0.53731,0.83581 -0.98506,1.37312 -1.34327,1.61192c-0.59701,1.31342 -1.43282,2.65669 -2.50744,4.02981c-1.07462,1.37312 -2.08953,2.71639 -3.04475,4.02981c-1.07462,1.67163 -2.38804,3.4328 -3.94026,5.28353c-1.55222,1.85073 -2.98504,3.4328 -4.29846,4.74622c-1.31342,1.07462 -2.38804,1.97013 -3.22385,2.68654c-0.83581,0.71641 -1.64177,1.37312 -2.41789,1.97013c-0.77611,0.59701 -1.61192,1.13432 -2.50744,1.61192c-0.89551,0.47761 -1.99998,0.95521 -3.3134,1.43282c-0.71641,0.2388 -1.10447,0.35821 -1.16417,0.35821c-0.0597,0 -0.38806,0.0597 -0.98506,0.1791c-0.83581,0 -1.49252,-0.0597 -1.97013,-0.1791c-0.35821,0.1194 -0.71641,0.08955 -1.07462,-0.08955c-0.35821,-0.1791 -0.65671,-0.26865 -0.89551,-0.26865c-0.2388,-0.2388 -0.53731,-0.44776 -0.89551,-0.62686c-0.35821,-0.1791 -0.65671,-0.20895 -0.89551,-0.08955c-0.71641,-0.59701 -1.37312,-1.22387 -1.97013,-1.88058c-0.59701,-0.65671 -1.01492,-1.52237 -1.25372,-2.59699c0,-0.1194 -0.0597,-0.1791 -0.1791,-0.1791c-0.1194,0 -0.0597,-0.1194 0.1791,-0.35821c-0.95521,-1.79103 -1.19402,-4.02981 -0.71641,-6.71635c0.47761,-2.68654 1.25372,-5.28353 2.32834,-7.79097c0.59701,-1.43282 1.13432,-2.95519 1.61192,-4.56712c0.47761,-1.61192 1.31342,-3.194 2.50744,-4.74622c0.2388,-0.71641 0.53731,-1.37312 0.89551,-1.97013c0.35821,-0.59701 0.59701,-1.19402 0.71641,-1.79103c0.71641,-1.67163 1.43282,-3.16415 2.14923,-4.47757c0.71641,-1.31342 1.07462,-2.29848 1.07462,-2.95519c0,-0.65671 -0.47761,-0.92536 -1.43282,-0.80596c-0.95521,0.1194 -2.68654,0.83581 -5.19398,2.14923c-2.26863,1.07462 -4.74622,2.68654 -7.43276,4.83577c-2.68654,2.14923 -5.40293,4.71637 -8.14917,7.70142c-2.74624,2.98504 -5.46263,6.35815 -8.14917,10.1193c-2.68654,3.76116 -5.16413,7.79097 -7.43276,12.08943v0.53731c-0.2388,0.2388 -0.35821,0.41791 -0.35821,0.53731c-0.47761,0.35821 -0.77611,0.74626 -0.89551,1.16417c-0.1194,0.41791 -0.2388,0.80596 -0.35821,1.16417c-0.35821,0 -0.53731,0.1791 -0.53731,0.53731c-0.59701,0.59701 -1.22387,0.92536 -1.88058,0.98506c-0.65671,0.0597 -1.28357,-0.02985 -1.88058,-0.26865c-0.59701,-0.2388 -1.13432,-0.56716 -1.61192,-0.98506c-0.47761,-0.41791 -0.77611,-0.80596 -0.89551,-1.16417c0.2388,-0.35821 0.26865,-0.56716 0.08955,-0.62686c-0.1791,-0.0597 -0.38806,-0.32835 -0.62686,-0.80596c0,-0.2388 0.0597,-0.44776 0.1791,-0.62686c0.1194,-0.1791 0.1791,-0.44776 0.1791,-0.80596h-0.1791c0.2388,-0.47761 0.2388,-0.77611 0,-0.89551c0.2388,-0.47761 0.35821,-0.89551 0.35821,-1.25372c1.55222,-4.29846 3.28355,-8.26857 5.19398,-11.91033c1.91043,-3.64175 3.82086,-7.25366 5.73129,-10.83571l10.20885,-18.08937c0.95521,-0.95521 1.85073,-1.99998 2.68654,-3.1343c0.83581,-1.13432 1.67163,-2.29848 2.50744,-3.4925c0,0 0.1194,-0.1791 0.35821,-0.53731c0.2388,0.1194 0.44776,0.02985 0.62686,-0.26865c0.1791,-0.2985 0.38806,-0.50746 0.62686,-0.62686c0.2388,0.1194 0.41791,0.1194 0.53731,0c0.1194,-0.1194 0.2388,-0.0597 0.35821,0.1791c0.1194,0 0.1791,-0.0597 0.1791,-0.1791c0.47761,0.35821 0.83581,0.53731 1.07462,0.53731l2.68654,0.89551c0.2388,0.83581 0.47761,1.25372 0.71641,1.25372c0.47761,1.07462 0.77611,2.08953 0.89551,3.04475c0.1194,0.95521 -0.1791,1.85073 -0.89551,2.68654l-2.68654,4.83577c0,0 0,0.1194 0,0.35821l1.07462,-0.71641c1.67163,-1.55222 3.5522,-2.89549 5.64173,-4.02981c2.08953,-1.13432 4.20891,-2.23878 6.35815,-3.3134l0.71641,-0.35821c0.95521,-0.35821 2.32834,-0.62686 4.11936,-0.80596c1.79103,-0.1791 3.16415,-0.14925 4.11936,0.08955c0.35821,0.1194 0.77611,0.26865 1.25372,0.44776c0.47761,0.1791 0.77611,0.38806 0.89551,0.62686c0.2388,0.1194 0.59701,0.26865 1.07462,0.44776c0.47761,0.1791 0.83581,0.44776 1.07462,0.80596c0.1194,0.35821 0.26865,0.68656 0.44776,0.98506c0.1791,0.2985 0.26865,0.74626 0.26865,1.34327v0.35821c0.35821,0.95521 0.44776,1.99998 0.26865,3.1343c-0.1791,1.13432 -0.50746,2.23878 -0.98506,3.3134c-0.47761,1.07462 -1.01492,2.08953 -1.61192,3.04475c-0.59701,0.95521 -1.07462,1.79103 -1.43282,2.50744c-1.43282,3.22385 -3.04475,6.59695 -4.83577,10.1193c-1.79103,3.52235 -3.16415,7.19396 -4.11936,11.01482c-0.1194,0.47761 -0.2388,1.10447 -0.35821,1.88058c-0.1194,0.77611 -0.1791,1.34327 -0.1791,1.70148c0,0.2388 0.08955,0.32835 0.26865,0.26865c0.1791,-0.0597 0.26865,0.02985 0.26865,0.26865c0.95521,0.47761 1.70148,0.50746 2.23878,0.08955c0.53731,-0.41791 1.10447,-0.86566 1.70148,-1.34327c0.1194,0 0.35821,-0.14925 0.71641,-0.44776c0.35821,-0.2985 0.71641,-0.62686 1.07462,-0.98506c0.35821,-0.35821 0.68656,-0.68656 0.98506,-0.98506c0.2985,-0.2985 0.38806,-0.50746 0.26865,-0.62686c0.1194,0.1194 0.20895,0.1194 0.26865,0c0.0597,-0.1194 0.14925,-0.1791 0.26865,-0.1791l2.32834,-2.32834c0.95521,-0.71641 1.52237,-1.16417 1.70148,-1.34327c0.1791,-0.1791 0.26865,-0.26865 0.26865,-0.26865c0,0 0.0597,-0.08955 0.1791,-0.26865c0.1194,-0.1791 0.53731,-0.62686 1.25372,-1.34327c0.35821,-0.35821 0.47761,-0.50746 0.35821,-0.44776c-0.1194,0.0597 0.0597,-0.08955 0.53731,-0.44776c0.35821,-0.59701 0.62686,-1.01492 0.80596,-1.25372c0.1791,-0.2388 0.98506,-1.19402 2.41789,-2.86564c0.59701,-0.95521 1.40297,-2.23878 2.41789,-3.85071c1.01492,-1.61192 1.94028,-2.89549 2.77609,-3.85071c0.1194,-0.1194 0.38806,-0.50746 0.80596,-1.16417c0.41791,-0.65671 0.89551,-1.37312 1.43282,-2.14923c0.53731,-0.77611 1.04477,-1.46267 1.52237,-2.05968c0.47761,-0.59701 0.89551,-0.95521 1.25372,-1.07462c0.2388,0 0.47761,-0.2388 0.71641,-0.71641c0.2388,-0.47761 0.47761,-0.77611 0.71641,-0.89551c0,0.1194 0.1194,0.2985 0.35821,0.53731c0.1194,0 0.20895,-0.0597 0.26865,-0.1791c0.0597,-0.1194 0.20895,-0.1791 0.44776,-0.1791v0.53731c0,0.2388 0,0.2985 0,0.1791c0,-0.1194 0.1194,-0.1791 0.35821,-0.1791c0.1194,0.2388 0.1791,0.2985 0.1791,0.1791c0,-0.1194 0.1194,-0.2388 0.35821,-0.35821c0,0.95521 0.1791,1.31342 0.53731,1.07462c0,0.1194 -0.1194,0.2985 -0.35821,0.53731c0.1194,0.2388 0.2388,0.26865 0.35821,0.08955c0.1194,-0.1791 0.1791,-0.20895 0.1791,-0.08955c-0.1194,0.2388 -0.14925,0.38806 -0.08955,0.44776c0.0597,0.0597 0.08955,0.20895 0.08955,0.44776c0.2388,0.2388 0.32835,0.26865 0.26865,0.08955c-0.0597,-0.1791 -0.02985,-0.32835 0.08955,-0.44776zM332.61385,234.16299v-0.35821c0,-0.1194 0.02985,-0.1791 0.08955,-0.1791c0.0597,0 0.08955,-0.0597 0.08955,-0.1791c-0.2388,0.35821 -0.2985,0.59701 -0.1791,0.71641z" data-paper-data="{&quot;glyphName&quot;:&quot;n&quot;,&quot;glyphIndex&quot;:3,&quot;lastGlyphOfWord&quot;:true,&quot;word&quot;:1}" fill="url(&quot;#color-1755442772&quot;)"></path></g></g></g></svg>