<?xml version="1.0" encoding="utf-8"?>
<!-- Generator: Adobe Illustrator 24.2.3, SVG Export Plug-In . SVG Version: 6.00 Build 0)  -->
<svg version="1.1" id="Layer_1" xmlns:mydata="http://www.w3.org/2000/svg"
	 xmlns="http://www.w3.org/2000/svg" xmlns:xlink="http://www.w3.org/1999/xlink" x="0px" y="0px" viewBox="0 0 550 470"
	 style="enable-background:new 0 0 550 470;" xml:space="preserve">
<style type="text/css">
	.st0{fill:#00C166;}
</style>
<g>
	<g>
		<g>
			<path class="st0" d="M64.3,416.1c2,0,3.8,0.2,5.4,0.7c1.6,0.4,2.9,1.1,4,1.9c1.1,0.8,1.9,1.9,2.5,3.1c0.6,1.2,0.9,2.6,0.9,4.1
				c0,2.1-0.5,3.9-1.6,5.4s-2.6,2.6-4.6,3.4l6.6,9.5h-6.6l-5.9-8.4h-0.7h-8.6v8.4h-5.8v-28.1H64.3z M55.7,419.1v13.6h8.6
				c2.1,0,3.7-0.6,4.9-1.7c1.1-1.1,1.7-2.8,1.7-5.2s-0.6-4-1.7-5.2c-1.1-1.1-2.8-1.7-4.9-1.7L55.7,419.1z"/>
			<path class="st0" d="M133.5,444.2h-5.8v-28.1h5.8V444.2z"/>
			<path class="st0" d="M200.5,415.3c2.4,0,4.7,0.4,6.9,1.2c2.2,0.8,4,2,5.5,3.4l-2,2.4c-1.5-1.4-3.1-2.4-4.8-3.1
				c-1.7-0.6-3.4-0.9-5.2-0.9c-1.4,0-2.6,0.2-3.8,0.7c-1.1,0.5-2.1,1.2-3,2.1s-1.5,2.2-2,3.7c-0.5,1.5-0.7,3.3-0.7,5.3
				c0,2.1,0.2,3.9,0.7,5.4c0.5,1.5,1.1,2.8,2,3.7c0.9,1,1.9,1.7,3.1,2.2s2.5,0.7,4,0.7c1.2,0,2.2-0.1,3.1-0.3
				c0.9-0.2,1.6-0.5,2.2-0.8c0.7-0.3,1.3-0.7,1.7-1.1v-7.6h-5.2v-2.6h11v11c-1,0.8-2.1,1.5-3.4,2.1c-1.1,0.5-2.5,1-4.1,1.4
				c-1.6,0.4-3.5,0.6-5.6,0.6c-2.4,0-4.6-0.3-6.5-1c-1.9-0.6-3.6-1.6-4.9-2.8c-1.4-1.3-2.4-2.8-3.1-4.6c-0.7-1.8-1.1-4-1.1-6.4
				s0.4-4.5,1.1-6.4c0.7-1.8,1.7-3.4,3.1-4.6s2.9-2.2,4.8-2.8C196.1,415.7,198.2,415.3,200.5,415.3L200.5,415.3z"/>
			<path class="st0" d="M299.9,441.2v3h-23v-28.1h5.8v25.1H299.9z"/>
			<path class="st0" d="M362.9,419.1v9.2h14.6v3h-14.6v9.8h18.6v3h-24.5v-28.1h24.5v3L362.9,419.1z"/>
			<path class="st0" d="M457.7,435.8v8.4h-5.8v-8.4l-13-19.6h6.4l9.4,14.2h0.2l9.4-14.2h6.4L457.7,435.8z"/>
			<path class="st0" d="M37.9,327.3v-3.9h474.3v3.9H37.9z"/>
		</g>
		<g>
			<path class="st0" d="M107.5,189c-0.2,0.6-0.2,1.3,0.2,1.9c0.3,0.6,0.5,1.5,0.5,2.5c-0.4,0.4-0.5,0.8-0.2,1.1
				c0.3,0.3,0.6,0.7,0.8,1.1v1.9c1,2.3,2.1,4.4,3.1,6.4c1,2,2.1,4,3.1,6.1c0.4,1.7,1.1,3.2,2,4.7c0.9,1.5,1.9,2.9,3,4.4
				c2.1,4.2,4.4,7.8,6.9,10.8c2.5,3,5.6,6.7,9.4,11.1l10.3,9.7c0.2,0.4,0.6,0.7,1.1,0.9c0.5,0.2,1,0.5,1.4,0.9c1.9,1,3.4,2,4.7,3
				c1.3,0.9,2.6,1.8,3.9,2.5c1.4,0.7,2.9,1.4,4.5,2c1.7,0.6,3.8,1.1,6.3,1.6l3.8,0.6c1,0.2,1.1,0.4,0.3,0.5s-0.6,0.2,0.6,0.2
				c2.5-0.2,4.6-0.1,6.4,0.5c1.8,0.5,2.9,1,3.3,1.4c0,0.4,0.2,0.8,0.6,1.3c0.4,0.4,0.4,0.9,0,1.6c0,0,0,0.2,0,0.6
				c-0.2,1-0.8,2-1.7,2.8c-0.9,0.8-1.4,1.5-1.4,1.9l-1.6,1.6c0.2,0.4,0,0.8-0.6,1.3s-1.1,0.9-1.6,1.6c-0.8,0.2-1.6,0.4-2.2,0.5
				s-1.1,0.4-1.6,0.8c-0.4,0-0.7,0.1-0.8,0.2s-0.4,0.1-0.8-0.2c-1,0.4-1.7,0.5-1.9,0.3c-0.2-0.2-0.8-0.3-1.9-0.3
				c-5-0.4-8.7-1-11-1.9c-2.3-0.8-5.3-2.2-9.1-4.1c-1.7-0.6-2.9-1.2-3.8-1.7c-0.8-0.5-2.1-1.3-3.8-2.4c-2.7-1.7-5.5-3.7-8.3-6
				c-2.8-2.3-5.7-4.6-8.6-6.9c-3.6-4-6.9-7.9-10-11.9c-3.1-4-6.2-8.4-9.1-13.2c-0.6-1.9-1.6-3.4-2.8-4.7l-2.2-5.3
				c-1.3-1.7-2.4-3.5-3.4-5.5c-1-2-1.8-4.1-2.2-6.4c0-0.2-0.1-0.3-0.2-0.3c-0.1,0-0.2-0.1-0.2-0.3c-1-2.5-1.9-5.1-2.7-7.7
				c-0.7-2.6-1.3-5.6-1.7-8.9c-0.4,0.2-0.8,0.6-1.1,1.3c-0.3,0.6-0.6,1.1-0.8,1.6c-2.3,5.6-4.3,10.6-6.1,14.7
				c-1.8,4.2-3.4,8.3-5,12.2c-1.6,4-3.1,8.1-4.7,12.5c-1.6,4.4-3.4,9.7-5.5,16c-0.8,3.3-1.7,6.6-2.7,9.9c-0.9,3.2-2.1,6.6-3.6,10.2
				l-3.4,12.2c-0.2,0.2-0.3,0.2-0.3,0s-0.1-0.3-0.3-0.3c0,0.8-0.2,1.3-0.5,1.4c-0.3,0.1-0.5,0.4-0.5,0.8c-0.4,0-0.7,0.2-0.9,0.6
				c-0.2,0.4-0.7,0.7-1.6,0.9c-0.6,0.2-0.9,0.4-0.9,0.6c-0.4-0.2-0.8-0.4-1.1-0.6c-0.3-0.2-0.6-0.3-0.8-0.3
				c-0.2,0.4-0.8,0.5-1.7,0.2c-0.9-0.3-2-0.7-3.1-1.3s-2.1-1.1-3-1.9c-0.8-0.7-1.4-1.3-1.6-1.7c0.2-0.8,0.1-1.5-0.5-2
				c-0.5-0.5-0.8-1.3-0.8-2.4v-1.6c0-1-0.1-1.8-0.3-2.4c-0.2-0.5,0-1.1,0.6-1.7v-1.3c2.1-7.1,4-13.4,5.8-18.8s3.6-10.7,5.3-15.8
				c1.8-5.1,3.7-10.3,5.6-15.5c2-5.2,4.2-11.2,6.7-17.9c1.3-3.6,2.5-6.5,3.8-8.9c1.3-2.4,2.5-5.5,3.8-9.2c0.2-0.8,0.5-1.5,0.8-2
				c0.3-0.5,0.4-1.1,0.2-1.7c0-0.4,0.2-0.6,0.5-0.6c0.3,0,0.7-0.1,1.1-0.3c3.8-9,7.7-17.7,11.9-26c4.2-8.4,8.7-16.7,13.5-25.1
				c0.4-1.7,1-3.1,1.9-4.2c0.8-1.1,1.4-2.6,1.6-4.2c1-1,1.8-2.2,2.4-3.4c0.5-1.3,1.1-2.4,1.7-3.4c0.8-0.8,1.4-1.8,1.6-2.8
				c0.2-1,0.8-2,1.9-2.8c0-1,0.3-1.8,0.8-2.2c0.5-0.4,0.8-0.9,0.8-1.6c1-1.5,2-3,2.8-4.7c0.8-1.7,1.8-3.3,2.8-5
				c0.6-1.3,1.4-2.4,2.2-3.4c0.8-1,1.6-2.3,2.2-3.8c0.8-1,1.6-2.4,2.4-3.9c0.7-1.6,1.6-2.9,2.7-3.9l0.6-1.3c0.4-0.4,0.8-0.7,1.1-0.9
				c0.3-0.2,0.5-0.5,0.5-0.9l2.5-4.1l5-7.2c0.8-0.4,1.5-1.1,1.9-2c0.4-0.9,0.8-1.6,1.3-2c0.8-0.6,1.9-0.8,3.3-0.6
				c1.4,0.2,2.7,0.6,3.9,1.3c1.3,0.6,2.4,1.5,3.3,2.5c0.9,1,1.5,2,1.7,2.8c0,0.2,0.1,0.4,0.2,0.6c0.1,0.2,0.2,0.5,0.2,0.9
				c0.2,0.4,0.3,0.8,0.3,1.3c0.2,0.8,0.2,1.7,0,2.7c-0.2,0.9-0.2,1.9,0,3c-1,2.9-2.4,5.5-4.1,7.7c-1.7,2.2-3.2,4.8-4.7,7.7
				c-1.7,2.9-3.4,5.6-5.2,8.1c-1.8,2.5-3.6,5.6-5.5,9.4c-0.4,1-0.8,1.9-1.1,2.7c-0.3,0.7-1,1.6-2,2.7c-1,2.7-2.4,5.3-4.1,7.8
				c-1.7,2.5-3.2,5.1-4.7,7.8c-0.8,2.3-1.8,4.3-2.8,6l-4.7,8.5l-1.3,4.1c-0.2,0.4-0.4,0.6-0.5,0.6s-0.3,0.1-0.5,0.3
				c-0.8,1.3-1.5,2.5-2,3.6c-0.5,1.1-1,2.5-1.4,3.9c-2.3,3.6-4.2,6.8-5.8,9.9c-1.6,3-3.2,6.5-4.9,10.5c6.1-1.9,12.1-3.8,18-5.6
				c6-1.9,11.8-3.8,17.4-5.6c1.9-1,3.8-1.9,5.6-2.7c1.9-0.7,3.9-1.6,6-2.7c1.3-0.4,1.8-0.6,1.6-0.6c0.8-0.4,1.9-0.8,3.1-1.3
				c1.3-0.4,2.4-0.8,3.4-1.3c3.6-1.7,6.7-3.3,9.6-5c2.8-1.7,5.9-3.2,9.2-4.7v-0.3c5.4-2.9,11.5-6.1,18.2-9.4c6.7-3.3,12.7-7,18.2-11
				c2.3-1.9,4.7-3.7,7.2-5.5c2.5-1.8,4.8-3.7,6.9-5.8c2.1-2.3,4.2-4.9,6.3-7.7c2.1-2.8,4.2-5.7,6.3-8.6c1.5-3.1,2.7-6.6,3.8-10.3
				c1-3.8,1.6-7.7,1.6-11.9c-0.4-4-1.2-7.1-2.4-9.4c-1.1-2.3-2.8-4.6-4.9-6.9c-2.3-2.5-4.6-4.5-7.1-6.1s-5.4-3.1-8.9-4.5
				c-2.9-1-6.7-2.1-11.3-3.1c-4.6-1-8.9-1.7-12.9-1.9c-15.5-1.7-29.9-0.6-43.3,3.1c-9.8,2.9-18.6,6-26.5,9.2
				c-7.8,3.2-15.7,7.6-23.7,13c-1.9,0.8-3.8,2-5.6,3.4c-1.9,1.5-3.8,2.7-5.6,3.8c-1.9,1.3-3,2.1-3.4,2.7s-1.6,1.3-3.4,2.4
				c-1.3,1-2.1,1.8-2.7,2.2s-1,0.8-1.4,1.1c-0.4,0.3-0.8,0.7-1.3,1.3c-0.4,0.5-1.1,1.2-2.2,2c-2.9,1.9-5.2,3.8-6.9,5.6
				c-1.7,1.9-3.7,4-6,6.3c0,0.4-0.3,0.8-0.9,1.1c-0.6,0.3-1.3,0.8-1.9,1.4c-0.4,0.4-0.7,0.8-0.9,1.1c-0.2,0.3-0.5,0.6-0.9,0.8
				c-0.6,0.8-1.3,1.5-2,1.9s-1.5,0.9-2.4,1.6c-0.4-0.4-0.8-0.5-1.1-0.2c-0.3,0.3-0.8,0.5-1.4,0.5c-0.4-0.4-0.7-0.7-0.8-0.8
				c-0.1-0.1-0.3-0.5-0.5-1.1c-0.2-0.4-0.4-0.5-0.5-0.3c-0.1,0.2-0.3,0.3-0.5,0.3c-0.2-0.6-0.4-1.1-0.5-1.4
				c-0.1-0.3-0.4-0.7-0.8-1.1c-1.9-4.4-2.4-7.8-1.4-10.2c0.9-2.4,2.9-5.1,5.8-8l5-5.6l2.2-2.5c0.4-0.4,1-0.8,1.7-1.1
				c0.7-0.3,1.4-0.8,2-1.4c1-1.7,2.5-3.1,4.4-4.2c1.9-1.1,3.7-2.5,5.3-3.9c2.5-2.1,4.4-3.7,5.8-4.7c1.4-1,2.6-2,3.8-2.8
				c1.1-0.8,2.4-1.6,3.6-2.4c1.3-0.7,3-1.8,5.3-3.3c5.4-3.1,10.9-6,16.5-8.6c5.5-2.6,11.3-5.1,17.4-7.4c7.1-3.1,14.5-5.6,22.3-7.5
				c7.7-1.9,16-3,24.8-3.4c0.8-0.2,1.6-0.3,2.4-0.2c0.7,0.1,1.5,0.2,2.4,0.2c1-0.2,2.2-0.4,3.4-0.6c1.3-0.2,2.3-0.1,3.1,0.3
				c0.4-0.2,0.6-0.2,0.6,0s0.2,0.2,0.6,0c1.5,0.2,2.9,0.2,4.2-0.2c1.4-0.3,2.6-0.3,3.6,0.2c3.8,0.2,7.9,0.6,12.5,1.1
				c4.6,0.5,8.7,1.3,12.2,2.4c2.7,0.8,5.5,1.9,8.5,3.1c2.9,1.3,5.2,2.4,6.9,3.4l2.8,1.3l2.2,0.9l1.6,1.6c2.9,1.9,5.5,4,7.8,6.3
				c2.3,2.3,4.3,5.2,6,8.8c1,2.3,2.1,4.6,3.3,7.1c1.1,2.4,1.8,5.1,2,8c0.4,1.3,0.7,2.8,0.8,4.7s0.1,3.6-0.2,5
				c-0.2,3.6-0.7,7.1-1.6,10.7s-1.8,6.8-2.8,9.7c-1,2.7-2.1,5.2-3.3,7.4c-1.1,2.2-2.7,4.4-4.5,6.7c-2.3,3.3-5,6.4-8.1,9.1
				c-2.3,2.9-5.2,5.6-8.6,8.1c-3.4,2.5-6.6,5.1-9.6,7.8c-1.7,1.3-3.4,2.4-5.3,3.4c-1.9,1-3.4,2.2-4.7,3.4c-3.8,2.5-8,5-12.9,7.4
				c-4.8,2.4-9.5,4.8-14.1,7.1c-0.4,0.4-0.8,0.7-1.3,0.8c-0.4,0.1-0.8,0.4-1.3,0.8c-1,0.2-1.7,0.4-2,0.6c-0.3,0.2-0.8,0.4-1.4,0.6
				c-2.1,1.7-4.1,2.8-6,3.4c-0.4,0.4-1,0.6-1.9,0.6c-0.8,0.4-1.1,0.6-0.9,0.6c0,0.2-0.1,0.3-0.2,0.2c-0.1-0.1-0.2-0.1-0.2,0.2h-0.6
				l-4.4,1.9c-0.2,0-0.3,0.1-0.3,0.2c0,0.1-0.1,0.2-0.3,0.2h-0.3c-0.4,0.2-0.6,0.4-0.6,0.5s-0.2,0.2-0.6,0.2l-1.6,0.6
				c0.2,0-0.1,0.2-0.9,0.6c-1,0.8-2.2,1.3-3.4,1.3c-1.3,0-2.2,0.4-2.8,1.3c-1.9,0.4-3.4,0.9-4.7,1.4c-1.3,0.5-2.7,1-4.4,1.4
				c-1.7,1-3.4,1.8-5.2,2.2c-1.8,0.4-3.5,0.9-5.2,1.6c-1.9,0.6-3.7,1.3-5.5,1.9c-1.8,0.6-3.5,1.1-5.2,1.6L107.5,189z"/>
			<path class="st0" d="M290.3,281.8c-0.4-0.2-0.6,0.2-0.6,1.3l0.3-0.3c0,0,0.1-0.1,0.3-0.3c0.2,0,0.3-0.1,0.3-0.3l1.3,0.9h-0.6
				c-0.6,0.4-0.9,0.7-0.9,0.9c0,0.4-0.1,0.5-0.2,0.3s-0.2-0.4-0.2-0.6h-0.3v-0.3c0.2,0,0.3-0.1,0.3-0.3c0,0-0.1,0.1-0.3,0.3v-0.3
				L289,284c-0.2,0-0.4-0.1-0.5-0.3c-0.1-0.2-0.4-0.4-0.8-0.6c-0.4,0-0.6,0.1-0.5,0.3c0.1,0.2,0.1,0.3-0.2,0.3
				c-1-0.2-1.9-0.3-2.7-0.3c-0.7,0-1.6,0-2.7,0c0,0.2-0.5,0.2-1.6-0.2c-1-0.3-1.7-0.3-1.9,0.2c0-0.4-1.9-0.6-5.8-0.6
				c-3.9,0-8.2,0.3-13,0.9c-4.8,0.6-9.4,1.5-13.6,2.7c-4.3,1.1-6.7,2.5-7.4,3.9c0,0.4-0.3,1-0.9,1.9c-0.6,0.8-1,1.3-1.3,1.3
				c-0.2,0.2-0.2,0.4,0.2,0.5c0.3,0.1,0.3,0.4-0.2,0.8c-1.9,4-3.4,7.2-4.5,9.6c-1.1,2.4-2.2,4.6-3.3,6.7c-1,2.1-2.2,4.3-3.4,6.7
				c-1.3,2.4-2.9,5.6-5,9.6c-4.2,8.1-7.7,15.2-10.7,21.2c-2.9,6-4.8,9.4-5.6,10.2c-0.8,1.7-1.8,3.1-2.8,4.2c-1,1.1-2,2.6-2.8,4.2
				c-1,1.9-2.4,3.9-3.9,6.1c-1.6,2.2-3.2,4.3-4.9,6.4c-1.7,2.1-3.3,4.1-5,6c-1.7,1.9-3,3.2-4.1,4.1c0,0.4-0.1,0.7-0.3,0.8
				s-0.3,0.3-0.3,0.5c-0.2,0.6-0.7,1.2-1.6,1.7c-0.8,0.5-1.8,1-2.8,1.4c-3.3,3.8-7.9,6.9-13.8,9.4c-1.7,1-3.6,1.7-5.6,1.9
				c-2.1,0.2-4.1,0.2-6,0c-1.9-0.2-3.4-0.7-4.7-1.6c-1.3-0.8-2.7-1.7-4.4-2.5c-1-1.5-2.1-2.6-3.1-3.3c-1-0.7-1.9-1.6-2.5-2.7
				c-0.6-1.3-0.7-2.2-0.3-2.8c-0.8-1.7-1.5-3.2-1.9-4.7c-0.4-1.5-0.7-3.2-0.9-5.3c-0.2-0.8-0.3-1.7-0.3-2.5c0-0.8,0-1.5,0-1.9
				c0.2-4,0.6-7.8,1.1-11.6c0.5-3.8,1.2-7.4,2-11c1.5-5.6,3-9.9,4.5-12.7c1.6-2.8,3.5-6.3,5.8-10.5c0.6-1,1.3-2,1.9-2.8
				c0.6-0.8,1.1-1.5,1.6-1.9c0-0.2,0.1-0.3,0.2-0.3c0.1,0,0.2-0.1,0.2-0.3l0.3-0.3c0.2,0,0.3-0.1,0.3-0.3c0,0,0.1-0.2,0.3-0.6
				c3.3-4,6.3-7.1,8.9-9.2c2.6-2.2,6-5.1,10.2-8.6c4.2-3.1,8.2-6,12.1-8.5c3.9-2.5,8.2-5,13-7.5c0.2,0,0.3-0.1,0.3-0.3
				c0.2,0,0.4-0.1,0.6-0.3c0.6-0.8,1.4-1.3,2.4-1.4c0.9-0.1,2.1-0.7,3.6-1.7c4.6-1.5,8.4-2.9,11.3-4.2c2.9-1.4,6.9-2.9,11.9-4.5
				c1-1,1.7-1.9,1.9-2.7c0.2-0.7,0.5-1.6,0.9-2.7c0.2-0.4,0.3-0.8,0.3-1.3c0.2-0.2,0.9-1.6,2-4.2c1.1-2.6,2.4-5.4,3.6-8.5
				c1.3-3,2.5-6,3.6-8.8c1.1-2.8,1.8-4.5,2-5.2l11.6-28.2l0.9-2.5l0.9-1.6l2.2-5.3c-1.3,1-2.5,2.1-3.6,3.3c-1.1,1.1-2.2,2.1-3.3,3
				l-1.9,2.2l-6.3,5.6c-1,1-2.2,2.1-3.4,3.3c-1.3,1.1-2.5,2-3.8,2.7l0.3-0.3H232c-0.2,0-0.3,0.1-0.3,0.3l-2.8,2.5
				c-0.6,0-0.9,0.2-0.9,0.6c0.2-0.2,0.5-0.3,0.9-0.3l-7.2,5.3c-1,0.8-2.2,1.5-3.6,1.9c-1.4,0.4-2.6,1.1-3.6,2.2
				c-0.4-0.4-0.8-0.5-1.3-0.3c-0.4,0.2-0.9,0.4-1.6,0.6c-0.2,0.2-0.5,0.3-0.9,0.3h-0.3c-1.5,0.4-3,0.6-4.5,0.6s-2.8-0.2-3.6-0.6
				c-0.4-0.2-0.8-0.2-1.1,0c-0.3,0.2-0.5,0.2-0.5,0c-0.2-0.4-0.3-0.6-0.3-0.6c-0.4,0-1-0.3-1.7-0.8c-0.7-0.5-1.3-0.9-1.7-1.1
				c0,0.4,0,0.6,0,0.6c-0.2-0.2-0.3-0.5-0.3-0.9c-0.2,0-0.5-0.2-0.9-0.6c-1-0.4-1.7-1-1.9-1.7s-0.4-1.8-0.6-3.3
				c0-0.8-0.2-1.5-0.6-1.9c-0.2,0-0.3-0.3-0.3-0.9c-0.4-0.4-0.4-1.3,0-2.5c0-0.4,0.1-0.8,0.2-1.3c0.1-0.4,0.2-0.9,0.2-1.6
				c0.6-3.6,1.1-6.5,1.4-8.8s1-4.6,2-6.9c0.2-1.9,0.6-3.6,1.3-5c0.6-1.5,1.4-3,2.2-4.7c0.4-1.7,1-3.2,1.7-4.5
				c0.7-1.4,1.3-2.9,1.7-4.5c0.4-0.6,0.9-1.3,1.4-1.9c0.5-0.6,0.8-1.4,0.8-2.2c0.4-1.5,1.4-2.9,2.8-4.4l13.5-22.6
				c0.4-0.2,0.7-0.6,0.8-1.1c0.1-0.5,0.4-1,0.8-1.4l4.7-6.6l3.8-5c2.3-1.7,4.6-1.7,7.1,0s3.8,3.4,4.2,5.3c0,0.6,0.2,1,0.6,1.3
				c0,0,0.2,0.2,0.6,0.6c0.2,0.4,0.3,0.9,0.2,1.4c-0.1,0.5-0.1,1,0.2,1.4c-0.2,0.4-0.3,1.1-0.3,2.2c-0.4,1-0.9,2-1.6,3
				c-0.6,0.9-1.1,1.7-1.6,2.4c-3.1,3.8-6.1,8-8.8,12.7c-2.7,4.7-5.5,9.5-8.5,14.3c-1.5,2.5-2.8,5.1-4.1,7.7
				c-1.3,2.6-2.6,5.4-4.1,8.3c-0.8,1.5-1.5,2.9-2,4.4c-0.5,1.5-1.1,3-1.7,4.7c-0.4,1.5-0.7,3.1-0.9,4.9c-0.2,1.8,0.1,3.5,0.9,5.2
				c1,0.2,2.2,0,3.4-0.6c1.3-0.6,2.1-1.1,2.5-1.6c2.3-1.7,4.6-3.5,7.1-5.5c2.4-2,4.6-4,6.7-6.1c1.9-1,3.3-2.3,4.4-3.8
				c8.1-7.3,15.3-14.8,21.3-22.6c2.9-2.9,5.6-6,8-9.2c2.4-3.2,4.5-6.3,6.4-9.2c1-1.9,2.1-3.8,3.1-5.8c1-2,2.3-3.5,3.8-4.5
				c0.2-1,0.5-1.8,0.9-2.4c0.4-0.5,0.8-1.2,1.3-2c0.6,0,0.9-0.2,0.9-0.6l0.3-0.3l1.3-1.9c0.6-1.3,1.9-2.5,3.8-3.8c1.5-1,3.2-1,5.3,0
				c0.8,0.6,1.7,1.8,2.5,3.4c1,1,1.7,2.2,2,3.4c0.3,1.3,0.2,2.7-0.5,4.4c-0.4,0.4-0.7,0.9-0.9,1.6c-0.2,0.6-0.5,1.4-0.9,2.2
				c-0.2,0.8-0.7,1.9-1.6,3.1c0,1-0.2,1.8-0.5,2.2c-0.3,0.4-0.7,0.8-1.1,1.3c-1,1.5-1.9,2.7-2.5,3.8c-0.6,1-1.3,2.2-1.9,3.4
				c-1.3,1.7-2.2,3.5-3,5.5c-0.7,2-1.7,3.8-3,5.5l-9.7,22.3l-4.1,10.7v0.6c-1,2.1-1.9,3.8-2.5,5.2c-0.6,1.4-0.8,1.8-0.6,1.4
				l-9.7,23.5c-2.3,4.8-4.1,9-5.3,12.5c-1.3,3.6-2.7,7.7-4.4,12.5c1,0,2.2-0.2,3.4-0.5c1.3-0.3,2.4-0.7,3.4-1.1
				c4.2-1.3,7.7-2,10.7-2.2c2.9-0.2,5.1-0.3,6.6-0.3c-0.2-0.2,0.6-0.3,2.5-0.3s3.3,0.1,4.4,0.3c3.1,0,5.4,0.4,6.9,1.3
				c0.2,0.2,0.4,0.2,0.5-0.2s0.3-0.2,0.5,0.5c-0.2,0.4,0.6,0.6,2.5,0.6c1.9,0,2.8,0.2,2.8,0.6c0.8,0.2,1.1,0.6,0.9,1.3
				c-0.2,0.6,0.1,1,0.9,1.3v-1.9c0.4,0.2,0.5,0.9,0.3,2.2s0.1,1.9,0.9,1.9c0.2,0.2,0.3,0.9,0.3,2.2c0,1.3-0.2,2.1-0.6,2.5v0.3
				c0,0-0.1,0-0.3,0l-0.6-0.3L290.3,281.8z M218.2,296.2c-4.4,1-8.8,2.9-13.3,5.6c-4.5,2.7-9,5.5-13.6,8.5c-4,2.5-7.3,4.8-10,6.9
				c-2.7,2.1-5.2,4.2-7.5,6.3c-2.3,2.1-4.4,4.3-6.4,6.7c-2,2.4-4.2,5.3-6.7,8.6c-0.6,1.5-1.1,2.5-1.6,3.1c-0.4,0.6-0.8,1.1-1.1,1.6
				c-0.3,0.4-0.7,1-1.1,1.7c-0.4,0.7-1,1.8-1.9,3.3l-2.2,6.6c-0.8,1.3-1.7,3.3-2.5,6.1c-0.8,2.8-1.4,5.8-1.7,8.9
				c-0.3,3.1-0.4,6.3-0.2,9.4c0.2,3.1,0.9,5.7,2.2,7.8c0.6,1.3,2,1.7,4.1,1.3c4.2-0.6,7.4-2.1,9.7-4.4c2.3-2.3,5.2-5.1,8.8-8.5
				c0-0.6,0.2-1,0.6-1.3c0.4-0.2,0.7-0.5,0.9-0.9c0.6,0,0.9-0.3,0.9-0.8s0.3-0.9,0.9-1.1c1.3-2.1,2.6-3.9,3.9-5.3
				c1.4-1.5,2.5-3,3.3-4.7c2.5-3.1,4.1-5.4,4.7-6.7c0.6-1.4,1.7-3.5,3.1-6.4c0.4-0.4,0.6-0.7,0.6-0.9c0-0.2,0.2-0.5,0.6-0.9
				c2.5-5,4.7-9.1,6.6-12.2c1.9-3.1,3.6-6.2,5.2-9.1s3.2-6.1,5-9.6c1.8-3.4,3.9-7.9,6.4-13.3c0-0.2,0.2-0.6,0.5-1.1
				c0.3-0.5,0.4-0.8,0.2-0.8L218.2,296.2z M254.8,207.5c-0.2,0-0.3,0.1-0.3,0.3C254.5,207.8,254.6,207.7,254.8,207.5z"/>
			<path class="st0" d="M410.9,172.4l0.3,0.6v0.6c0.4-0.2,0.8-0.4,1.1-0.6c0.3-0.2,0.7-0.4,1.1-0.6c0.2-0.2,0.3-0.1,0.2,0.5
				c-0.1,0.5-0.1,0.8,0.2,0.8s0.4-0.2,0.6-0.5c0.2-0.3,0.3-0.4,0.3-0.2c0,0.2,0.1,0.4,0.3,0.6h0.6c0.6,0,0.9,0,0.9,0
				c0.2,0.2,0.3,0.6,0.3,1.3v1.3c0,0.6-0.1,1.3-0.3,1.9c-0.2,0.6-0.4,1.3-0.6,1.9c-0.4,1-0.9,2-1.4,3c-0.5,0.9-0.9,1.9-1.1,3
				c-1,2.9-2.5,5.7-4.4,8.5l-3.8,5.6c-1.5,1.7-2.4,3-2.8,4.1c-3.6,5.9-7.6,11-12.1,15.4c-4.5,4.4-9.5,9-14.9,13.8
				c-0.4,0.2-1.3,0.8-2.5,1.7c-1.3,0.9-2.1,1.4-2.5,1.4c-0.4,0.4-1.1,0.8-2.2,1.3c-1,0.4-2.1,0.8-3.1,1.3c-0.8,0.8-1.3,1.1-1.3,0.8
				c0-0.3-1-0.3-3.1,0.2c-1.3,0.4-2.8,0.5-4.5,0.3c-1.8-0.2-3.2-0.3-4.2-0.3c-0.2-0.4-0.8-0.6-1.9-0.6s-1.7-0.1-1.9-0.3
				c-0.4-0.2-0.8-0.5-1.3-0.8c-0.4-0.3-0.8-0.6-1.3-0.8c-1-0.8-1.9-2.5-2.7-4.9c-0.7-2.4-1.3-4.4-1.7-6.1c-0.2-1.3-0.3-2.6-0.2-3.9
				c0.1-1.4,0.1-2.5-0.2-3.3c-1,0.6-1.9,1.4-2.7,2.2c-0.7,0.8-1.5,1.8-2.4,2.8l-5,4.4l-9.4,7.5c-2.3,1.7-4.5,3.3-6.7,4.9
				c-2.2,1.6-4.8,3-7.7,4.2c-1.7,0.2-3.6,0.6-5.8,1.1c-2.2,0.5-3.8,0.4-4.9-0.5c-0.4,0-0.9-0.1-1.6-0.2c-0.6-0.1-1.1-0.2-1.6-0.2
				l-7.5-3.4c-0.6-0.6-1.1-1.4-1.6-2.4c-0.4-0.9-0.8-2.1-1.3-3.6c-0.6-1-1.3-2.2-1.9-3.4c-0.6-1.3-0.7-2.9-0.3-5
				c0.2-1.9,0.4-3.7,0.6-5.3c0.2-1.7,0.5-3,0.9-4.1c0.2-0.6,0.3-1.3,0.3-2s0.2-1.3,0.6-1.7c0.8-2.7,1.7-5,2.5-6.9
				c0.8-1.9,2-4.3,3.4-7.2l3.1-6.6c0.4-2.1,1.3-3.4,2.5-4.1c1-2.3,2.2-4.3,3.6-6s2.7-3.6,3.9-5.6c0.2,0,0.4-0.1,0.5-0.3
				c0.1-0.2,0.3-0.3,0.5-0.3c0.4-1.7,1.3-3,2.5-4.1c1.3-1,2.3-2.2,3.1-3.4c0.2-0.2,0.5-0.3,0.9-0.3c1.5-2.5,3.1-4.5,5-6
				c1.9-1.5,3.8-2.9,5.6-4.4c3.6-3.3,7.6-6,12.2-7.8c0.4-0.8,1.1-1.4,2.2-1.6c1-0.2,2.2-0.7,3.4-1.6c1.7-0.6,3.2-0.9,4.5-0.9
				c1.4,0,2.7,0,3.9,0c0.6,0,1.4,0,2.2,0c0.8,0,1.7,0.2,2.5,0.6c-0.2-0.2,0-0.2,0.6,0c0.6,0.2,1.4,0.5,2.2,0.8
				c0.8,0.3,1.7,0.6,2.5,0.9c0.8,0.3,1.5,0.5,1.9,0.5l1.9,2.2c1,1,1.9,1.9,2.5,2.7c0.6,0.7,1.4,2.5,2.2,5.2c1.7-2.3,2.9-4,3.8-5
				c0.8-1,2.2-2.7,4.1-5c1-1.5,1.9-2.2,2.5-2.4c0.6-0.1,1.9-0.2,3.8-0.2c0.6,0,1.3,0.4,1.9,1.3c0.6,0.8,1.4,1.5,2.2,1.9
				c1.7,0.8,2.6,2.5,2.7,4.9s-0.3,4.4-1.1,6.1c-0.2,0.4-0.5,0.8-0.9,1.3c-0.4,0.4-0.6,0.8-0.6,1.3c-0.2,0.6-0.7,1.4-1.6,2.2
				l-0.3,0.3v0.3c0,0.2-0.1,0.4-0.3,0.6c-0.6,0.8-0.9,1.4-0.8,1.7c0.1,0.3-0.1,0.7-0.5,1.1s-0.7,0.8-0.9,1.3
				c-0.2,0.4-0.4,0.9-0.6,1.6l-2.2,2.5c-0.4,0.8-0.8,1.7-1.3,2.7c-0.4,0.9-0.8,1.6-1.3,2c-0.4,1.3-0.9,2.1-1.4,2.7
				c-0.5,0.5-1,1-1.4,1.4c-0.4,0.4-0.8,1.5-1.3,3.1c-0.6,0.4-1,1.1-1.3,2s-0.8,1.8-1.9,2.7c-1.7,4.2-3.2,8.5-4.7,13
				s-2.1,9.8-1.9,15.8c0.4,1,1.1,1.5,2,1.4c0.9-0.1,1.2-0.1,0.8,0.2c2.1-1.5,3.6-2.5,4.5-3c0.9-0.5,1.8-0.9,2.5-1.3
				c0.7-0.3,1.6-0.9,2.5-1.7c0.9-0.8,2.4-2.4,4.2-4.7l4.1-3.8c4.4-4.4,8.3-8.9,11.8-13.6c3.4-4.7,6.9-9.7,10.5-14.9
				c0.4-0.8,1.1-1.8,2.2-2.8l0.9-1.3l1.9-2.2c0.4-0.4,0.7-0.6,0.9-0.6L410.9,172.4z M302.2,231c5.4-2.9,10.5-6.4,15.2-10.5
				c4.7-4.1,9.1-8.4,13.2-13c4.1-4.6,7.9-9.3,11.4-14.1c3.6-4.8,7-9.4,10.3-13.8c1.9-5.4,3-9.2,3.3-11.4s-0.4-4.2-2-6.1
				c-0.8-0.8-1.8-1.3-2.8-1.3c-1,0-2,0.1-2.8,0.3l-5.6,3.1c-4.4,3.1-8.1,6.5-11.3,10c-3.6,3.3-6.2,6.3-8,8.9c-1.8,2.6-3,4.2-3.6,4.9
				c-1.3,1.7-2.6,3.4-3.9,5.3c-1.4,1.9-2.6,3.7-3.6,5.3c-1.5,2.1-2.8,4.2-3.9,6.3c-1.1,2.1-2.2,4.3-3.3,6.6l-3.1,6.6
				c-1,2.1-1.6,4-1.6,5.6v5.3c1.7,0.4,2.1,0.8,1.4,1.1C300.7,230.6,300.9,230.8,302.2,231L302.2,231z"/>
			<path class="st0" d="M511.9,175.6c0.4,0.6,0.4,1.3-0.2,2c-0.5,0.7-0.9,1.4-1.1,2c0.4,0.2,0.6,0.1,0.6-0.3c0-0.4,0.2-0.5,0.6-0.3
				c0,1-0.4,2.4-1.3,4.1c-0.8,1.7-1.7,3.4-2.7,5.2c-0.9,1.8-1.9,3.4-2.8,4.9c-0.9,1.5-1.7,2.4-2.4,2.8c-1,2.3-2.5,4.6-4.4,7.1
				c-1.9,2.4-3.7,4.8-5.3,7.1c-1.9,2.9-4.2,6-6.9,9.2s-5.2,6-7.5,8.3c-2.3,1.9-4.2,3.4-5.6,4.7s-2.9,2.4-4.2,3.4
				c-1.4,1-2.8,2-4.4,2.8c-1.6,0.8-3.5,1.7-5.8,2.5c-1.3,0.4-1.9,0.6-2,0.6c-0.1,0-0.7,0.1-1.7,0.3c-1.5,0-2.6-0.1-3.4-0.3
				c-0.6,0.2-1.3,0.2-1.9-0.2c-0.6-0.3-1.1-0.5-1.6-0.5c-0.4-0.4-0.9-0.8-1.6-1.1c-0.6-0.3-1.1-0.4-1.6-0.2c-1.3-1-2.4-2.1-3.4-3.3
				c-1-1.1-1.8-2.7-2.2-4.5c0-0.2-0.1-0.3-0.3-0.3c-0.2,0-0.1-0.2,0.3-0.6c-1.7-3.1-2.1-7.1-1.3-11.8c0.8-4.7,2.2-9.2,4.1-13.6
				c1-2.5,2-5.2,2.8-8c0.8-2.8,2.3-5.6,4.4-8.3c0.4-1.3,0.9-2.4,1.6-3.4c0.6-1,1-2.1,1.3-3.1c1.3-2.9,2.5-5.5,3.8-7.8
				c1.3-2.3,1.9-4,1.9-5.2c0-1.1-0.8-1.6-2.5-1.4c-1.7,0.2-4.7,1.5-9.1,3.8c-4,1.9-8.3,4.7-13,8.5c-4.7,3.8-9.5,8.3-14.3,13.5
				s-9.6,11.1-14.3,17.7c-4.7,6.6-9,13.6-13,21.2v0.9c-0.4,0.4-0.6,0.7-0.6,0.9c-0.8,0.6-1.4,1.3-1.6,2s-0.4,1.4-0.6,2
				c-0.6,0-0.9,0.3-0.9,0.9c-1,1-2.1,1.6-3.3,1.7c-1.1,0.1-2.2-0.1-3.3-0.5c-1-0.4-2-1-2.8-1.7c-0.8-0.7-1.4-1.4-1.6-2
				c0.4-0.6,0.5-1,0.2-1.1c-0.3-0.1-0.7-0.6-1.1-1.4c0-0.4,0.1-0.8,0.3-1.1c0.2-0.3,0.3-0.8,0.3-1.4h-0.3c0.4-0.8,0.4-1.4,0-1.6
				c0.4-0.8,0.6-1.6,0.6-2.2c2.7-7.5,5.7-14.5,9.1-20.8c3.3-6.4,6.7-12.7,10-19l17.9-31.7c1.7-1.7,3.2-3.5,4.7-5.5
				c1.5-2,2.9-4,4.4-6.1c0,0,0.2-0.3,0.6-0.9c0.4,0.2,0.8,0.1,1.1-0.5c0.3-0.5,0.7-0.9,1.1-1.1c0.4,0.2,0.7,0.2,0.9,0
				c0.2-0.2,0.4-0.1,0.6,0.3c0.2,0,0.3-0.1,0.3-0.3c0.8,0.6,1.5,0.9,1.9,0.9l4.7,1.6c0.4,1.5,0.8,2.2,1.3,2.2
				c0.8,1.9,1.4,3.7,1.6,5.3c0.2,1.7-0.3,3.2-1.6,4.7l-4.7,8.5c0,0,0,0.2,0,0.6l1.9-1.3c2.9-2.7,6.2-5.1,9.9-7.1
				c3.7-2,7.4-3.9,11.1-5.8l1.3-0.6c1.7-0.6,4.1-1.1,7.2-1.4s5.5-0.3,7.2,0.2c0.6,0.2,1.4,0.5,2.2,0.8c0.8,0.3,1.4,0.7,1.6,1.1
				c0.4,0.2,1,0.5,1.9,0.8c0.8,0.3,1.5,0.8,1.9,1.4c0.2,0.6,0.5,1.2,0.8,1.7c0.3,0.5,0.5,1.3,0.5,2.4v0.6c0.6,1.7,0.8,3.5,0.5,5.5
				c-0.3,2-0.9,3.9-1.7,5.8c-0.8,1.9-1.8,3.7-2.8,5.3c-1,1.7-1.9,3.1-2.5,4.4c-2.5,5.6-5.3,11.5-8.5,17.7
				c-3.1,6.2-5.5,12.6-7.2,19.3c-0.2,0.8-0.4,1.9-0.6,3.3c-0.2,1.4-0.3,2.4-0.3,3c0,0.4,0.2,0.6,0.5,0.5c0.3-0.1,0.5,0.1,0.5,0.5
				c1.7,0.8,3,0.9,3.9,0.2c0.9-0.7,1.9-1.5,3-2.4c0.2,0,0.6-0.3,1.3-0.8c0.6-0.5,1.3-1.1,1.9-1.7c0.6-0.6,1.2-1.2,1.7-1.7
				c0.5-0.5,0.7-0.9,0.5-1.1c0.2,0.2,0.4,0.2,0.5,0s0.3-0.3,0.5-0.3l4.1-4.1c1.7-1.3,2.7-2,3-2.4c0.3-0.3,0.5-0.5,0.5-0.5
				s0.1-0.2,0.3-0.5c0.2-0.3,0.9-1.1,2.2-2.4c0.6-0.6,0.8-0.9,0.6-0.8c-0.2,0.1,0.1-0.2,0.9-0.8c0.6-1,1.1-1.8,1.4-2.2
				c0.3-0.4,1.7-2.1,4.2-5c1-1.7,2.5-3.9,4.2-6.7c1.8-2.8,3.4-5.1,4.9-6.7c0.2-0.2,0.7-0.9,1.4-2c0.7-1.1,1.6-2.4,2.5-3.8
				c0.9-1.4,1.8-2.6,2.7-3.6c0.8-1,1.6-1.7,2.2-1.9c0.4,0,0.8-0.4,1.3-1.3c0.4-0.8,0.8-1.4,1.3-1.6c0,0.2,0.2,0.5,0.6,0.9
				c0.2,0,0.4-0.1,0.5-0.3c0.1-0.2,0.4-0.3,0.8-0.3v0.9c0,0.4,0,0.5,0,0.3s0.2-0.3,0.6-0.3c0.2,0.4,0.3,0.5,0.3,0.3s0.2-0.4,0.6-0.6
				c0,1.7,0.3,2.3,0.9,1.9c0,0.2-0.2,0.5-0.6,0.9c0.2,0.4,0.4,0.5,0.6,0.2c0.2-0.3,0.3-0.4,0.3-0.2c-0.2,0.4-0.3,0.7-0.2,0.8
				c0.1,0.1,0.2,0.4,0.2,0.8c0.4,0.4,0.6,0.5,0.5,0.2S511.6,175.8,511.9,175.6L511.9,175.6z M375.8,233.5v-0.6
				c0-0.2,0.1-0.3,0.2-0.3s0.2-0.1,0.2-0.3C375.7,232.9,375.6,233.3,375.8,233.5L375.8,233.5z"/>
		</g>
	</g>
</g>
</svg>
