<?xml version="1.0" encoding="utf-8"?>
<!-- Generator: Adobe Illustrator 24.2.3, SVG Export Plug-In . SVG Version: 6.00 Build 0)  -->
<svg version="1.0" xmlns="http://www.w3.org/2000/svg" xmlns:xlink="http://www.w3.org/1999/xlink" x="0px" y="0px"
	 viewBox="0 0 300 300" style="enable-background:new 0 0 300 300;" xml:space="preserve">
<style type="text/css">
	.st0{display:none;}
	.st1{display:inline;}
	.st2{fill-rule:evenodd;clip-rule:evenodd;fill:#010101;}
	.st3{fill-rule:evenodd;clip-rule:evenodd;}
</style>
<g id="Microsoft" class="st0">
	<path class="st1" d="M63.1,126.1v50.5h-8.8V137h-0.1l-15.7,39.7h-5.9l-16-39.7h-0.1v39.7H8.5v-50.5h12.6l14.5,37.4h0.2l15.3-37.4
		C51.2,126.1,63.1,126.1,63.1,126.1z M70.4,130c0-1.4,0.5-2.6,1.5-3.5c1.1-0.9,2.2-1.4,3.6-1.4c1.5,0,2.8,0.5,3.7,1.4
		c0.9,0.9,1.5,2.1,1.5,3.5s-0.5,2.6-1.5,3.5c-1.1,0.9-2.2,1.4-3.7,1.4s-2.7-0.5-3.6-1.4C71,132.4,70.4,131.3,70.4,130z M79.9,140.4
		v36.3h-8.5v-36.3C71.3,140.4,79.9,140.4,79.9,140.4z M105.7,170.5c1.3,0,2.7-0.2,4.2-0.9c1.5-0.6,2.9-1.4,4.2-2.3v8
		c-1.4,0.8-2.9,1.4-4.7,1.8c-1.8,0.4-3.6,0.6-5.7,0.6c-5.4,0-9.7-1.6-13-5c-3.4-3.4-5-7.7-5-12.9c0-5.9,1.8-10.6,5.1-14.4
		c3.4-3.7,8.2-5.6,14.5-5.6c1.6,0,3.3,0.2,4.8,0.6c1.6,0.4,2.9,0.9,3.9,1.4v8.2c-1.3-0.9-2.7-1.8-4-2.2c-1.4-0.5-2.8-0.8-4.2-0.8
		c-3.4,0-6.1,1.1-8.2,3.3c-2.1,2.2-3,5.1-3,8.9c0,3.6,1.1,6.6,3,8.5C99.6,169.4,102.3,170.5,105.7,170.5z M138.4,139.8
		c0.7,0,1.3,0,1.9,0.1s1.1,0.2,1.4,0.4v8.7c-0.5-0.4-1.1-0.7-2-0.9c-0.9-0.2-1.9-0.5-3.2-0.5c-2.1,0-3.9,0.9-5.3,2.7
		c-1.4,1.8-2.2,4.4-2.2,8.2v18.3h-8.5v-36.3h8.5v5.7h0.1c0.8-2,2-3.5,3.5-4.7C134.3,140.4,136.2,139.8,138.4,139.8z M142.1,159.1
		c0-6,1.8-10.8,5-14.3c3.4-3.5,8.1-5.3,14-5.3c5.6,0,10.1,1.6,13.2,5c3.2,3.4,4.8,8,4.8,13.7c0,5.9-1.8,10.5-5,14
		c-3.4,3.5-8,5.3-13.8,5.3c-5.6,0-10.1-1.6-13.3-4.9C143.8,169.3,142.1,164.7,142.1,159.1z M151,158.8c0,3.7,0.8,6.7,2.6,8.7
		c1.8,2,4.2,3,7.4,3c3,0,5.5-0.9,7.1-3c1.6-2,2.5-4.9,2.5-8.9c0-3.9-0.8-6.8-2.5-8.9c-1.6-2-4.1-3-7-3c-3.2,0-5.5,1.1-7.3,3.2
		C151.8,152,151,154.9,151,158.8z M192,150c0,1.2,0.4,2.2,1.2,2.9c0.8,0.7,2.5,1.5,5.1,2.6c3.4,1.4,5.9,2.9,7.1,4.6
		c1.4,1.8,2.1,3.7,2.1,6.2c0,3.4-1.3,6.1-4,8.2c-2.6,2.1-6.2,3-10.6,3c-1.5,0-3.2-0.2-5-0.6c-1.9-0.4-3.4-0.8-4.7-1.4v-8.4
		c1.5,1.1,3.3,2,5,2.6c1.8,0.6,3.4,0.9,4.9,0.9c1.9,0,3.4-0.2,4.2-0.8c0.9-0.6,1.4-1.4,1.4-2.7c0-1.2-0.5-2.1-1.4-3
		c-0.9-0.8-2.8-1.8-5.4-2.8c-3.2-1.3-5.4-2.8-6.7-4.4c-1.3-1.6-2-3.7-2-6.3c0-3.3,1.3-6,3.9-8.1c2.6-2.1,6-3.2,10.1-3.2
		c1.3,0,2.7,0.1,4.2,0.5s2.9,0.7,4,1.1v8.3c-1.2-0.7-2.5-1.4-4-2c-1.5-0.6-3-0.8-4.4-0.8c-1.6,0-2.9,0.4-3.7,0.9
		C192.4,148,192,148.8,192,150z M211.1,159.1c0-6,1.8-10.8,5-14.3c3.4-3.5,8.1-5.3,14-5.3c5.6,0,10.1,1.6,13.2,5
		c3.2,3.4,4.8,8,4.8,13.7c0,5.9-1.8,10.5-5,14c-3.4,3.5-8,5.3-13.8,5.3c-5.6,0-10.1-1.6-13.3-4.9
		C212.9,169.3,211.1,164.7,211.1,159.1z M220,158.8c0,3.7,0.8,6.7,2.6,8.7c1.8,2,4.2,3,7.4,3c3,0,5.5-0.9,7.1-3
		c1.6-2,2.5-4.9,2.5-8.9c0-3.9-0.8-6.8-2.5-8.9c-1.6-2-4.1-3-7-3c-3.2,0-5.5,1.1-7.3,3.2C221,152,220,154.9,220,158.8z M276.7,147.4
		h-12.8v29.3h-8.7v-29.3h-6.1v-7h6.1v-5c0-3.7,1.3-6.9,3.7-9.4c2.5-2.5,5.6-3.6,9.5-3.6c1.1,0,2,0.1,2.8,0.1c0.8,0,1.5,0.2,2.1,0.5
		v7.4c-0.2-0.1-0.8-0.4-1.5-0.6c-0.7-0.2-1.5-0.4-2.5-0.4c-1.8,0-3.2,0.6-4.1,1.6c-0.9,1.1-1.4,2.8-1.4,4.9v4.3h12.8v-8.2l8.5-2.6
		v10.8h8.7v7h-8.7v17c0,2.2,0.5,3.7,1.2,4.7c0.8,0.9,2.1,1.4,3.9,1.4c0.5,0,1.1-0.1,1.8-0.4c0.7-0.2,1.3-0.5,1.8-0.8v7
		c-0.6,0.4-1.4,0.6-2.7,0.8c-1.3,0.2-2.5,0.4-3.7,0.4c-3.6,0-6.3-0.9-8.1-2.8s-2.7-4.8-2.7-8.7L276.7,147.4L276.7,147.4z"/>
</g>
<g id="Netflix" class="st0">
	<path class="st1" d="M46.3,183.7c-4.3,0.8-8.7,1-13.2,1.6l-13.8-40.5v42.3c-4.3,0.5-8.2,1.1-12.3,1.7v-77.4h11.5l15.7,43.9v-43.9
		h12.2L46.3,183.7L46.3,183.7z M70.1,139.6c4.7,0,11.9-0.2,16.2-0.2v12.1c-5.4,0-11.6,0-16.2,0.2v18c7.1-0.5,14.2-1.1,21.4-1.3v11.6
		L58,182.7v-71.5h33.5v12.1H70.1C70.1,123.4,70.1,139.6,70.1,139.6z M136.5,123.4H124V179c-4.1,0-8.2,0-12.1,0.2v-55.8H99.3v-12.1
		h37.2C136.5,111.3,136.5,123.4,136.5,123.4z M156.2,138.8h16.6v12.1h-16.6v27.5h-11.9v-67.1h33.8v12.1h-21.9
		C156.2,123.4,156.2,138.8,156.2,138.8z M197.8,167.8c6.9,0.2,13.8,0.7,20.6,1.1v11.9c-10.8-0.7-21.6-1.4-32.7-1.6v-67.9h12.1V167.8
		L197.8,167.8z M228.6,181.6c3.9,0.2,7.9,0.5,11.9,0.9v-71.2h-11.9V181.6z M293.4,111.3l-15.4,36.8l15.4,40.6
		c-4.5-0.6-9.1-1.4-13.6-2.2l-8.7-22.4l-8.8,20.6c-4.4-0.8-8.6-1-13-1.6l15.6-35.5l-14.1-36.4h13l7.9,20.3l8.5-20.3L293.4,111.3
		L293.4,111.3z"/>
</g>
<g id="Warner_Bros" class="st0">
	<g class="st1">
		<path class="st2" d="M235,108.9c2.7-15-7.3-26.8-18.9-35.3c-16.2-11.9-34.6-19.1-53.5-24.6v197.6c8.4-7.3,16.8-15.5,24.8-23.9
			c17.1-18.9,33-38.2,39.6-61.4c2.7-10.5,1.2-22.5-7.7-29.6C227,125.6,233.9,118.1,235,108.9z M202.4,177.2
			c-5.9,10.7-13.9,20.5-23.4,29.6l-0.2-56.5c6.4-4.6,13-8.7,21-9.5c3.2,0,6.1,1.1,8.2,3.6C215.2,155.6,206.8,167.4,202.4,177.2z
			 M218.6,104.4c-1.6,8.9-11.4,14.1-18.4,17.8c-7,3.6-14.1,6.4-21.4,9.1V73.6c11.2,3.4,21.4,9.1,31,15.9
			C214.3,93.2,220.4,97.8,218.6,104.4L218.6,104.4z M148,245.1V48.2l-15.9,8.2V162c-0.7,3,1.4,7.7-2,9.1c-0.9,0.2-1.6-0.2-2-0.9
			c-6.8-25.5-9.6-52.4-10.9-80.1l-0.5-24.1l-15.2,11.2v6.4c0.9,25.5,2.7,50.5,7.5,74.4l-6.1,6.8c-2.3-3.2-3.7-6.6-5.4-10
			c-7.7-20.3-10.5-42.6-11.6-65.6l-13.2,9.8c1.2,35,7.8,67.9,29.1,94.2c4.1-4.6,8.2-9.5,12.3-13.9c2.1,9.5,5.2,18.5,8.7,27.5
			C128.9,220.5,135.5,234.4,148,245.1L148,245.1z"/>
		<path class="st2" d="M269.4,74.1l-23.7-5.9l-4.3-16.1l-24.3-5.7l-5-17.5l-57.2-13L98.7,29l-5,17.5l-24.3,5.7
			c-1.6,5.5-3,10.9-4.5,16.2l-23.7,5.7c-1.8,50.5,12.1,94.9,37.3,134.5c18.4,28.4,46,58.3,76.3,73.1c20.5-9.8,38.7-26.2,55.1-44.6
			C249.8,191.1,271.6,137.2,269.4,74.1L269.4,74.1z M199.5,226.8c-13,14.6-27.6,29.1-44.1,37.5c-15.7-7.8-29.4-21.4-41.9-35.1
			c-32.5-38-54-80.4-57.6-130.2c-0.4-4.1-0.5-8-0.4-12.3l20.2-4.6l4.6-16.6l24.8-5.9l0.2-0.5l4.5-17.1l44.9-10.5l46.4,10.5l4.5,17.5
			l25.1,6.1l4.3,16.6l20.3,4.6C254.8,140.8,233.2,186.3,199.5,226.8L199.5,226.8z"/>
	</g>
</g>
<g id="_x32_0th_century_fox">
	<g>
		<path class="st3" d="M151.9,64.8c2.8-0.4,8-0.1,11.7,2.6c4,3,7.2,8,6.7,13.8c-0.8,7-2.4,11.5-8.5,16.4c-7.3,6-14.5,6.3-17.8,6.1
			c-2.3-0.2-9-1.7-12.7-7.7c-2.3-4.1-1.6-9.9-0.9-12.5c0.7-2.6,4.9-9.4,9.2-12.8C144,67.4,149.2,65.1,151.9,64.8L151.9,64.8
			L151.9,64.8z"/>
		<path class="st3" d="M4.9,266.8v-9.2l53.6-6c0,0-11-4.3-13.7-12.5c-2.9-8.6,4-17.1,9.6-18.1c7.6-1.4,17.5-2.2,17.5-2.2l0,0
			l9.8,0.9l212.5,24.4v22.8H4.9L4.9,266.8z"/>
		<polygon class="st3" points="95.8,215.7 234.7,199.5 267.2,211.9 267.3,234.3 95.8,215.7 		"/>
		<path class="st3" d="M294.2,31.7h-36.5l14.8,150.6c0,0-0.3,2.6-2.1,2.9c-1.8,0.3-2.1-1.4-2.1-1.4l0,0l-6.6-24.9l-27.1-9.7
			l-28.2,26.4l23.4,15l-22.5,2.7l-12.7-8.1l-9.9,10.6l-21.6,2.6l18.8-19.6L153,162l-13.7,2.1c0,0,11.8,3.5,16.6,7.5
			c4.7,4,5.7,8.2,4.6,15.1c-1.1,6.9-8.7,12.4-8.7,12.4l0,0l-44.2,5.3l-5.1-2.6c0,0-6.6-3.3-6.9-10.5c-0.3-6.5,6.9-16.6,6.9-16.6l0,0
			l-11.2-3.2v10l-22.5,3.5v7.8l20.3-2.7v9.1l-19.9,2.9l0.1,6.6l-13.4,1.8v-31.2l-4.5,0.7v-6.6l183.3-32.3l25.3,9.5l-8.4-34.3
			l-16.6-6.2l-11.6,18l-0.1,9.8l-8.9,1.8v-9.7l-7.6-7.6l-9.8-2.2c0,0,2.1,1.3,2.9,1.8c2.4,1.9,3.1,3.8,3.1,6.8
			c0,4.1-5.5,6.3-5.5,6.3l0,0l9.2,6l-9.4,1.9l-10.6-5.5l-0.1,7.2l-7.9,1.4v-21.2l-6.3-1.9c0,0,0,14.6-0.1,19.9
			c-0.1,4.1-4.6,5.2-4.6,5.2s-10.5,2.9-14.1,1.8c-3.6-1-3.6-4.7-3.6-4.7l0,0v-14.8l-3.2-2.1l-0.1,6.5l-6.1,1.4l0.1,16.7l-7.7,1.4
			l0.1-16.4l-6.2,1.1l-0.1-4.1l-3.9-1.7v22.7l-7.3,1.3l-10.1-8.8l0.1,10.6l-7.1,1.3l0.1-19l-5.6-1.7v5.1l-9.4,2.4v4l8.1-1.8v4.7
			l-8.1,1.8v3.7l9.1-1.4l0.1,3.2l-16.1,2.9l0.1-16.1c0,0-1.9-0.4-6.9-1.1c2.3,1.6,1.8,2.8,1.8,2.8l-3.7,3.7c0,0-1.4-1.9-5-1.1
			c-2.8,0.6-4,3.2-4,5.8c0.1,2.7,1.6,6,5.1,5.5c3.1-0.6,4.7-3.7,4.7-3.7l4.3,2.2l-2.2,3.2c0,0-11.6,2.2-13.5,2.4
			c-3.9-1.4-4.8-4.8-4.9-7.9c-0.3-6,3.6-10.1,3.6-10.1l0,0l-4.3-2.4v-4.7l182.9-40.5l15,5.8l-6-24.2l-12.4-4.1l-0.1,17.6l-5.3,1.1
			c0,0,0-9.7,0-12.5c-0.1-4.3-1.1-5.2-2.7-5.3c-2.7-0.1-3.5,2.1-3.5,5.8c0,3.7,0,13.5,0,13.5l0,0l-6.2,1.3l-0.1-28.6l-36-15.1
			c0,0,1.8,1.7,3.8,4.1c4.5,5.5,6.6,11.4,4.9,21.7c-1.6,10.2-7.3,17.4-7.3,17.4c-3.8,6.5-12.9,12.6-12.9,12.6s-21.9,5.2-27.9,5.8
			c-5.9,0.6-13.6-4.9-17.4-8.7c-3.8-3.8-5.9-8.7-7-13.5c-1.1-4.9,2.2-17.9,2.2-17.9l0,0l-8.1-4.3c0,0,1.4,3.1,2,4.8
			c0.6,1.6,1.6,3.8,0.2,10.1c-0.8,4.6-3.3,7.3-3.3,7.3l0,0l-18.9,23.3l22.7-4.3v9.2l-53.1,11.9v-6c0,0,32.1-36.5,34-39.2
			c2.9-4,4-7.6,0.3-10.5c-3.8-3-7.8-1.7-11.9,1.8c-3.7,3.1-5.6,10-5.6,10l0,0l-16.3,2.7l4.1-12.5c4.7-11,19.1-16,25.7-16.8
			c3.7-0.4,9.7,1.7,9.7,1.7l0,0l19.5,8.7c0,0,0.7-1,1.7-2.8c2.7-5,14.6-17.9,18.9-20c8.1-3.9,16.7-5.2,23.8-4.3
			c4.3,0.6,14.1,4.3,14.1,4.3l0,0l38.1,15.9l-0.1-10.9l6.6-2.3l19.1,8.1L231.2,32L60.5,31.7c0,0-28.1,153.2-28.6,156.5
			c-0.4,2.4-1.7,3.5-4.2,2.9c-2.2-0.6-1.7-4.1-1.7-4.1l0,0l6.7-155.3H4.9v221.8l14.8-1.8l-0.1-37.2c0,0,0.3-3,3.1-2.7
			c2.6,0.2,5.5,0.4,6.6,0.8c1.8,0.6,2.4,1.9,2.3,3.9c0,2.9,0,33.4,0,33.4l0,0l14-1.8c0,0-5-1.9-6.7-10.9c-0.4-2.8-0.8-7.1,2.9-13
			c3.7-5.7,10.8-7.9,13.2-8.2c2.3-0.3,180.6-21.7,180.6-21.7l0,0l31.6,12.6v-3c0,0,0-2.9,2.9-2.9c4.1,0,4.5,0,6.7-0.1
			c3.7,0,3.3,3.2,3.3,3.2l0,0l-0.1,31.7l14,1.4V31.7L294.2,31.7z M26.4,204.1c-8.1-1-6.1-9.1-6.1-9.1l0,0l14.6,2.3
			C34.9,197.3,34.9,205,26.4,204.1L26.4,204.1L26.4,204.1z M273.1,195.6c-5.9,1.1-8.1-4.9-8.1-4.9l0,0l13.5-3.1
			C278.5,187.6,280.6,194.2,273.1,195.6L273.1,195.6L273.1,195.6z M209.7,81.3l-4.6,1.1v-6.8l-5.6,1.3v28.3l5.6-1.7V88.1
			c1.8-0.6,4.6-1.4,4.6-1.4V81.3L209.7,81.3z"/>
		<path class="st3" d="M158,125.7l6.3,3.2c0,0,0.1,11.4,0.1,13c-0.1,1.7-0.9,2.8-3.1,3.2c-2.2,0.4-3.3,0.3-3.3-2.7
			C158,139.5,158,125.7,158,125.7L158,125.7L158,125.7z"/>
		<path class="st3" d="M187.6,126.4c0,0,3.2-0.3,4.3,0c1.1,0.4,1.7,1.4,1.4,2.9c-0.2,1.4-1.2,1.9-2.1,2.1c-0.8,0.3-3.7,0.8-3.7,0.8
			l0,0V126.4L187.6,126.4z"/>
		<polygon class="st3" points="211.5,115.2 222,117.5 218.4,123.1 211.5,115.2 		"/>
		<polygon class="st3" points="102.8,136.2 116.6,140.5 116.5,149.5 102.8,136.2 		"/>
		<path class="st3" d="M115.6,179.5c1.7-1.3,7.9-4.3,13.2-4.7c6.3-0.4,11.4,0.4,14.8,3.2c3.5,2.8,3.7,6.1,1.4,9
			c-2.1,2.9-3.9,4.3-9,6.2c-5,1.8-12.2,2.1-15.5,1.3c-4-0.8-6.6-1.7-8.4-3.9C108.9,186.6,112.3,182.2,115.6,179.5L115.6,179.5
			L115.6,179.5z"/>
		<polygon class="st3" points="175.3,157 201.2,161.1 193.4,168.7 175.3,157 		"/>
		<path class="st3" d="M243.3,82l-3.7-14.3L220,59.5v18.9c0,0,1.6-2.6,5.1-2.9c3.7-0.3,5.7,2.1,5.7,2.1l0,0L243.3,82L243.3,82z"/>
	</g>
</g>
</svg>
