<?xml version="1.0" encoding="utf-8"?>
<!-- Generator: Adobe Illustrator 24.2.3, SVG Export Plug-In . SVG Version: 6.00 Build 0)  -->
<svg version="1.0" xmlns="http://www.w3.org/2000/svg" xmlns:xlink="http://www.w3.org/1999/xlink" x="0px" y="0px"
	 viewBox="0 0 300 300" style="enable-background:new 0 0 300 300;" xml:space="preserve">
<style type="text/css">
	.st0{display:none;}
	.st1{display:inline;}
</style>
<g id="Microsoft" class="st0">
	<path class="st1" d="M63.1,126.1v50.5h-8.8V137h-0.1l-15.7,39.7h-5.9l-16-39.7h-0.1v39.7H8.5v-50.5h12.6l14.5,37.4h0.2l15.3-37.4
		C51.2,126.1,63.1,126.1,63.1,126.1z M70.4,130c0-1.4,0.5-2.6,1.5-3.5c1.1-0.9,2.2-1.4,3.6-1.4c1.5,0,2.8,0.5,3.7,1.4
		c0.9,0.9,1.5,2.1,1.5,3.5s-0.5,2.6-1.5,3.5c-1.1,0.9-2.2,1.4-3.7,1.4s-2.7-0.5-3.6-1.4C71,132.4,70.4,131.3,70.4,130z M79.9,140.4
		v36.3h-8.5v-36.3C71.3,140.4,79.9,140.4,79.9,140.4z M105.7,170.5c1.3,0,2.7-0.2,4.2-0.9c1.5-0.6,2.9-1.4,4.2-2.3v8
		c-1.4,0.8-2.9,1.4-4.7,1.8c-1.8,0.4-3.6,0.6-5.7,0.6c-5.4,0-9.7-1.6-13-5c-3.4-3.4-5-7.7-5-12.9c0-5.9,1.8-10.6,5.1-14.4
		c3.4-3.7,8.2-5.6,14.5-5.6c1.6,0,3.3,0.2,4.8,0.6c1.6,0.4,2.9,0.9,3.9,1.4v8.2c-1.3-0.9-2.7-1.8-4-2.2c-1.4-0.5-2.8-0.8-4.2-0.8
		c-3.4,0-6.1,1.1-8.2,3.3c-2.1,2.2-3,5.1-3,8.9c0,3.6,1.1,6.6,3,8.5C99.6,169.4,102.3,170.5,105.7,170.5z M138.4,139.8
		c0.7,0,1.3,0,1.9,0.1s1.1,0.2,1.4,0.4v8.7c-0.5-0.4-1.1-0.7-2-0.9c-0.9-0.2-1.9-0.5-3.2-0.5c-2.1,0-3.9,0.9-5.3,2.7
		c-1.4,1.8-2.2,4.4-2.2,8.2v18.3h-8.5v-36.3h8.5v5.7h0.1c0.8-2,2-3.5,3.5-4.7C134.3,140.4,136.2,139.8,138.4,139.8z M142.1,159.1
		c0-6,1.8-10.8,5-14.3c3.4-3.5,8.1-5.3,14-5.3c5.6,0,10.1,1.6,13.2,5c3.2,3.4,4.8,8,4.8,13.7c0,5.9-1.8,10.5-5,14
		c-3.4,3.5-8,5.3-13.8,5.3c-5.6,0-10.1-1.6-13.3-4.9C143.8,169.3,142.1,164.7,142.1,159.1z M151,158.8c0,3.7,0.8,6.7,2.6,8.7
		c1.8,2,4.2,3,7.4,3c3,0,5.5-0.9,7.1-3c1.6-2,2.5-4.9,2.5-8.9c0-3.9-0.8-6.8-2.5-8.9c-1.6-2-4.1-3-7-3c-3.2,0-5.5,1.1-7.3,3.2
		C151.8,152,151,154.9,151,158.8z M192,150c0,1.2,0.4,2.2,1.2,2.9c0.8,0.7,2.5,1.5,5.1,2.6c3.4,1.4,5.9,2.9,7.1,4.6
		c1.4,1.8,2.1,3.7,2.1,6.2c0,3.4-1.3,6.1-4,8.2c-2.6,2.1-6.2,3-10.6,3c-1.5,0-3.2-0.2-5-0.6c-1.9-0.4-3.4-0.8-4.7-1.4v-8.4
		c1.5,1.1,3.3,2,5,2.6c1.8,0.6,3.4,0.9,4.9,0.9c1.9,0,3.4-0.2,4.2-0.8c0.9-0.6,1.4-1.4,1.4-2.7c0-1.2-0.5-2.1-1.4-3
		c-0.9-0.8-2.8-1.8-5.4-2.8c-3.2-1.3-5.4-2.8-6.7-4.4c-1.3-1.6-2-3.7-2-6.3c0-3.3,1.3-6,3.9-8.1c2.6-2.1,6-3.2,10.1-3.2
		c1.3,0,2.7,0.1,4.2,0.5s2.9,0.7,4,1.1v8.3c-1.2-0.7-2.5-1.4-4-2c-1.5-0.6-3-0.8-4.4-0.8c-1.6,0-2.9,0.4-3.7,0.9
		C192.4,148,192,148.8,192,150z M211.1,159.1c0-6,1.8-10.8,5-14.3c3.4-3.5,8.1-5.3,14-5.3c5.6,0,10.1,1.6,13.2,5
		c3.2,3.4,4.8,8,4.8,13.7c0,5.9-1.8,10.5-5,14c-3.4,3.5-8,5.3-13.8,5.3c-5.6,0-10.1-1.6-13.3-4.9
		C212.9,169.3,211.1,164.7,211.1,159.1z M220,158.8c0,3.7,0.8,6.7,2.6,8.7c1.8,2,4.2,3,7.4,3c3,0,5.5-0.9,7.1-3
		c1.6-2,2.5-4.9,2.5-8.9c0-3.9-0.8-6.8-2.5-8.9c-1.6-2-4.1-3-7-3c-3.2,0-5.5,1.1-7.3,3.2C221,152,220,154.9,220,158.8z M276.7,147.4
		h-12.8v29.3h-8.7v-29.3h-6.1v-7h6.1v-5c0-3.7,1.3-6.9,3.7-9.4c2.5-2.5,5.6-3.6,9.5-3.6c1.1,0,2,0.1,2.8,0.1c0.8,0,1.5,0.2,2.1,0.5
		v7.4c-0.2-0.1-0.8-0.4-1.5-0.6c-0.7-0.2-1.5-0.4-2.5-0.4c-1.8,0-3.2,0.6-4.1,1.6c-0.9,1.1-1.4,2.8-1.4,4.9v4.3h12.8v-8.2l8.5-2.6
		v10.8h8.7v7h-8.7v17c0,2.2,0.5,3.7,1.2,4.7c0.8,0.9,2.1,1.4,3.9,1.4c0.5,0,1.1-0.1,1.8-0.4c0.7-0.2,1.3-0.5,1.8-0.8v7
		c-0.6,0.4-1.4,0.6-2.7,0.8c-1.3,0.2-2.5,0.4-3.7,0.4c-3.6,0-6.3-0.9-8.1-2.8s-2.7-4.8-2.7-8.7L276.7,147.4L276.7,147.4z"/>
</g>
<g id="Netflix">
	<path d="M46.3,183.7c-4.3,0.8-8.7,1-13.2,1.6l-13.8-40.5v42.3c-4.3,0.5-8.2,1.1-12.3,1.7v-77.4h11.5l15.7,43.9v-43.9h12.2
		L46.3,183.7L46.3,183.7z M70.1,139.6c4.7,0,11.9-0.2,16.2-0.2v12.1c-5.4,0-11.6,0-16.2,0.2v18c7.1-0.5,14.2-1.1,21.4-1.3v11.6
		L58,182.7v-71.5h33.5v12.1H70.1C70.1,123.4,70.1,139.6,70.1,139.6z M136.5,123.4H124V179c-4.1,0-8.2,0-12.1,0.2v-55.8H99.3v-12.1
		h37.2C136.5,111.3,136.5,123.4,136.5,123.4z M156.2,138.8h16.6v12.1h-16.6v27.5h-11.9v-67.1h33.8v12.1h-21.9
		C156.2,123.4,156.2,138.8,156.2,138.8z M197.8,167.8c6.9,0.2,13.8,0.7,20.6,1.1v11.9c-10.8-0.7-21.6-1.4-32.7-1.6v-67.9h12.1V167.8
		L197.8,167.8z M228.6,181.6c3.9,0.2,7.9,0.5,11.9,0.9v-71.2h-11.9V181.6z M293.4,111.3l-15.4,36.8l15.4,40.6
		c-4.5-0.6-9.1-1.4-13.6-2.2l-8.7-22.4l-8.8,20.6c-4.4-0.8-8.6-1-13-1.6l15.6-35.5l-14.1-36.4h13l7.9,20.3l8.5-20.3L293.4,111.3
		L293.4,111.3z"/>
</g>
</svg>
