<?xml version="1.0" encoding="utf-8"?>
<!-- Generator: Adobe Illustrator 24.2.3, SVG Export Plug-In . SVG Version: 6.00 Build 0)  -->
<svg version="1.0" xmlns="http://www.w3.org/2000/svg" xmlns:xlink="http://www.w3.org/1999/xlink" x="0px" y="0px"
	 viewBox="0 0 300 300" style="enable-background:new 0 0 300 300;" xml:space="preserve">
<style type="text/css">
	.st0{display:none;}
	.st1{display:inline;}
	.st2{fill-rule:evenodd;clip-rule:evenodd;fill:#010101;}
	.st3{fill-rule:evenodd;clip-rule:evenodd;}
</style>
<g id="Microsoft" class="st0">
	<path class="st1" d="M63.1,126.1v50.5h-8.8V137h-0.1l-15.7,39.7h-5.9l-16-39.7h-0.1v39.7H8.5v-50.5h12.6l14.5,37.4h0.2l15.3-37.4
		C51.2,126.1,63.1,126.1,63.1,126.1z M70.4,130c0-1.4,0.5-2.6,1.5-3.5c1.1-0.9,2.2-1.4,3.6-1.4c1.5,0,2.8,0.5,3.7,1.4
		c0.9,0.9,1.5,2.1,1.5,3.5s-0.5,2.6-1.5,3.5c-1.1,0.9-2.2,1.4-3.7,1.4s-2.7-0.5-3.6-1.4C71,132.4,70.4,131.3,70.4,130z M79.9,140.4
		v36.3h-8.5v-36.3C71.3,140.4,79.9,140.4,79.9,140.4z M105.7,170.5c1.3,0,2.7-0.2,4.2-0.9c1.5-0.6,2.9-1.4,4.2-2.3v8
		c-1.4,0.8-2.9,1.4-4.7,1.8c-1.8,0.4-3.6,0.6-5.7,0.6c-5.4,0-9.7-1.6-13-5c-3.4-3.4-5-7.7-5-12.9c0-5.9,1.8-10.6,5.1-14.4
		c3.4-3.7,8.2-5.6,14.5-5.6c1.6,0,3.3,0.2,4.8,0.6c1.6,0.4,2.9,0.9,3.9,1.4v8.2c-1.3-0.9-2.7-1.8-4-2.2c-1.4-0.5-2.8-0.8-4.2-0.8
		c-3.4,0-6.1,1.1-8.2,3.3c-2.1,2.2-3,5.1-3,8.9c0,3.6,1.1,6.6,3,8.5C99.6,169.4,102.3,170.5,105.7,170.5z M138.4,139.8
		c0.7,0,1.3,0,1.9,0.1s1.1,0.2,1.4,0.4v8.7c-0.5-0.4-1.1-0.7-2-0.9c-0.9-0.2-1.9-0.5-3.2-0.5c-2.1,0-3.9,0.9-5.3,2.7
		c-1.4,1.8-2.2,4.4-2.2,8.2v18.3h-8.5v-36.3h8.5v5.7h0.1c0.8-2,2-3.5,3.5-4.7C134.3,140.4,136.2,139.8,138.4,139.8z M142.1,159.1
		c0-6,1.8-10.8,5-14.3c3.4-3.5,8.1-5.3,14-5.3c5.6,0,10.1,1.6,13.2,5c3.2,3.4,4.8,8,4.8,13.7c0,5.9-1.8,10.5-5,14
		c-3.4,3.5-8,5.3-13.8,5.3c-5.6,0-10.1-1.6-13.3-4.9C143.8,169.3,142.1,164.7,142.1,159.1z M151,158.8c0,3.7,0.8,6.7,2.6,8.7
		c1.8,2,4.2,3,7.4,3c3,0,5.5-0.9,7.1-3c1.6-2,2.5-4.9,2.5-8.9c0-3.9-0.8-6.8-2.5-8.9c-1.6-2-4.1-3-7-3c-3.2,0-5.5,1.1-7.3,3.2
		C151.8,152,151,154.9,151,158.8z M192,150c0,1.2,0.4,2.2,1.2,2.9c0.8,0.7,2.5,1.5,5.1,2.6c3.4,1.4,5.9,2.9,7.1,4.6
		c1.4,1.8,2.1,3.7,2.1,6.2c0,3.4-1.3,6.1-4,8.2c-2.6,2.1-6.2,3-10.6,3c-1.5,0-3.2-0.2-5-0.6c-1.9-0.4-3.4-0.8-4.7-1.4v-8.4
		c1.5,1.1,3.3,2,5,2.6c1.8,0.6,3.4,0.9,4.9,0.9c1.9,0,3.4-0.2,4.2-0.8c0.9-0.6,1.4-1.4,1.4-2.7c0-1.2-0.5-2.1-1.4-3
		c-0.9-0.8-2.8-1.8-5.4-2.8c-3.2-1.3-5.4-2.8-6.7-4.4c-1.3-1.6-2-3.7-2-6.3c0-3.3,1.3-6,3.9-8.1c2.6-2.1,6-3.2,10.1-3.2
		c1.3,0,2.7,0.1,4.2,0.5s2.9,0.7,4,1.1v8.3c-1.2-0.7-2.5-1.4-4-2c-1.5-0.6-3-0.8-4.4-0.8c-1.6,0-2.9,0.4-3.7,0.9
		C192.4,148,192,148.8,192,150z M211.1,159.1c0-6,1.8-10.8,5-14.3c3.4-3.5,8.1-5.3,14-5.3c5.6,0,10.1,1.6,13.2,5
		c3.2,3.4,4.8,8,4.8,13.7c0,5.9-1.8,10.5-5,14c-3.4,3.5-8,5.3-13.8,5.3c-5.6,0-10.1-1.6-13.3-4.9
		C212.9,169.3,211.1,164.7,211.1,159.1z M220,158.8c0,3.7,0.8,6.7,2.6,8.7c1.8,2,4.2,3,7.4,3c3,0,5.5-0.9,7.1-3
		c1.6-2,2.5-4.9,2.5-8.9c0-3.9-0.8-6.8-2.5-8.9c-1.6-2-4.1-3-7-3c-3.2,0-5.5,1.1-7.3,3.2C221,152,220,154.9,220,158.8z M276.7,147.4
		h-12.8v29.3h-8.7v-29.3h-6.1v-7h6.1v-5c0-3.7,1.3-6.9,3.7-9.4c2.5-2.5,5.6-3.6,9.5-3.6c1.1,0,2,0.1,2.8,0.1c0.8,0,1.5,0.2,2.1,0.5
		v7.4c-0.2-0.1-0.8-0.4-1.5-0.6c-0.7-0.2-1.5-0.4-2.5-0.4c-1.8,0-3.2,0.6-4.1,1.6c-0.9,1.1-1.4,2.8-1.4,4.9v4.3h12.8v-8.2l8.5-2.6
		v10.8h8.7v7h-8.7v17c0,2.2,0.5,3.7,1.2,4.7c0.8,0.9,2.1,1.4,3.9,1.4c0.5,0,1.1-0.1,1.8-0.4c0.7-0.2,1.3-0.5,1.8-0.8v7
		c-0.6,0.4-1.4,0.6-2.7,0.8c-1.3,0.2-2.5,0.4-3.7,0.4c-3.6,0-6.3-0.9-8.1-2.8s-2.7-4.8-2.7-8.7L276.7,147.4L276.7,147.4z"/>
</g>
<g id="Netflix" class="st0">
	<path class="st1" d="M46.3,183.7c-4.3,0.8-8.7,1-13.2,1.6l-13.8-40.5v42.3c-4.3,0.5-8.2,1.1-12.3,1.7v-77.4h11.5l15.7,43.9v-43.9
		h12.2L46.3,183.7L46.3,183.7z M70.1,139.6c4.7,0,11.9-0.2,16.2-0.2v12.1c-5.4,0-11.6,0-16.2,0.2v18c7.1-0.5,14.2-1.1,21.4-1.3v11.6
		L58,182.7v-71.5h33.5v12.1H70.1C70.1,123.4,70.1,139.6,70.1,139.6z M136.5,123.4H124V179c-4.1,0-8.2,0-12.1,0.2v-55.8H99.3v-12.1
		h37.2C136.5,111.3,136.5,123.4,136.5,123.4z M156.2,138.8h16.6v12.1h-16.6v27.5h-11.9v-67.1h33.8v12.1h-21.9
		C156.2,123.4,156.2,138.8,156.2,138.8z M197.8,167.8c6.9,0.2,13.8,0.7,20.6,1.1v11.9c-10.8-0.7-21.6-1.4-32.7-1.6v-67.9h12.1V167.8
		L197.8,167.8z M228.6,181.6c3.9,0.2,7.9,0.5,11.9,0.9v-71.2h-11.9V181.6z M293.4,111.3l-15.4,36.8l15.4,40.6
		c-4.5-0.6-9.1-1.4-13.6-2.2l-8.7-22.4l-8.8,20.6c-4.4-0.8-8.6-1-13-1.6l15.6-35.5l-14.1-36.4h13l7.9,20.3l8.5-20.3L293.4,111.3
		L293.4,111.3z"/>
</g>
<g id="Warner_Bros" class="st0">
	<g class="st1">
		<path class="st2" d="M235,108.9c2.7-15-7.3-26.8-18.9-35.3c-16.2-11.9-34.6-19.1-53.5-24.6v197.6c8.4-7.3,16.8-15.5,24.8-23.9
			c17.1-18.9,33-38.2,39.6-61.4c2.7-10.5,1.2-22.5-7.7-29.6C227,125.6,233.9,118.1,235,108.9z M202.4,177.2
			c-5.9,10.7-13.9,20.5-23.4,29.6l-0.2-56.5c6.4-4.6,13-8.7,21-9.5c3.2,0,6.1,1.1,8.2,3.6C215.2,155.6,206.8,167.4,202.4,177.2z
			 M218.6,104.4c-1.6,8.9-11.4,14.1-18.4,17.8c-7,3.6-14.1,6.4-21.4,9.1V73.6c11.2,3.4,21.4,9.1,31,15.9
			C214.3,93.2,220.4,97.8,218.6,104.4L218.6,104.4z M148,245.1V48.2l-15.9,8.2V162c-0.7,3,1.4,7.7-2,9.1c-0.9,0.2-1.6-0.2-2-0.9
			c-6.8-25.5-9.6-52.4-10.9-80.1l-0.5-24.1l-15.2,11.2v6.4c0.9,25.5,2.7,50.5,7.5,74.4l-6.1,6.8c-2.3-3.2-3.7-6.6-5.4-10
			c-7.7-20.3-10.5-42.6-11.6-65.6l-13.2,9.8c1.2,35,7.8,67.9,29.1,94.2c4.1-4.6,8.2-9.5,12.3-13.9c2.1,9.5,5.2,18.5,8.7,27.5
			C128.9,220.5,135.5,234.4,148,245.1L148,245.1z"/>
		<path class="st2" d="M269.4,74.1l-23.7-5.9l-4.3-16.1l-24.3-5.7l-5-17.5l-57.2-13L98.7,29l-5,17.5l-24.3,5.7
			c-1.6,5.5-3,10.9-4.5,16.2l-23.7,5.7c-1.8,50.5,12.1,94.9,37.3,134.5c18.4,28.4,46,58.3,76.3,73.1c20.5-9.8,38.7-26.2,55.1-44.6
			C249.8,191.1,271.6,137.2,269.4,74.1L269.4,74.1z M199.5,226.8c-13,14.6-27.6,29.1-44.1,37.5c-15.7-7.8-29.4-21.4-41.9-35.1
			c-32.5-38-54-80.4-57.6-130.2c-0.4-4.1-0.5-8-0.4-12.3l20.2-4.6l4.6-16.6l24.8-5.9l0.2-0.5l4.5-17.1l44.9-10.5l46.4,10.5l4.5,17.5
			l25.1,6.1l4.3,16.6l20.3,4.6C254.8,140.8,233.2,186.3,199.5,226.8L199.5,226.8z"/>
	</g>
</g>
<g id="_x32_0th_century_fox" class="st0">
	<g class="st1">
		<path class="st3" d="M151.9,64.8c2.8-0.4,8-0.1,11.7,2.6c4,3,7.2,8,6.7,13.8c-0.8,7-2.4,11.5-8.5,16.4c-7.3,6-14.5,6.3-17.8,6.1
			c-2.3-0.2-9-1.7-12.7-7.7c-2.3-4.1-1.6-9.9-0.9-12.5c0.7-2.6,4.9-9.4,9.2-12.8C144,67.4,149.2,65.1,151.9,64.8L151.9,64.8
			L151.9,64.8z"/>
		<path class="st3" d="M4.9,266.8v-9.2l53.6-6c0,0-11-4.3-13.7-12.5c-2.9-8.6,4-17.1,9.6-18.1c7.6-1.4,17.5-2.2,17.5-2.2l0,0
			l9.8,0.9l212.5,24.4v22.8H4.9L4.9,266.8z"/>
		<polygon class="st3" points="95.8,215.7 234.7,199.5 267.2,211.9 267.3,234.3 95.8,215.7 		"/>
		<path class="st3" d="M294.2,31.7h-36.5l14.8,150.6c0,0-0.3,2.6-2.1,2.9c-1.8,0.3-2.1-1.4-2.1-1.4l0,0l-6.6-24.9l-27.1-9.7
			l-28.2,26.4l23.4,15l-22.5,2.7l-12.7-8.1l-9.9,10.6l-21.6,2.6l18.8-19.6L153,162l-13.7,2.1c0,0,11.8,3.5,16.6,7.5
			c4.7,4,5.7,8.2,4.6,15.1c-1.1,6.9-8.7,12.4-8.7,12.4l0,0l-44.2,5.3l-5.1-2.6c0,0-6.6-3.3-6.9-10.5c-0.3-6.5,6.9-16.6,6.9-16.6l0,0
			l-11.2-3.2v10l-22.5,3.5v7.8l20.3-2.7v9.1l-19.9,2.9l0.1,6.6l-13.4,1.8v-31.2l-4.5,0.7v-6.6l183.3-32.3l25.3,9.5l-8.4-34.3
			l-16.6-6.2l-11.6,18l-0.1,9.8l-8.9,1.8v-9.7l-7.6-7.6l-9.8-2.2c0,0,2.1,1.3,2.9,1.8c2.4,1.9,3.1,3.8,3.1,6.8
			c0,4.1-5.5,6.3-5.5,6.3l0,0l9.2,6l-9.4,1.9l-10.6-5.5l-0.1,7.2l-7.9,1.4v-21.2l-6.3-1.9c0,0,0,14.6-0.1,19.9
			c-0.1,4.1-4.6,5.2-4.6,5.2s-10.5,2.9-14.1,1.8c-3.6-1-3.6-4.7-3.6-4.7l0,0v-14.8l-3.2-2.1l-0.1,6.5l-6.1,1.4l0.1,16.7l-7.7,1.4
			l0.1-16.4l-6.2,1.1l-0.1-4.1l-3.9-1.7v22.7l-7.3,1.3l-10.1-8.8l0.1,10.6l-7.1,1.3l0.1-19l-5.6-1.7v5.1l-9.4,2.4v4l8.1-1.8v4.7
			l-8.1,1.8v3.7l9.1-1.4l0.1,3.2l-16.1,2.9l0.1-16.1c0,0-1.9-0.4-6.9-1.1c2.3,1.6,1.8,2.8,1.8,2.8l-3.7,3.7c0,0-1.4-1.9-5-1.1
			c-2.8,0.6-4,3.2-4,5.8c0.1,2.7,1.6,6,5.1,5.5c3.1-0.6,4.7-3.7,4.7-3.7l4.3,2.2l-2.2,3.2c0,0-11.6,2.2-13.5,2.4
			c-3.9-1.4-4.8-4.8-4.9-7.9c-0.3-6,3.6-10.1,3.6-10.1l0,0l-4.3-2.4v-4.7l182.9-40.5l15,5.8l-6-24.2l-12.4-4.1l-0.1,17.6l-5.3,1.1
			c0,0,0-9.7,0-12.5c-0.1-4.3-1.1-5.2-2.7-5.3c-2.7-0.1-3.5,2.1-3.5,5.8c0,3.7,0,13.5,0,13.5l0,0l-6.2,1.3l-0.1-28.6l-36-15.1
			c0,0,1.8,1.7,3.8,4.1c4.5,5.5,6.6,11.4,4.9,21.7c-1.6,10.2-7.3,17.4-7.3,17.4c-3.8,6.5-12.9,12.6-12.9,12.6s-21.9,5.2-27.9,5.8
			c-5.9,0.6-13.6-4.9-17.4-8.7c-3.8-3.8-5.9-8.7-7-13.5c-1.1-4.9,2.2-17.9,2.2-17.9l0,0l-8.1-4.3c0,0,1.4,3.1,2,4.8
			c0.6,1.6,1.6,3.8,0.2,10.1c-0.8,4.6-3.3,7.3-3.3,7.3l0,0l-18.9,23.3l22.7-4.3v9.2l-53.1,11.9v-6c0,0,32.1-36.5,34-39.2
			c2.9-4,4-7.6,0.3-10.5c-3.8-3-7.8-1.7-11.9,1.8c-3.7,3.1-5.6,10-5.6,10l0,0l-16.3,2.7l4.1-12.5c4.7-11,19.1-16,25.7-16.8
			c3.7-0.4,9.7,1.7,9.7,1.7l0,0l19.5,8.7c0,0,0.7-1,1.7-2.8c2.7-5,14.6-17.9,18.9-20c8.1-3.9,16.7-5.2,23.8-4.3
			c4.3,0.6,14.1,4.3,14.1,4.3l0,0l38.1,15.9l-0.1-10.9l6.6-2.3l19.1,8.1L231.2,32L60.5,31.7c0,0-28.1,153.2-28.6,156.5
			c-0.4,2.4-1.7,3.5-4.2,2.9c-2.2-0.6-1.7-4.1-1.7-4.1l0,0l6.7-155.3H4.9v221.8l14.8-1.8l-0.1-37.2c0,0,0.3-3,3.1-2.7
			c2.6,0.2,5.5,0.4,6.6,0.8c1.8,0.6,2.4,1.9,2.3,3.9c0,2.9,0,33.4,0,33.4l0,0l14-1.8c0,0-5-1.9-6.7-10.9c-0.4-2.8-0.8-7.1,2.9-13
			c3.7-5.7,10.8-7.9,13.2-8.2c2.3-0.3,180.6-21.7,180.6-21.7l0,0l31.6,12.6v-3c0,0,0-2.9,2.9-2.9c4.1,0,4.5,0,6.7-0.1
			c3.7,0,3.3,3.2,3.3,3.2l0,0l-0.1,31.7l14,1.4V31.7L294.2,31.7z M26.4,204.1c-8.1-1-6.1-9.1-6.1-9.1l0,0l14.6,2.3
			C34.9,197.3,34.9,205,26.4,204.1L26.4,204.1L26.4,204.1z M273.1,195.6c-5.9,1.1-8.1-4.9-8.1-4.9l0,0l13.5-3.1
			C278.5,187.6,280.6,194.2,273.1,195.6L273.1,195.6L273.1,195.6z M209.7,81.3l-4.6,1.1v-6.8l-5.6,1.3v28.3l5.6-1.7V88.1
			c1.8-0.6,4.6-1.4,4.6-1.4V81.3L209.7,81.3z"/>
		<path class="st3" d="M158,125.7l6.3,3.2c0,0,0.1,11.4,0.1,13c-0.1,1.7-0.9,2.8-3.1,3.2c-2.2,0.4-3.3,0.3-3.3-2.7
			C158,139.5,158,125.7,158,125.7L158,125.7L158,125.7z"/>
		<path class="st3" d="M187.6,126.4c0,0,3.2-0.3,4.3,0c1.1,0.4,1.7,1.4,1.4,2.9c-0.2,1.4-1.2,1.9-2.1,2.1c-0.8,0.3-3.7,0.8-3.7,0.8
			l0,0V126.4L187.6,126.4z"/>
		<polygon class="st3" points="211.5,115.2 222,117.5 218.4,123.1 211.5,115.2 		"/>
		<polygon class="st3" points="102.8,136.2 116.6,140.5 116.5,149.5 102.8,136.2 		"/>
		<path class="st3" d="M115.6,179.5c1.7-1.3,7.9-4.3,13.2-4.7c6.3-0.4,11.4,0.4,14.8,3.2c3.5,2.8,3.7,6.1,1.4,9
			c-2.1,2.9-3.9,4.3-9,6.2c-5,1.8-12.2,2.1-15.5,1.3c-4-0.8-6.6-1.7-8.4-3.9C108.9,186.6,112.3,182.2,115.6,179.5L115.6,179.5
			L115.6,179.5z"/>
		<polygon class="st3" points="175.3,157 201.2,161.1 193.4,168.7 175.3,157 		"/>
		<path class="st3" d="M243.3,82l-3.7-14.3L220,59.5v18.9c0,0,1.6-2.6,5.1-2.9c3.7-0.3,5.7,2.1,5.7,2.1l0,0L243.3,82L243.3,82z"/>
	</g>
</g>
<g id="prime_video" class="st0">
	<path class="st1" d="M149.3,196.2v-0.1c0.1-0.2,0.4-0.3,0.6-0.3c1,0,2.1,0,3.1,0c0.2,0,0.5,0.1,0.6,0.3v0.1H149.3z"/>
	<path class="st1" d="M153.6,196.1c-1.4,0-2.9,0-4.3,0c-2-0.1-4-0.2-6-0.3c-5.3-0.4-10.5-1.2-15.7-2.4c-17.8-4.1-33.4-12.4-47-24.5
		c-1.3-1.1-2.5-2.3-3.7-3.4c-0.3-0.3-0.5-0.6-0.7-1c-0.2-0.5-0.1-1,0.3-1.4c0.4-0.4,0.9-0.5,1.4-0.3c0.3,0.1,0.7,0.3,0.9,0.5
		c13,8,27.2,13.9,42,17.4c5,1.2,10,2.1,15.1,2.7c7.3,0.9,14.6,1.2,21.9,1c3.9-0.1,7.9-0.5,11.8-1c9.1-1.2,18.1-3.2,26.8-6.1
		c4.6-1.5,9.1-3.3,13.5-5.3c0.7-0.4,1.4-0.5,2.2-0.3c1.2,0.3,1.9,1.5,1.6,2.7c0,0.1-0.1,0.3-0.2,0.5c-0.3,0.5-0.7,1-1.2,1.4
		c-4.2,3.3-8.6,6.1-13.4,8.5c-8.9,4.5-18.5,7.7-28.3,9.6C165.1,195.3,159.4,195.9,153.6,196.1L153.6,196.1z M100,122.8
		c0.9-0.5,1.8-1.1,2.8-1.6c2.5-1.3,5.4-2,8.2-1.8c2.1,0.1,3.9,0.7,5.4,2.2c1.4,1.4,1.9,3.1,2,5c0,0.4,0,0.8,0,1.2v18.7
		c0,1.6-0.2,1.8-1.8,1.8h-4.4c-0.3,0-0.6,0-0.9,0c-0.4,0-0.8-0.4-0.9-0.8c-0.1-0.4-0.1-0.8-0.1-1.2v-16.7c0-0.7,0-1.3-0.2-2
		c-0.3-1.1-1.3-1.9-2.5-2c-2.1-0.1-4.3,0.3-6.2,1.2c-0.3,0.1-0.5,0.4-0.4,0.7v19c0,0.4,0,0.7-0.1,1c0,0.5-0.4,0.9-0.9,0.9
		c-0.5,0-1.1,0-1.7,0h-3.8c-1.3,0-1.6-0.3-1.6-1.7v-17.1c0-0.6,0-1.3-0.2-1.9c-0.3-1.2-1.3-2.1-2.5-2.2c-2.2-0.1-4.4,0.3-6.3,1.2
		c-0.3,0.1-0.5,0.4-0.4,0.7v19.3c0,1.3-0.3,1.6-1.6,1.6h-4.8c-1.3,0-1.6-0.4-1.6-1.6v-25.1c0-0.3,0-0.6,0.1-0.9
		c0.1-0.4,0.6-0.7,1-0.7h4.5c0.7,0,1,0.4,1.3,1c0.2,0.5,0.3,1,0.5,1.5c0.4,0,0.6-0.3,0.8-0.4c2-1.2,4.1-2.3,6.4-2.7
		c1.8-0.4,3.6-0.4,5.4,0c1.7,0.4,3.2,1.4,4.2,2.8c0.1,0.1,0.1,0.2,0.2,0.3C100,122.7,100,122.7,100,122.8L100,122.8z"/>
	<path class="st1" d="M175,140.8c0.2-0.7,0.4-1.4,0.7-2.1c1.7-5.6,3.3-11.2,5-16.8l0.2-0.7c0.2-0.7,0.8-1,1.4-1h5.5
		c1.4,0,1.7,0.4,1.2,1.7l-2.2,5.8c-2.4,6.3-4.8,12.6-7.3,18.9c-0.1,0.2-0.2,0.4-0.3,0.7c-0.3,0.8-1,1.3-1.8,1.2c-1.6,0-3.2,0-4.8,0
		c-1.1,0-1.8-0.5-2.2-1.5c-0.9-2.4-1.8-4.8-2.7-7.2c-2.2-5.7-4.4-11.4-6.5-17.1c-0.2-0.4-0.4-0.9-0.5-1.4c-0.1-0.7,0.1-1.1,0.9-1.1
		c2.1,0,4.1,0,6.1,0c0.9,0,1.3,0.6,1.5,1.3c0.4,1.4,0.8,2.8,1.2,4.2C172,130.7,173.5,135.7,175,140.8
		C174.9,140.8,175,140.8,175,140.8L175,140.8z"/>
	<path class="st1" d="M46.6,124.1c0.3-0.1,0.5-0.2,0.6-0.4c0.7-0.7,1.3-1.3,2.1-1.8c1.9-1.4,4.2-2.2,6.6-2c0.9,0,1.3,0.3,1.3,1.2
		c0.1,1.2,0,2.5,0,3.7c0,0.5,0,1-0.1,1.5c-0.1,0.7-0.4,0.9-1,1c-0.5,0-1,0-1.5,0c-2.4-0.2-4.8,0.3-7.1,1c-0.5,0.2-0.5,0.5-0.5,0.9
		v17.4c0,0.3,0,0.6,0,0.9c0,0.5-0.4,0.8-0.9,0.8c-0.3,0-0.5,0-0.8,0h-4.7c-0.3,0-0.5,0-0.8,0c-0.5,0-0.8-0.4-0.9-0.9
		c0-0.3,0-0.6,0-0.9V122c0-1.7,0.2-1.8,1.8-1.8h3.5c0.9,0,1.4,0.3,1.6,1.2C46.1,122.3,46.4,123.2,46.6,124.1L46.6,124.1z
		 M215.8,160.8c2.4,0.1,4.7,0.2,7.1,0.8c0.7,0.2,1.3,0.4,1.9,0.7c0.8,0.3,1.4,1.1,1.5,2c0.1,1,0.2,2.1,0.1,3.1
		c-0.5,6.2-2.4,12.2-5.6,17.5c-1.2,1.9-2.6,3.7-4.2,5.2c-0.3,0.3-0.7,0.6-1.2,0.7c-0.7,0.2-1.1-0.2-1.2-0.9c0-0.4,0.1-0.7,0.3-1.1
		c1.3-3.4,2.5-6.8,3.5-10.3c0.6-1.9,1-3.9,1.2-5.9c0.1-0.7,0.1-1.4,0-2.2c0-1.2-0.8-2.3-2-2.6c-1.1-0.4-2.3-0.6-3.5-0.7
		c-3.3-0.1-6.7,0-9.9,0.4l-4.4,0.5c-0.5,0-0.9,0-1.2-0.4c-0.3-0.4-0.1-0.9,0.1-1.3c0.3-0.4,0.7-0.8,1.1-1c2.7-1.9,5.7-3.1,8.9-3.8
		C210.8,161.1,213.3,160.9,215.8,160.8z"/>
	<path class="st1" d="M200.6,134.3v13c-0.1,0.7-0.4,1-1.1,1.1c-2,0-3.9,0-5.8,0c-0.7,0-1-0.4-1.1-1c0-0.2,0-0.5,0-0.7v-25
		c0-1.1,0.3-1.4,1.4-1.4h5.2c1.1,0,1.4,0.3,1.4,1.4L200.6,134.3z"/>
	<path class="st1" d="M60.7,134.2v-12.8c0-0.9,0.4-1.2,1.2-1.2c1.9,0,3.8,0,5.6,0c0.8,0,1.1,0.3,1.2,1.1c0,0.3,0,0.6,0,0.9v24.1
		c0,0.4,0,0.8-0.1,1.2c0,0.5-0.4,0.8-0.9,0.8c-0.2,0-0.4,0-0.6,0h-5c-0.2,0-0.3,0-0.5,0c-0.5,0-0.9-0.4-1-0.9c0-0.3,0-0.6,0-0.9
		C60.7,142.4,60.7,138.3,60.7,134.2L60.7,134.2z M64.9,107.2c0.6,0,1.2,0.1,1.7,0.3c2,0.7,3,2.4,2.8,4.6c-0.1,1.9-1.6,3.4-3.4,3.7
		c-0.8,0.1-1.6,0.1-2.4,0c-2.1-0.4-3.6-1.9-3.4-4.5C60.3,108.6,62,107.2,64.9,107.2z"/>
	<path class="st1" d="M196.6,107.2c0.7-0.1,1.4,0.1,2.1,0.4c1.4,0.5,2.4,1.8,2.5,3.4c0.3,3.3-1.9,5-4.8,4.9c-0.4,0-0.8-0.1-1.2-0.1
		c-2.2-0.5-3.4-2.3-3.2-4.8c0.2-2,1.7-3.5,3.9-3.7C196.1,107.2,196.4,107.1,196.6,107.2z"/>
	<path class="st1" d="M33.6,131.2c-0.1-1.9-0.7-3.7-1.4-5.4c-1.5-3.1-3.8-5.4-7.2-6.2c-4-0.9-7.6,0-10.8,2.4
		c-0.2,0.2-0.5,0.4-0.8,0.5c-0.1,0-0.1-0.1-0.1-0.1c-0.1-0.4-0.2-0.7-0.3-1.1c-0.3-0.9-0.7-1.2-1.6-1.2c-1.1,0-2.2,0-3.3,0
		c-0.8,0-1.6,0.1-2.2,0.7c0,12.7,0,25.4,0,38c0.5,0.8,1.2,0.9,2,0.9c1.3,0,2.6,0,3.9,0c2.3,0,2.3,0,2.3-2.2v-10.3
		c0-0.3-0.1-0.5,0.1-0.8c1.8,1.4,4,2.3,6.3,2.5c3.2,0.3,6.1-0.5,8.5-2.6c1.8-1.6,3.1-3.7,3.8-6C33.8,137.3,33.8,134.3,33.6,131.2
		L33.6,131.2z M24.9,138.7c-0.3,1.1-0.8,2.1-1.7,2.9c-0.9,0.8-2.1,1.3-3.3,1.3c-1.8,0.1-3.7-0.3-5.3-1.2c-0.4-0.2-0.7-0.6-0.6-1
		v-6.5c0-2.2,0-4.3,0-6.5c0-0.5,0.3-0.9,0.7-1.1c2-0.9,4.1-1.4,6.2-0.9c1.5,0.2,2.8,1.2,3.4,2.6c0.5,1.2,0.9,2.4,0.9,3.7
		C25.6,134.2,25.6,136.5,24.9,138.7L24.9,138.7z"/>
	<path class="st1" d="M295.3,136.9C295.3,136.8,295.3,136.8,295.3,136.9z M295.3,132v0.1c-0.1-0.1-0.2-0.4-0.1-0.5v-0.3c0,0,0,0,0,0
		h0v-0.4h0.1c0,0,0,0,0-0.1c-0.1-0.7-0.2-1.4-0.4-2c-1.3-4.8-4.3-7.9-9.2-9.2c-2.3-0.5-4.6-0.6-6.9-0.3c-4.9,0.7-8.4,3.3-10.1,8
		c-1.7,4.4-1.6,9.3,0,13.7c1.4,4,4.3,6.5,8.5,7.6c2.2,0.5,4.5,0.7,6.8,0.4c7.6-0.9,10.7-6.7,11.3-11.6h0v-0.5c0-0.2-0.1-0.4,0.1-0.5
		v0.1c0,0,0-0.1,0.1-0.1L295.3,132C295.4,132.1,295.3,132.1,295.3,132L295.3,132z M286.6,138.9c-0.2,0.8-0.5,1.4-1,2.1
		c-0.8,1.1-2.1,1.8-3.4,2c-0.7,0.1-1.4,0.1-2.1-0.1c-1.5-0.3-2.8-1.3-3.4-2.7c-0.5-1.1-0.9-2.4-1-3.6c-0.2-2.1-0.2-4.3,0.3-6.4
		c0.2-0.8,0.5-1.7,1-2.4c0.8-1.3,2.2-2.1,3.7-2.2c0.7-0.1,1.4-0.1,2.1,0.1c1.4,0.3,2.6,1.2,3.3,2.6c0.6,1.3,1,2.7,1,4.1
		c0,0.7,0.1,1.3,0,2C287.3,135.9,287.1,137.4,286.6,138.9L286.6,138.9z M231.9,107.4h-5c-1.4,0-1.6,0.3-1.6,1.6v11.7
		c0,0.3,0.1,0.5-0.1,0.8c-0.3,0-0.5-0.3-0.8-0.4c-3.8-2.2-7.7-2.6-11.7-0.8c-2.8,1.3-4.5,3.7-5.6,6.4c-1.1,2.7-1.3,5.5-1.3,8.4
		c0,2.7,0.6,5.3,1.8,7.7c1.4,2.6,3.4,4.7,6.3,5.5c3.9,1.2,7.6,0.6,11-1.9c0.3-0.1,0.4-0.4,0.7-0.5c0.2,0.4,0.3,0.8,0.4,1.3
		c0.1,0.6,0.7,1,1.3,1h0.9c1.3,0,2.6,0,3.8,0c1,0,1.3-0.3,1.3-1.4v-38.1C233.3,107.7,233,107.4,231.9,107.4z M225.3,134.1v6.6
		c0.1,0.4-0.2,0.8-0.6,1c-1.7,1-3.7,1.4-5.7,1.1c-1.7-0.2-3.1-1.2-3.9-2.7c-0.6-1.2-0.9-2.4-1-3.7c-0.3-2.3-0.1-4.6,0.4-6.8
		c0.2-0.6,0.4-1.2,0.7-1.8c0.8-1.4,2.2-2.3,3.8-2.4c1.9-0.2,3.8,0.2,5.6,1c0.4,0.1,0.7,0.6,0.7,1
		C225.2,129.7,225.3,131.8,225.3,134.1L225.3,134.1z"/>
	<path class="st1" d="M131.7,136.5c2.7,0.5,5.5,0.5,8.2,0.1c1.6-0.2,3.1-0.7,4.5-1.4c1.6-0.9,2.8-2.2,3.3-4.1
		c1.3-4.6-0.7-9.2-5.4-10.9c-2.3-0.8-4.8-1-7.2-0.7c-5.7,0.7-9.4,3.8-11.1,9.3c-1.2,3.7-1,7.5-0.1,11.3c1.3,4.8,4.4,7.7,9.3,8.7
		c2.7,0.6,5.5,0.5,8.3,0.1c1.4-0.3,2.9-0.6,4.3-1.2c0.8-0.3,1.3-0.8,1.2-1.8c0-0.9,0-1.8,0-2.7c0-1.1-0.4-1.4-1.5-1.2
		c-1,0.3-2.1,0.5-3.1,0.7c-2.2,0.5-4.6,0.5-6.8,0.1c-3.1-0.6-5.1-3.3-4.9-6.5C131,136.4,131.4,136.5,131.7,136.5z M130.8,131
		c0.1-0.9,0.4-1.7,0.7-2.5c1.1-2.6,3.4-3.5,5.7-3.4c0.7,0,1.3,0.2,1.9,0.4c0.9,0.4,1.6,1.3,1.7,2.3c0.1,0.6,0.1,1.3-0.1,1.9
		c-0.4,1.3-1.5,1.8-2.7,2.1c-0.8,0.2-1.6,0.3-2.4,0.2c-1.4,0-2.9-0.1-4.3-0.3C130.8,131.6,130.8,131.6,130.8,131L130.8,131z"/>
	<path class="st1" d="M253.8,136.9c2.1-0.1,4.2-0.5,6.1-1.6c1.9-0.9,3.3-2.7,3.7-4.8c0.3-1.3,0.3-2.7,0-4c-0.8-3.3-2.8-5.3-5.9-6.3
		c-1.7-0.5-3.6-0.8-5.4-0.7c-6.1,0.1-10.7,3.2-12.6,9.3c-1.3,4-1.1,8.1,0.1,12.1c1.3,4.1,4.2,6.6,8.3,7.7c1.8,0.4,3.6,0.6,5.4,0.5
		c2.6,0,5.3-0.5,7.8-1.5c1-0.4,1.3-0.8,1.3-1.9v-2.6c0-1-0.5-1.4-1.5-1.2c-0.8,0.2-1.6,0.4-2.4,0.6c-2.4,0.6-5,0.7-7.4,0.3
		c-2.5-0.5-4.1-1.9-4.8-4.3c-0.2-0.7-0.3-1.4-0.4-2.2c0.2,0,0.4,0,0.5,0.1C248.9,136.9,251.3,137.1,253.8,136.9z M246.2,131.1
		c0.3-1.4,0.6-2.8,1.4-3.9c1.3-1.8,3.2-2.3,5.3-2.1c0.2,0,0.3,0.1,0.5,0.1c2.5,0.4,3.1,2.4,2.7,4.4c-0.4,1.4-1.6,2-2.9,2.2
		c-0.7,0.1-1.5,0.2-2.2,0.2c-1.5,0-2.9-0.1-4.4-0.4C246.3,131.6,246.1,131.4,246.2,131.1L246.2,131.1z"/>
</g>
<g id="universal">
	<g>
		<path d="M21.3,161.2c-7.2,0-11-4.6-11-13.3l-0.1-20c0-0.2,0.2-0.4,0.4-0.4l6.2-0.6c0.1,0,0.2,0,0.3,0.1c0.1,0.1,0.1,0.2,0.1,0.3
			l0.1,19.8c0,4.3,1.7,6.6,4.9,6.6c0.3,0,0.5,0,0.8,0c3.8-0.4,5.7-3,5.7-7.7l-0.1-19.8c0-0.2,0.2-0.4,0.4-0.4l6.3-0.6
			c0.1,0,0.2,0,0.3,0.1c0.1,0.1,0.1,0.2,0.1,0.3l0.1,20c0,5.4-1.6,14.5-12.8,15.6C22.5,161.1,21.9,161.2,21.3,161.2 M42.6,158.3
			c-0.1,0-0.2,0-0.3-0.1c-0.1-0.1-0.1-0.2-0.1-0.3l-0.2-33c0-0.2,0.2-0.4,0.4-0.4l6.7-0.5c0.1,0,0.3,0,0.4,0.2l14.1,18.6l-0.1-19.4
			c0-0.2,0.2-0.4,0.4-0.4l5.4-0.4c0.1,0,0.2,0,0.3,0.1c0.1,0.1,0.1,0.2,0.1,0.3l0.2,33c0,0.2-0.2,0.4-0.4,0.4l-5.5,0.4
			c-0.1,0-0.3,0-0.4-0.2l-15.2-20.2l0.1,21c0,0.2-0.2,0.4-0.4,0.4L42.6,158.3L42.6,158.3L42.6,158.3z M77.8,156
			c-0.1,0-0.2,0-0.3-0.1c-0.1-0.1-0.1-0.2-0.1-0.3l-0.2-32.9c0-0.2,0.2-0.4,0.4-0.4l7.2-0.4c0.1,0,0.2,0,0.3,0.1
			c0.1,0.1,0.1,0.2,0.1,0.3l0.2,32.9c0,0.2-0.2,0.4-0.4,0.4L77.8,156L77.8,156L77.8,156z M104.2,154.9c-0.2,0-0.3-0.1-0.4-0.3
			l-14-32.5c0-0.1,0-0.3,0-0.4c0.1-0.1,0.2-0.2,0.3-0.2l8.2-0.2c0.2,0,0.3,0.1,0.4,0.3l9.1,21.2l9.4-21.8c0.1-0.1,0.2-0.3,0.4-0.3
			l6.5-0.2c0.2,0,0.3,0.1,0.4,0.2c0.1,0.1,0.1,0.3,0,0.4l-14.4,33.3c-0.1,0.2-0.2,0.2-0.4,0.3L104.2,154.9L104.2,154.9L104.2,154.9z
			 M129.6,154.3c-0.2,0-0.4-0.2-0.4-0.4l-0.2-32.9c0-0.1,0-0.2,0.1-0.3c0.1-0.1,0.2-0.1,0.3-0.1l26.4,0c0.2,0,0.4,0.2,0.4,0.4l0,6.4
			c0,0.1,0,0.2-0.1,0.3c-0.1,0.1-0.2,0.1-0.3,0.1l-18.4,0l0,5.7l12.3,0c0.2,0,0.4,0.2,0.4,0.4l0,6.5c0,0.1,0,0.2-0.1,0.3
			c-0.1,0.1-0.2,0.1-0.3,0.1l-12.3,0l0,6.2l18.6,0c0.2,0,0.4,0.2,0.4,0.4l0,6.4c0,0.1,0,0.2-0.1,0.3c-0.1,0.1-0.2,0.1-0.3,0.1
			L129.6,154.3L129.6,154.3L129.6,154.3z M172.2,135l5.9,0.2c0.3,0,0.5,0,0.8,0c2.2,0,3.4-0.3,4.1-1c0.5-0.5,0.8-1.4,0.8-2.8
			c0-1.6-0.3-3-3.9-3.1l-7.6-0.2L172.2,135z M193.1,155.3L193.1,155.3l-8.5-0.3c-0.1,0-0.3-0.1-0.4-0.2l-7.2-12.4l-4.7-0.1l0.1,12
			c0,0.1,0,0.2-0.1,0.3c-0.1,0.1-0.2,0.1-0.3,0.1l-7.2-0.2c-0.2,0-0.4-0.2-0.4-0.4l-0.2-33c0-0.1,0-0.2,0.1-0.3
			c0.1-0.1,0.2-0.1,0.3-0.1l18.1,0.5c6,0.2,9.5,4,9.5,10.5c0,6.3-3.3,8.9-6.4,10l7.6,13.1c0.1,0.1,0.1,0.3,0,0.4
			C193.4,155.2,193.3,155.3,193.1,155.3 M211.8,157.2c-0.5,0-0.9,0-1.4,0c-5.1-0.3-10.4-3.5-11.9-4.4c-0.1-0.1-0.2-0.2-0.2-0.4
			l0-7.6c0-0.2,0.2-0.4,0.4-0.4c0.1,0,0.2,0,0.2,0.1c4.6,3.1,9,5.1,11.5,5.2c2.4,0.1,3.9-0.2,4.7-1c0.4-0.4,0.6-0.9,0.6-1.5
			c0-0.7-0.8-1.5-2.4-2.3c-1-0.5-2.1-1-3.3-1.5c-5.1-2.1-12.2-5-12.2-12.8c0-2.6,0.8-4.8,2.4-6.4c2.1-2.1,5.5-3.2,9.3-3
			c4.4,0.2,9.8,2.5,12.2,4c0.1,0.1,0.2,0.2,0.2,0.4l0,7.4c0,0.2-0.1,0.3-0.2,0.4c-0.1,0.1-0.3,0.1-0.4,0c-1.5-1-6.9-4.3-11.8-4.6
			c-1.7-0.1-2.6,0.4-3,0.8c-0.4,0.4-0.4,0.7-0.4,0.9c0,0.8,0.8,1.6,2.4,2.5c1,0.5,2.2,1,3.5,1.6c5.1,2.1,12,5.1,12,12.1
			c0,3.1-0.9,5.6-2.7,7.4C219.3,156.1,216.1,157.2,211.8,157.2 M238.2,143.9l6,0.4l-2.9-8.1L238.2,143.9z M256.9,159.3
			C256.9,159.3,256.9,159.3,256.9,159.3l-7.1-0.5c-0.2,0-0.3-0.1-0.4-0.3l-2.4-6.6l-11.5-0.9l-2.4,6.2c-0.1,0.2-0.2,0.3-0.4,0.3
			l-5.9-0.4c-0.1,0-0.3-0.1-0.3-0.2c-0.1-0.1-0.1-0.3,0-0.4l12.8-32.3c0.1-0.2,0.2-0.3,0.4-0.3l5,0.4c0.2,0,0.3,0.1,0.4,0.3
			l12.5,34.2c0.1,0.1,0,0.3,0,0.4C257.1,159.2,257,159.3,256.9,159.3 M282.3,161.7L282.3,161.7l-20.5-1.9c-0.2,0-0.4-0.2-0.4-0.4
			l-0.2-33.4c0-0.1,0-0.2,0.1-0.3c0.1-0.1,0.2-0.1,0.3-0.1l6.2,0.6c0.2,0,0.4,0.2,0.4,0.4l0.1,26.5l13.9,1.3c0.2,0,0.4,0.2,0.4,0.4
			l0,6.5c0,0.1,0,0.2-0.1,0.3C282.6,161.6,282.5,161.7,282.3,161.7 M60.3,226.5l0.8,1.6h-1.6L60.3,226.5z M59.9,224.4l-3,6.1h1.5
			l0.6-1.2h2.8l0.6,1.2H64l-2.9-6.1H59.9z M78.5,230.7c-1.7,0-3.4-1-3.4-3.2c0-2.2,1.7-3.2,3.4-3.2c1.1,0,2.1,0.4,2.3,0.5l0.2,0.1
			v1.4l-0.4-0.2c-0.2-0.1-1.1-0.5-2.1-0.5c-1.4,0-1.8,1.2-1.8,2c0,0.7,0.4,1.9,1.8,1.9c1.1,0,1.6-0.3,1.9-0.4l0.6-0.3v1.5l-0.3,0.1
			C80.2,230.5,79.6,230.7,78.5,230.7 M88.9,225.5c-1.4,0-1.8,1.2-1.8,2c0,0.7,0.4,1.9,1.8,1.9c1.4,0,1.8-1.2,1.8-1.9
			C90.7,226.8,90.3,225.5,88.9,225.5 M88.9,230.7c-1.7,0-3.4-1-3.4-3.2c0-2.2,1.7-3.2,3.4-3.2c1.7,0,3.4,1,3.4,3.2
			C92.3,229.7,90.6,230.7,88.9,230.7 M98.6,230.5v-3.1l1.5,3.1h0.9l1.5-3v3h1.6v-6.1h-1.5l-1.8,3.8l-1.9-3.8h-1.5v6.1H98.6z
			 M112.4,230.7c-1.7,0-3.4-1-3.4-3.2c0-2.2,1.7-3.2,3.4-3.2c1.1,0,2.1,0.4,2.3,0.5l0.2,0.1v1.4l-0.4-0.2c-0.2-0.1-1.1-0.5-2.1-0.5
			c-1.4,0-1.8,1.2-1.8,2c0,0.7,0.4,1.9,1.8,1.9c1.1,0,1.6-0.3,1.9-0.4l0.5-0.3v1.5l-0.3,0.1C114.1,230.5,113.5,230.7,112.4,230.7
			 M122.3,226.5l0.8,1.6h-1.6L122.3,226.5z M121.9,224.4l-3.1,6.1h1.5l0.6-1.2h2.8l0.6,1.2h1.7l-2.9-6.1H121.9z M132.7,230.7
			c-0.8,0-1.8-0.3-2.4-0.6l-0.1-0.1v-1.5l0.4,0.2c0.6,0.3,1.6,0.7,2.2,0.7c0.8,0,1.2-0.2,1.2-0.6c0-0.3-0.7-0.5-1.5-0.8l-0.1,0
			c-1.2-0.4-2.2-0.9-2.2-2.1c0-1.1,1-1.7,2.5-1.7c0.9,0,2,0.3,2.5,0.5l0.1,0.1v1.4l-0.4-0.2c-0.3-0.2-1.3-0.5-2.2-0.5
			c-0.5,0-0.8,0.2-0.8,0.4c0,0.3,0.5,0.5,1.3,0.8c0.2,0.1,0.4,0.1,0.6,0.2c0.6,0.2,1.9,0.6,1.9,1.8
			C135.6,229.4,135.2,230.7,132.7,230.7 M143.5,225.7h2.1v-1.2h-5.8v1.2h2.1v4.9h1.6V225.7z M160.1,230.7c-1.7,0-3.4-1-3.4-3.2
			c0-2.2,1.7-3.2,3.4-3.2c1.1,0,2.1,0.4,2.3,0.5l0.1,0.1v1.4l-0.4-0.2c-0.2-0.1-1.1-0.5-2.1-0.5c-1.4,0-1.8,1.2-1.8,2
			c0,0.7,0.4,1.9,1.8,1.9c1.1,0,1.6-0.3,1.9-0.4l0.5-0.3v1.5l-0.3,0.1C161.8,230.5,161.2,230.7,160.1,230.7 M170.5,225.5
			c-1.4,0-1.8,1.2-1.8,2c0,0.7,0.4,1.9,1.8,1.9c1.4,0,1.8-1.2,1.8-1.9C172.3,226.8,171.9,225.5,170.5,225.5 M170.5,230.7
			c-1.7,0-3.4-1-3.4-3.2c0-2.2,1.7-3.2,3.4-3.2c1.7,0,3.4,1,3.4,3.2C173.9,229.7,172.2,230.7,170.5,230.7 M180.1,230.5v-3.1l1.5,3.1
			h0.9l1.5-3v3h1.6v-6.1h-1.5l-1.8,3.8l-1.9-3.8h-1.5v6.1H180.1z M192.4,227.6h1.2c1.1,0,1.3-0.2,1.3-1.1c0-0.4-0.1-0.8-1-0.8h-1.5
			V227.6z M192.4,230.5h-1.6v-6.1h3.3c1.6,0,2.4,0.7,2.4,2.1c0,2.1-1.4,2.3-2.7,2.3h-1.5L192.4,230.5z M203.9,226.5l0.8,1.6h-1.6
			L203.9,226.5z M203.5,224.4l-3,6.1h1.5l0.6-1.2h2.8l0.6,1.2h1.7l-2.9-6.1H203.5z M213.3,230.5v-4l3.5,4h1.3v-6.1h-1.3v3.7
			l-3.3-3.7H212v6.1H213.3z M225.3,230.5h1.6v-2.2l2.9-3.9h-1.6l-1.9,2.5l-1.8-2.5h-1.9l2.8,3.9V230.5z M161.2,73.9
			c-3.5-0.8-7.3-0.2-7.2-0.1c-0.4-0.1-1.1-0.4-1.5-0.3c-0.1,0-0.1,0-0.1,0c0.1,0,0.2,0.1,0.2,0.1c-0.2,0.1-0.3,0-0.5-0.1
			c0.1,0.2,0.1,0.1,0,0.3c0,0,0,0,0,0.1c0.6,0.1,1.1,0.3,1.9,0.3v0c-0.2-0.2-0.5-0.2-0.7-0.4h-0.1v0c0.5,0.1,0.9,0.3,1.3,0.6
			c0,0,0.1-0.1,0.2-0.1c-0.1,0.2-0.3,0.3-0.2,0.5c-0.8-0.1-1.5-0.4-1.8,0.5c0.1,0.1,0.2,0.2,0.3,0.2c-0.1,0-0.1,0-0.2,0.1
			c0,0.1,0,0.1,0,0.2c0.3,0.3,0.5,0.5,0.9,0.6c0,0.2,0,0.3,0.1,0.5c0.1,0.1,0.1,0.1,0.2,0c0.2,0.2,0.1,0.3,0.1,0.4
			c0.2,0.3,1.1,0.7,1.3,1c0.1,0.1,0,0.3,0.2,0.3c0.3,0.2,0.7,0.3,0.9,0.6c0.1,0.1,0,0,0,0.1c0.6,0.3,1.6,0.3,2.1,0.6
			c0.1,0.1,0,0,0,0.2c0.5,0.1,1.1,0.3,1.6,0.4c0,0,0.1,0,0.1,0c0-0.1,0-0.1,0-0.3c0.3-0.2,0.4-0.5,0.6-0.8c-0.1-0.2-0.2-0.2-0.1-0.5
			c0.4-0.1,0.6-0.3,1-0.4c0-0.2,0-0.3-0.2-0.4c0.1-0.1,0.1,0,0.2,0c0,0,0.1-0.1,0.1-0.1c-0.1-0.1-0.2-0.2-0.4-0.3h-0.1v0
			c0.2,0.1,0.4,0.1,0.7,0.1c0,0,0.1,0,0.1,0c-0.1-0.1-0.1-0.1-0.2-0.2c0,0,0,0,0,0c0.3,0.2,0.5,0.2,1,0.2c0-0.1,0.1-0.2,0.1-0.3
			c0.1,0,0.1,0,0.2,0c-0.1,0.1-0.1,0.2-0.2,0.3c0,0,0,0.1,0,0.1c0.9,0.2,1.6-0.1,2.4-0.3v-0.2c1.1-0.3,2.6,0.3,3.6,0.3
			C169.6,77.5,165.5,74.9,161.2,73.9 M114.4,160.9c0.5,0.8,0.9,1.8,1.5,2.5c1.3,1.3,3.4,2,4.2,3.7c0.4,0.4,0.8,0.8,1.1,1.1
			c0,0.2,0,0.4-0.1,0.5c0.1,0.5,0.3,1.3,0.2,1.8c0,0.3-0.1,0.6-0.1,0.9c0,0.2,0.1,0.3,0.1,0.5c-0.1,0.5-0.3,1.1-0.3,1.7
			c-0.2,0.1-0.1,0-0.3,0c0,0.2,0,0.4,0,0.6h0.2c0,0.4-0.1,0.7-0.1,1.1c0,0.4,0.1,0.7,0.1,1.1c0,0.1-0.3,0.2-0.3,0.4
			c0,0.1,0.1,0.3,0.1,0.4c-0.1,0.7-0.2,1.3-0.4,1.8c-0.2,0.4,0,0.9-0.4,1.1c0.1,0.6,0.3,0.9,0.2,1.5c-0.2,0-0.1,0-0.3,0
			c-0.1,1.3,0.6,2.1,0.2,3c0.1,0,0.2,0.4,0.2,0.6c-0.3,0.9-0.7,1.7-0.8,2.7c0,0-0.1-0.1-0.1-0.1c0,0.2,0,0.4,0,0.5
			c-0.1,0-0.2-0.1-0.4-0.1c0,0,0,0,0,0c0.1,0.7,0.4,1.5,0.7,2.1c0,0.8-0.5,1.1,0.1,2v0.2c-0.1,0-0.1-0.1-0.2-0.1
			c-0.1,0.4,0.1,0.8,0,1.2c0.1,0.2,0.3,0.2,0.5,0.3c0,0,0.1,0,0.1,0c0.1-0.4,0-0.9-0.2-1.2c0,0,0.1,0,0.1-0.1c0.1,0,0.2,0.1,0.3,0.1
			h0c0-0.2,0.1-0.1-0.1-0.2c0,0,0-0.1,0.1-0.2c0.1,0.1,0.1,0.2,0.2,0.2c0,0-0.1,0.1-0.1,0.2c0.2,0.1,0.3,0.6,0.1,0.7
			c0.1,0.1,0.1,0.1,0.2,0.2c-0.1,0.7,0,1.1,0,1.9h-0.1c-0.1-0.2-0.2-0.8-0.1-0.9c-0.2-0.2-0.3-0.3-0.6-0.4c-0.1,0.2-0.2,0.5-0.2,0.7
			c0.1,0.1,0.2,0.2,0.3,0.3c0,0.2,0,0.4,0,0.6h-0.3v0c0,0.1,0.1,0.2,0.1,0.2c-0.1,0.1-0.2,0.2-0.3,0.2v0.2c0.1,0.1,0.2,0.1,0.3,0.2
			c0.1,0,0.1-0.1,0.2-0.2c0.2,0.2,0.5,0.2,0.7,0.4c0,0-0.1,0-0.2,0c0.1,0.1,0,0.1,0.1,0.2c0,0.1-0.1,0.3-0.1,0.4
			c-0.1-0.1-0.2-0.1-0.4-0.2v0c0,0,0.1,0.1,0.1,0.1c-0.1,0-0.1,0.1-0.2,0.1c0.2,0.4,0.3,1,0.5,1.3c0.2,0.1,0.4,0.2,0.6,0.3
			c-0.1,0-0.2-0.1-0.3-0.1v0c0,0.2,0.1,0.3,0.1,0.5c0.1,0,0.1,0.1,0.2,0.1c0.1-0.1,0.1-0.2,0.2-0.4c0,0.1,0.1,0.2,0.1,0.3h-0.2
			c0,0,0,0,0,0c0.2,0.2,0.2,0.3,0.2,0.7c0.2,0,0.3-0.1,0.5-0.2c0.1,0.1,0.1,0.1,0.2,0.2l-0.1,0.2c-0.1,0-0.3-0.1-0.4-0.1
			c0,0,0,0,0,0.1c0.1,0.3,0.3,0.4,0.6,0.6c0,0,0-0.1-0.1-0.2c0.2,0.2,0.4,0.4,0.7,0.6v0c-0.2-0.1-0.4-0.2-0.6-0.3
			c0.3,0.3,0.5,0.4,0.8,0.5c0,0.1,0,0,0,0.1c0.3,0.3,1.6,1.1,1.9,1.1c0,0.2,0,0,0,0.2c0.4,0.4,1.6,0.8,2.2,0.9v0
			c-0.1-0.1-0.2-0.2-0.3-0.3c0.4,0.1,0.7,0,1,0.3v-0.2c0.2,0,0.4,0.1,0.5,0.1h0c0,0,0,0,0-0.1v-0.1c-1.1-0.1-1.4-1.1-2.3-1.3
			c0,0,0.1-0.1,0.1-0.2c-0.2-0.3-0.6-0.2-0.8-0.5c0,0-0.1,0-0.1,0c0,0,0.1,0,0.1-0.1c0.2,0.1,0.4,0.2,0.6,0.2v0
			c-0.3-0.4-0.8-0.7-0.9-1.3c0,0,0,0,0-0.1c0.2,0,0.4-0.1,0.5-0.1c0.1-0.1,0.1-0.3,0.1-0.6c0.3-0.2,0.8-0.3,1-0.5
			c0.1-0.1,0.1-0.3,0-0.6c-0.6-0.4-1.6-0.6-1.4-1.5c0.3-0.2,0.7-0.3,1.1-0.2h0.2c-0.1-0.2,0-0.1-0.1-0.2c0.1-0.2,0.1-0.1,0.3-0.2
			c0-0.2,0-0.5-0.1-0.7c0.2-0.2,0.3-0.3,0.7-0.4c-0.1-0.2-0.3-0.2-0.5-0.4c0,0-0.1,0-0.1,0c0.1,0,0.2-0.1,0.3-0.1
			c0.2,0.1,0.3,0.2,0.4,0.4c0.1,0,0.2,0,0.3,0c0,0,0.1-0.1,0.1-0.1c0-0.2,0-0.4-0.1-0.5c0,0-0.1-0.1-0.1-0.1c-0.1,0-0.3,0-0.4,0
			c0.1,0,0.1,0.1,0.2,0.2v0c-0.1,0-0.2,0-0.3-0.1c-0.1-0.1-0.1-0.2-0.4-0.3c-0.1-0.2-0.1-0.7-0.2-1c0.3-0.4,1,0.4,1.4,0.5
			c0.3,0,0.6,0,0.9,0l0.2-0.5c0,0-0.1,0.1-0.2,0.1c-0.1,0-0.1-0.1-0.2-0.2c0.2-0.3,0.5-0.6,0.3-1c0.1,0,0.1,0,0.2,0.1h0
			c0-0.1,0-0.2-0.1-0.2c0.6,0.2,3.1,0.6,3.8,0.2c0.2-0.1,0.8-0.8,1-1v-0.6c-0.3-0.1-0.5-0.1-0.5-0.6c0.1-0.1,0.2-0.2,0.3-0.3
			c-0.2-0.7-0.9-0.8-1.2-1.3c0.1-0.1,0.1-0.1,0.2-0.2c0,0,0.1,0,0.1,0c0.1,0.2,0.2,0.2,0.3,0.5c0.2,0,0.5,0.1,0.7,0.2
			c0.2,0.1,0.5,0.6,0.8,0.7c0.2,0,0.4-0.1,0.7,0c0.2,0.1,0.3,0.3,0.6,0.3c0.8-0.1,0.9-0.5,1.4-0.8c0.3-0.1,0.6-0.2,0.8-0.4
			c0.2-0.3,0.4-0.5,0.6-0.8c0.5-0.2,1.1-0.5,1.6-0.7c0.6-0.4,1-1.2,1.5-1.6c0.7-0.6,1.6-0.7,1.9-1.7c-0.1,0-0.1,0-0.2,0
			c0.1-0.4,0.1-0.9,0.4-1.5c0.2-0.4,2.9-1.8,3.7-1.6c0.2,0.1,0.3,0.2,0.5,0.4c0-0.1,0.1-0.2,0.1-0.3c-0.1,0-0.1,0-0.2-0.1v0
			c0.4-0.1,0.7-0.6,1.1-0.5c0.1-0.1,0.1-0.1,0-0.2v-0.1c0.7,0,2.2,0.3,2.8,0.6c0.1-0.1,0.1-0.1,0.2-0.2c0-0.6,0.7-0.4,1.2-0.6
			c0.3-0.2,0.3-1,0.8-1.2c0.7-0.4,0.7-0.6,1.2-1c0.2-0.1,0.4-0.1,0.6-0.4c0.5-0.9,0.2-1.2,1.3-1.6c0.2-0.6,0.3-1.1,0.7-1.5
			c0.2-0.2,0.3-0.4,0.5-0.6c0.2-0.5,0.1-1,0.3-1.4c0.2-0.5,0.7-0.9,0.7-1.5c0.5-0.3,0.9-0.2,1.4-0.5c0.7-0.6,1.3-1.2,2-1.8
			c0.2,0,0.5-0.1,0.7-0.1c0.3-0.2,0.6-0.5,0.9-0.7c1.1-0.7,2-1.3,2.4-2.7c0-0.3,0-0.5,0-0.8c0.1-0.5,0.7-3.8,0.7-3.8
			C137,160.5,114.4,160.9,114.4,160.9 M141.5,75.8c0.5,0.1,1.1,0.1,1.7,0.4c0.6,0.2,0.7,0.6,1.3,0.7c-0.1,0.1-0.2,0-0.4,0
			c0.1,0.2,0.3,0.4,0.6,0.4c-0.1,0-0.1,0.1-0.2,0.1c0.2,0.1,0.3,0.3,0.5,0.3h0.2c0-0.2,0-0.1-0.1-0.2v0c1.1,0.4,2.2,1.2,3.5,1.4
			c0.1-0.2,0-0.1,0.2-0.1v0c-0.4-0.5-1.3-1.1-1.9-1.3c0,0,0-0.1,0-0.1c0.2,0.1,0.5,0.3,0.7,0.4v-0.2c0.7,0.4,1.5,0.9,2.2,1.3
			c0.1,0,0.1,0,0.2,0h0.1c0,0,0,0,0,0c-0.3-0.2-0.4-0.1-0.5-0.4c0.1,0,0.2,0.1,0.3,0.1c0,0,0,0,0,0c0-0.1,0-0.2-0.1-0.3
			c0,0,0-0.1,0-0.1c0.1,0.1,0.1,0,0.1,0.1c0.2,0,0.2,0,0.3-0.2c0.1,0.2,0.1,0.2,0.2,0.2h0c0-0.1-0.1-0.1-0.1-0.1h0.3c0,0,0,0,0-0.1
			c-0.2-0.1-0.4-0.3-0.7-0.4c0,0,0,0,0-0.1c0.1,0,0.2,0,0.2,0v0c-0.2-0.2-0.9-0.7-1.4-0.7c0-0.2-0.1-0.5-0.4-0.6h0.3c0,0,0,0,0-0.1
			c-0.1-0.1-0.1-0.1-0.2-0.1c0.5,0,1,0.5,1.4,0.5c-0.2,0.5,0.9,0.7,1.2,0.9c0.3,0,0.2-0.1,0.4-0.1c0,0-0.1-0.1-0.1-0.1
			c0.1-0.1,0-0.1,0.1-0.1c0.2,0.1,0.4,0.2,0.6,0v0.1c0.1,0,0.2,0,0.3,0c0,0-0.1-0.1-0.1-0.2c0.1-0.1,0,0,0.2,0c0,0,0.1,0,0.1,0
			c0-0.1-0.1-0.2-0.2-0.2c0.4,0.1,0.5,0.1,0.8,0c-0.1-0.3-0.5-0.5-0.9-0.4c-0.1-0.1,0,0,0.1-0.1c-0.1,0-0.3,0-0.4,0
			c-0.1-0.1-0.2-0.3-0.7-0.3c0.1-0.1,0,0,0.2-0.1c-0.1-0.1-0.5-0.3-0.7-0.3c0,0,0,0-0.1-0.1c0.1,0,0.1,0,0.2-0.1
			c-0.4-0.1-0.5-0.2-0.8-0.1c-0.2-0.2-0.2-0.3-0.6-0.3c0,0,0.1-0.1,0.1-0.1c-0.3-0.1-0.6-0.2-0.9-0.2v0c0.1,0,0.2,0,0.2,0
			c0-0.1,0-0.1,0-0.2c0.3,0.1,0.6,0.2,0.9,0.2c0,0,0,0,0.1-0.1c-0.2-0.2-0.4-0.3-0.7-0.3c0,0,0-0.1,0-0.1c0.1,0,0.3,0.1,0.4,0.1
			c0,0,0,0,0,0v-0.1c-0.3-0.3-0.4-0.3-1-0.2c0.1-0.2,0.2-0.1,0.4-0.1c0,0,0,0,0,0c-0.4-0.3-1-0.2-1.4-0.4c0,0-0.4-0.4-0.4-0.5
			c-0.3-0.2-1.3-0.4-1.5-0.4c0,0,0.1-0.1,0.1-0.1c-0.4-0.2-0.8-0.3-1.2-0.5h0.3v0c-0.2-0.3-2,0.5-2.3,0.9c-0.1-0.1,0.7,0.7,0.5,0.6
			c0,0-0.1,0.1-0.1,0.1h-0.1c0.1,0.2,0.9,0.1,1.1,0.2c0,0,0,0,0,0.1c-0.2,0.1-0.2,0-0.4,0h-0.1c0.1,0.3,0.4,0.2,0.6,0.1
			c0,0.1,0.1,0.2,0.1,0.3c-0.2-0.1-0.3-0.1-0.5-0.1c0.1,0.3,0.6,0.3,0.9,0.3c0-0.1,0-0.1,0-0.2c-0.1,0-0.3-0.1-0.4-0.1
			c0-0.1,0-0.2,0-0.2c0.2,0.1,0.3,0.2,0.7,0.3c0.1,0.2,0.1,0.4,0.2,0.6c-0.6,0.1-1.2,0.1-1.9,0.2c0,0,0,0,0,0.1
			c0.1,0.1,0.3,0.3,0.4,0.4v0c-0.4-0.1-0.9,0-1.3-0.1c-0.9-0.1-1.5-0.6-2.4-0.1c0,0,0,0.1,0,0.1C140.3,75.9,141,75.7,141.5,75.8
			 M115.6,103.6c0.3,0.2,1.1-0.2,1.5-0.2c0.2,0.2,0.6,1.2,0.8,1.2c0.3,0.7-0.6,1.1-0.5,1.7c0,0,0,0,0.1,0c0.2-0.1,0.1-0.1,0.1-0.3
			c0,0,0,0,0.1,0c0.1,0.2,0,0.2,0.2,0.2c-0.1,0.1-0.3,0.2-0.4,0.3c-0.1,0.2,0,0.5,0.1,0.9c0.1,0,0.1,0.1,0.2,0.1c0,0,0-0.1,0.1-0.2
			c0,0,0,0,0,0.1c-0.2,0.2-0.2,0.3-0.3,0.5c0.1,0,0.1,0,0.2,0c0.1,0.1,0.1,0.2,0.1,0.4c0,0.6,0.6,0.6,0.4,1.2
			c0.2,0.3,0.9,0.1,1.1,0.1c0-0.5,0.6-1,0.8-1.5c0.3-0.6,0-1.4,0-2.2c0.1,0,0.2-0.1,0.2-0.1c-0.1-0.6-0.2-1.1-0.3-1.7
			c0.2-2.1,1.9-2.7,3.6-3.2c0.8-0.2,0.5-0.9,2-0.6c0.4-0.7,1.6-0.6,2.3-0.7c0,0,0-0.1,0-0.1c-0.2-0.1-0.1,0-0.2-0.2v0
			c0.2-0.1,0.8-0.2,1-0.2c0.1-0.1,0.1-0.2,0.2-0.3c-0.1-0.2-0.4-0.3-0.7-0.3v0c0.3,0,0.5,0.1,0.8,0.1v0.3c0,0,0.1-0.8,0.1-1.2
			c-0.1,0-0.2-0.1-0.2-0.1c-0.1-0.1,0,0,0-0.2c0-0.2,0.3-0.6,0.4-0.7c-0.1-0.1,0-0.7,0-0.9c0.2-0.2,0.4-0.3,0.6-0.5
			c-0.5,0.6-0.2,0.6-0.4,1.4c0.1,0,0.2,0.1,0.4,0.1c-0.2,0.2-0.5,0.3-0.6,0.6c0,0,0,0,0,0.1c0.1,0.1,0,0.1,0.2,0.1
			c0.2-0.5,1.1-0.8,1.6-1.5c-0.3-0.3-0.1-0.4-0.2-0.8c0.2,0.2,0.3,0.3,0.6,0.4c0,0.1-0.1,0.1-0.2,0.2v0c0.6,0.1,1.4-0.7,1.7-1.1
			c0-0.2,0-0.1-0.1-0.2c0,0,0,0,0-0.1c0.7-0.1,1.7,0.1,2.5,0c-0.1-0.1-0.1-0.2-0.2-0.2c-0.6,0.1-1.1-0.2-1.7,0
			c0.7-0.6,2.8,0.2,3.8-0.1c0.1,0.3,0.3,0.2,0.8,0.3c0-0.1,0.1-0.2,0.2-0.2c0-0.1-0.1-0.1-0.1-0.2c-0.1,0.2,0,0.2-0.2,0.2
			c-0.1,0-0.2,0-0.3,0c-0.1-0.2,0-0.6-0.4-0.6v-0.1c0.2,0,0.4-0.1,0.6-0.1c-0.1-0.1-0.1-0.2-0.2-0.2c0.3-0.3,0.8-0.5,1.1-0.8
			c0.6,0.1,1,0.1,1.6-0.2c0.1,0.1,0.1,0.1,0.1,0.2c0.8-0.1,1.5,0,2.3-0.2c0-0.1-0.1-0.2-0.1-0.2c0.1,0,0.5,0.1,0.6,0.2
			c0.6,0.1,1.8,0,2.3-0.2c0,0,0,0,0.1,0.1c-0.2,0-0.4,0.1-0.6,0.1c0,0,0,0,0,0.1c0.2,0,0.4,0.1,0.6,0.1c-0.8,0.1-1.5,0.2-2.3,0.4
			l0,0.1c0.1,0,0.2,0,0.3-0.1c-0.1,0-0.1,0-0.2,0.1c-0.2,0.2-0.2,0.2-0.2,0.7c0.1,0,0.2,0,0.2,0c0.2,0.2,0.1,0.4,0.4,0.4
			c0.6,0,1.1-0.3,1.7-0.4c0.1-0.2,0-0.2,0.2-0.3c0,0,0.1,0.1,0.1,0.1c0,0,0.1-0.1,0.2-0.1c0.1,0.3,0.2,0.3,0.4,0.3
			c0.3-0.3,2.5,0.1,3.1-0.1c0,0,0,0,0.1,0c-0.1-0.1-0.2-0.2-0.5-0.2c0.1-0.1,0.1,0,0.2-0.2c0.5,0.2,1,0.1,1.7,0.1v-0.1
			c0-0.2-0.3-0.4-0.6-0.4v0c0.1-0.1,0.2-0.3,0.3-0.4c-0.1-0.1-0.1-0.1-0.1-0.2c-0.1,0-0.2,0-0.2-0.1c-0.4,0.2-1.3,0.4-1.3,1
			c-0.3,0-0.4,0-0.4-0.3c-0.9,0.1-1.3-0.4-2-0.5c-0.1-0.1-0.1-0.1-0.2-0.2c0.1,0,0.1,0,0.2,0c0,0,0-0.1,0-0.1
			c-0.2-0.1-0.5-0.2-0.7-0.3c-0.1-0.1-0.3-0.5-0.4-0.6c0.1,0,0.1-0.1,0.2-0.1c-0.1-0.1-0.2-0.1-0.4-0.1v-0.1c0.4-0.1,0.6-0.3,1-0.4
			c0-0.1,0.1-0.1,0.1-0.1v0c-0.4,0.1-0.8,0-1.4,0c-0.1-0.3-0.3-0.4-0.6-0.4c0,0,0,0,0-0.1c0.5,0.1,0.7,0.3,1.2,0.3
			c0.4,0,0.8-0.1,1.2-0.2v-0.1c0.1-0.1,0-0.1,0-0.2c0.1,0,0.1,0,0.2,0v0c-1-1.3-4.4-0.8-5.9-0.6c-0.6,0.1-1,0.7-1.8,0.7
			c0.3-0.3,2.4-1.1,3.1-1.3c0,0,1.3,0.1,1.4,0.1c0.1-0.1,0.2-0.3,0.4-0.4c0.5-0.3,1.3-0.2,2,0c0.9,0.3,1.8,0.4,2.7,0.7
			c0.6,0.2,2.3,0.9,2.9,0.8c0.5-0.1,0.9-0.2,1.3-0.4c1-0.4,2.9,0.6,3.5-0.1c0-0.1,0,0,0-0.2c0,0,0,0,0.1,0c0.1-0.2,0-0.8,0.1-1
			c-0.2-0.1-0.5-0.2-0.7-0.3c0-0.1,0,0,0-0.2c-0.4,0-0.4-0.1-0.7-0.1c-0.1-0.5-0.5-0.6-1-0.7v0c0.3,0,0.7,0.1,1,0.1
			c-0.2-0.3-0.6-0.3-0.7-0.6c-0.3-0.1-0.6,0-0.9-0.2c-0.1-0.1-0.1-0.1-0.1-0.2c-0.2-0.1-0.6-0.1-0.8-0.2c-0.2-0.2-0.2-0.3-0.5-0.4
			c0-0.2-0.1-0.1,0-0.2c0-0.1-0.7-0.6-1-0.6c0.1-0.1,0.1-0.1,0.2-0.1c0-0.1,0-0.3,0-0.6c-0.1,0-0.2-0.1-0.3-0.1c0,0,0.1-0.2,0.1-0.5
			c-0.4-0.1-0.7-0.3-0.7-0.7h-0.2c-0.2-0.4-1.1-1.5-1.1-1.9c-1,0.3-2.2,1.8-3.5,0.8c-0.2,0-0.4-0.3-0.8-0.4c0-0.1,0-0.2,0-0.3
			c-0.1,0-0.2,0-0.3,0c0.1-0.3,0.2-0.4,0.2-0.8c0.1,0,0.3-0.1,0.4-0.2c0-0.1-0.1-0.1-0.1-0.2c-0.1,0-0.2,0.1-0.4,0.1
			c-0.3-0.3-0.8-0.4-1.3-0.5c0,0,0-0.1,0-0.1v0c0.1-0.1,0.1-0.1,0.2-0.1v0c-0.3-0.3-0.9-0.7-1.3-0.9l-1,0c-0.8-0.3-1.6-0.6-2.4-0.6
			c-0.1,0.1-0.2,0.1-0.2,0.2c0,0,0,0.1,0,0.1c0.1,0.1,0.1,0.1,0.2,0.1c-0.2,0.2-0.4,0.3-0.7,0.4c0.3,0.4,0.1,0.4,0.3,0.6
			c-0.1,0.1-1.1,0.5-1.4,0.5c0,0.1-0.1,0.1-0.1,0.2c0.5,0.2,0.9,0.5,1,1.2c-0.4,0.9-1.4,1.1-2.5,1.3c-0.4,0-0.8,0-1.2,0H134
			c0,0.2,0,0.4,0.2,0.5c-0.2,0.4-0.6,0.9-0.4,1.4c-0.2,0.2-0.5,0.4-0.8,0.4c0,0.1,0,0.2,0,0.3c-0.1,0-0.1,0-0.2,0
			c0-0.1-0.1-0.1-0.2-0.3c-0.3,0-0.5,0.2-0.7,0.3c-0.1-0.1-0.3-0.1-0.4-0.2c-0.1-0.6-0.5-1-0.8-1.6c0.2-0.2,0.4-0.3,0.5-0.6
			c0-0.1,0-0.2,0-0.3c0.2-0.2,0.5-0.3,0.6-0.6c-0.8-0.1-3.2-0.8-3.6-1.2c-0.2-0.1-0.2-0.5-0.5-0.7c-0.4-0.2-0.7-0.3-1.1-0.5
			c-0.4,0-0.8,0-1.2,0h-0.1c0.3-0.3,0.5-0.7,0.7-1.1c-0.2-0.1-0.5-0.1-0.8-0.1c0-0.1,0-0.1,0-0.2c0.8-0.9,3.3-1.8,4.3-1.7
			c0,0-0.1-0.1-0.2-0.2c0.4,0,0.8,0.1,1.2,0c0.1-0.2,0.1-0.2,0-0.4h-0.1v0c0.6,0.2,2.7,0.2,3.6-0.3c0.1-0.1,0,0,0-0.1
			c0.4-0.1,0.8-0.2,1.2-0.3h0.1c0,0,0,0,0,0c-0.1-0.1-0.1-0.1-0.3-0.1c0,0,0,0,0-0.1c0.3,0,0.6,0,0.8,0.1c0,0.2,0.6,0.6,0.8,0.7
			c0.1-0.1,0,0,0-0.1c0,0,0,0,0,0c-0.1,0,0,0-0.2,0c-0.1-0.2-0.1-0.2-0.3-0.3v0c0.1,0.1,0.3,0.1,0.4,0.2c0-0.1,0-0.2,0-0.3
			c0.2,0.1,0.3,0.2,0.5,0.3V74c0.7-0.2,1.3-0.1,1.8-0.3c-0.1-0.1-0.2-0.2-0.3-0.3c0,0-3.7-2.1-8-2c-2.8,0.1-12.8,3.5-20.7,7.5
			c-6,3.1-10.7,6.9-11,7.1c-2.4,2.1-4.7,4.7-5.9,7.8c-0.1,0.2-0.3,0.3-0.4,0.5c-0.1,0.2-0.8,2-0.8,2.1c0.1,0,0.2,0,0.3,0
			c-0.1,0.5,0.2,0.5,0.1,1.2c-0.2,0.9-0.9,2.1-1.2,3.1c-0.1,0.2-0.3,0.7-0.2,1c0.1,0.4,0.2,0.8,0.1,1.3c-0.2,0.3-0.3,0.5-0.4,0.8
			c-0.2,0-0.3,0-0.5,0c0,0,0,0,0,0c-0.1,0.5,0.1,0.8,0.1,1.3c0.1,0,0.1,0,0.2-0.1c0.3,0.8,0.2,1.7-0.4,2.3c0.2,0.8,0.6,1.2,0.4,2.4
			v0c0,0,0.1,0,0.1,0c0.7-0.7,0.5-0.6,0.6-1.6c0-0.1,0-0.2-0.1-0.3c-0.1,0.1-0.1,0.1-0.2,0.2c0,0,0,0,0,0c-0.1-0.6,0.5-2.1,0.6-2.8
			c0.1-0.4-0.1-1.1,0-1.6c0.3-1.2,0.4-3.7,1.4-4.4c0,0.1,0.1,0.2,0.1,0.3c0,0,0.1-0.1,0.1-0.1c0.2,0.7-0.6,1.7-0.5,2.6
			c-0.2,0.2-0.3,0.3-0.4,0.5c0,0,0.1,0.1,0.1,0.1c0.1-0.1,0.1-0.2,0.2-0.2c0,0.2-0.1,1,0.1,1.2c0.1,0.1,0,0,0.1,0c0,0,0,0,0.1,0.1
			c-0.1,0.3-0.2,0.4-0.2,0.8c0.1,0.1,0,0.1,0.2,0.1c0,0.2-0.1,0.3-0.1,0.5c0.1,0,0.1,0,0.2,0c0,0.5-0.2,0.7-0.5,1
			c0.1,0.5,0.3,0.6,0.5,1c-0.1,0.2-0.1,0.3-0.2,0.5c0.4,0.5,0.9,4,0.1,4.5c-0.2,0.2-0.2,0.2-0.1,0.4c-0.1,0.2-0.2,0.2-0.4,0.2
			c-0.6,1.3,0.6,1.7,0.7,2.8c0.1,0,0.2,0.1,0.3,0.2c0,0,4.4-0.2,7-0.2c0.1,0-0.2-0.1-0.3-0.2c-0.1-0.1-0.6-2.8-0.5-3.1
			c0.1-0.1,0.2-0.3,0.3-0.4c-0.4-0.8,0.2-1.7,0.5-2.4c0.3-0.6,0.5-1.3,0.8-2c0.3-0.3,0.7-0.2,0.9-0.8c0.1-0.4-0.1-0.7,0.1-1.2
			c0.2-0.4,0.6-0.6,0.6-1.1c0.3,0,0.7-0.2,0.7-0.4c0-0.1,0.1-0.1,0.1-0.2c0,0.2,0,0.1,0,0.2c0.2-0.1,0.1-0.1,0.2-0.1
			c0.1-0.1,0.1-0.1,0.2-0.2c0-0.1-0.1-0.1-0.1-0.2c0.7,0.1,1.2-0.2,1.8-0.5c0.4,0.1,0.2-0.2,0.2-0.4c0.1-0.1,0.2-0.1,0.3-0.2
			c0,0,0,0,0,0c0,0.1-0.1,0.1-0.1,0.2c0,0,0.1,0,0.1,0.1c0.2,0.1,0.8-0.2,1.2-0.2c0.4,0,1.1,0.3,1.4,0.5c0,0,0.1,0,0.1,0v-0.2
			c-0.1,0-0.2,0-0.3,0c0,0,0-0.1,0-0.1c0.1,0,0.2-0.1,0.3-0.1c0,0.1,0.3,0.4,0.4,0.5c0,0,0,0-0.1,0c0,0-0.1,0.1-0.1,0.1
			c0.1,0.1,0.2,0.2,0.4,0.3c0.2-0.1,0.4-0.2,0.5-0.2c0,0.1,0,0.2,0.1,0.3c0.3-0.1,0.3-0.2,0.5-0.4c0.2,0.2,0.3,0.4,0.5,0.5
			c0,0,0.1,0,0.1,0.1h0c0-0.1,0.1-0.1,0.1-0.2c-0.1-0.1-0.3-0.2-0.4-0.4c0,0-0.1,0-0.1-0.1c0.1-0.1,0.2-0.2,0.4-0.2
			c0.1-0.1,0-0.1,0-0.4c-0.1,0.1-0.2,0.1-0.3,0.2h0c0,0,0-0.1-0.1-0.1c0.6-0.4,1.3-0.3,2-0.2c0-0.1,0.1-0.2,0.1-0.3
			c0,0,0.1,0,0.1-0.1c0,0.2,0,0.3,0,0.5c0.9,0.1,1.5-0.2,2.2,0.5C115.6,103.2,115.6,103.5,115.6,103.6"/>
		<path d="M142.4,73.8c-0.2,0.1-0.3,0.1-0.5,0.2c0,0.1,0,0.1,0,0.2v0c0.3,0.1,1.1,0.3,1.5,0.1c0.1-0.1,0.2-0.1,0.2-0.2v-0.1
			C143.2,73.9,143,73.8,142.4,73.8 M144.5,73.9c0.1,0.1,0,0,0.1,0.1C144.6,73.9,144.6,73.9,144.5,73.9 M138.1,75.4
			c-0.2-0.1-0.5-0.2-0.7-0.1c0-0.1,0.1-0.2,0.1-0.3c-0.3-0.2-0.9-0.4-1.1-0.7c-0.1-0.1,0-0.3-0.2-0.4c0,0-0.1,0.1-0.1,0.1
			c-0.7-0.1-1.5,0.3-1.8,0.8c-0.4,0-0.7,0-0.9,0.1c0.2,0.2,0.7,0.1,1,0.1l-0.2,0.1c0,0.1-0.1,0.1-0.1,0.2c0.6,0.1,1.5-0.1,1.9-0.3
			c0.2,0.1,0.4,0.1,0.7,0.2c-0.1,0-0.1,0-0.2,0.1c0.4,0.3,1,0.3,1.7,0.3C138.2,75.6,138.1,75.5,138.1,75.4"/>
		<path d="M136.1,74.2c0,0-0.1-0.1-0.1-0.1c0,0.1,0,0.1-0.1,0.2C136,74.3,136.1,74.3,136.1,74.2L136.1,74.2z M146.6,75.5
			c0.1-0.1,0.1,0,0.1-0.1c-0.5,0-0.4-0.2-0.8-0.3c-0.1,0.1-0.2,0.1-0.3,0.1c0.1,0.2,0.1,0.2,0,0.3c0.5,0,0.7,0,1.1,0.1
			C146.7,75.6,146.6,75.6,146.6,75.5 M149.9,75.2C149.9,75.2,149.9,75.3,149.9,75.2L149.9,75.2C150,75.3,150,75.2,149.9,75.2
			 M146.8,75.5c0.1,0.1,0,0,0.1,0.1C146.9,75.6,146.9,75.5,146.8,75.5 M135.4,75.7c-0.2,0.1-0.4,0.1-0.6,0.2c0,0.1,0,0.2,0,0.3
			c0.6-0.1,1.1,0,1.7-0.2c0,0,0,0,0-0.1C136.2,75.8,135.8,75.7,135.4,75.7 M139.9,75.7v0.1c0.1,0,0.2,0,0.3,0v0
			C140.1,75.8,140,75.7,139.9,75.7 M145.7,76.3c-0.1-0.2-0.4-0.4-0.7-0.4c0,0.1,0,0.2,0,0.3h-0.4c0,0,0,0,0,0.1c0.4,0,0.7,0.1,1,0.2
			C145.7,76.4,145.7,76.4,145.7,76.3 M139.2,75.9C139.2,76,139.2,76,139.2,75.9c0,0.1,0.1,0.2,0.2,0.3c0.1,0,0.2,0,0.4,0
			c0,0,0,0,0,0c0,0,0-0.1,0-0.1C139.6,76.1,139.4,76,139.2,75.9 M140.5,76c-0.1,0-0.3,0-0.4-0.1c0.1,0.2,0.2,0.2,0.3,0.3h0.2
			c0,0,0,0,0-0.1C140.6,76.1,140.5,76.1,140.5,76 M137.6,76.4c-0.1,0-0.3,0.1-0.4,0.1c0,0.1-0.1,0.1-0.1,0.2c0,0.1,0.1,0.1,0.1,0.2
			c0.3,0,0.5-0.1,0.7-0.2c0,0,0.1-0.1,0.1-0.2C138,76.4,137.9,76.4,137.6,76.4 M143.6,76.6C143.6,76.6,143.6,76.6,143.6,76.6
			c0,0.1,0.1,0,0.1,0v0C143.7,76.6,143.7,76.6,143.6,76.6 M141.8,76.9c0.1,0.1,0.2,0.1,0.3,0.2h0.2C142.2,77,142,76.9,141.8,76.9
			 M161.3,77.8c0.1,0.1,0,0,0.1,0.1C161.4,77.8,161.4,77.8,161.3,77.8 M137.8,77.5C137.8,77.5,137.9,77.5,137.8,77.5l0.3,0.1
			c0,0,0,0,0,0C138,77.5,137.9,77.5,137.8,77.5 M176.5,80.5c-0.3,0.1-0.4-0.1-0.7-0.3c-0.1,0-0.1,0-0.2,0c0,0,0.1,0.1,0.1,0.1
			c-0.4,0.1-1-0.2-1.4-0.3c0,0,0,0,0,0c0,0,0,0.1,0.1,0.2c-0.2-0.1-0.3-0.3-0.6-0.3v0c0.1,0.1,0.2,0.2,0.2,0.2v0
			c-0.2-0.1-0.2-0.1-0.3,0c-0.5-0.4-0.8-0.9-1.6-0.9c0.1,0.1,0.1,0.1,0.2,0.2c-0.1,0-0.2-0.1-0.3-0.1c-0.1,0.1-0.2,0.2-0.3,0.3
			c0,0,0,0,0,0.1c0.5,0.1,1,0.3,1.5,0.4c-0.3,0.2-0.5,0.1-1,0c0,0,0,0,0,0l0,0.1c0.7,0.2,1,0.4,1.5,0.6c0,0,0,0.1,0,0.1
			c-0.1,0-0.3-0.1-0.4-0.1c0,0,0,0,0,0c0,0,0.1,0.1,0.1,0.2c1.1,0.3,3.7,1.6,4.6,0.6v0C177.4,81.3,176.8,80.8,176.5,80.5
			 M144.9,78.6L144.9,78.6C144.9,78.7,144.9,78.7,144.9,78.6L144.9,78.6z M148.5,78.9c0.1,0.1,0,0.1,0.2,0.1v0
			C148.7,78.9,148.7,78.9,148.5,78.9 M149.4,79c-0.1,0-0.2-0.1-0.3-0.1c-0.1,0.1,0,0.1-0.3,0.1c0,0,0,0,0,0c0.1,0.1,0.3,0.3,0.5,0.3
			c0.1,0,0.1-0.1,0.2-0.2L149.4,79z M146.3,79.3c-0.1,0-0.1,0-0.2,0c0,0-0.1,0-0.1,0.1c0,0-0.1,0.1-0.1,0.1c0.1,0.1,0.4,0.1,0.6,0
			c0,0,0,0,0-0.1C146.5,79.3,146.4,79.3,146.3,79.3 M207.7,113.2c-0.2-0.4-0.4-0.8-0.6-1.2c0,0.1,0.1,0.1,0.1,0.2c0,0,0,0,0.1,0
			v-0.1c0-0.2-0.2-0.4-0.3-0.6c0,0,0.1,0,0.1,0c0.1,0.1,0.2,0.2,0.3,0.3c0,0,0,0,0,0c-0.1-0.2-0.1-0.3-0.2-0.5
			c0.2,0.1,0.3,0.3,0.4,0.4c-0.2-0.4-0.7-1.3-1.2-1.5c0.1-0.2,0-0.1,0.2-0.1c-0.1-0.5-0.9-1-1-1.7c0,0,0,0,0,0
			c0.1,0.4,0.4,0.3,0.5,0.5h0c-0.2-0.2-0.3-0.4-0.5-0.7c0.1-0.1,0.1-0.1,0.2-0.2c0.2-0.1,0.3,0.3,0.6,0.3c0,0.2,0,0.2,0.1,0.4
			c0-0.5,0-1.1-0.1-1.3c-0.2-0.2-0.3-0.6-0.5-0.9c-0.6-1-1-1.8-1.5-2.9c-0.1-0.3-3.7-5.9-8.3-10.2c-4.7-4.4-10.5-7.5-10.4-7.6
			c-0.1,0.1-0.2,0.3-0.4,0.3c0,0.2,0,0.2,0.1,0.4c-0.1,0-0.2,0.1-0.3,0.2c0.1,0.2,0.3,0.4,0.5,0.5c0,0.1,0.1,0.3,0.1,0.4
			c0.4,0.5,1.1,0.8,1.4,1.5c0.2,0,0.2,0,0.3-0.1c0.1,0.1,0.1,0.3,0.2,0.5c0.2,0.2,1.2,0.8,1.6,0.6c0.2-0.1,0.2-0.4,0.1-0.6
			c0.1,0,0.2-0.1,0.2-0.1c0-0.1,0-0.1-0.1-0.2v0c1.1,0.5,1.6,1.9,2.8,2.4c0,0.1,0.1,0.3,0.2,0.4c-0.2,0.1-0.2,0.2-0.3,0.3
			c0.2,0.3,0.5,0.5,0.8,0.7c-0.1,0.2-0.1,0.1-0.3,0c0,0,0,0,0,0c0.1,0.1,0.2,0.2,0.3,0.3c0.1,0,0.2,0,0.2,0v-0.3
			c-0.1-0.1-0.2-0.3-0.4-0.4c0-0.1,0,0,0.1-0.1c-0.1-0.1-0.2-0.2-0.2-0.3c0.2,0.1,0.3,0.3,0.4,0.5c0.1,0,0.3,0,0.5,0c0,0,0,0,0,0
			v-0.1c-0.1-0.1-0.2-0.3-0.3-0.4c0.1-0.1,0,0,0-0.2c0.1,0,0.3,0,0.4,0.1c0-0.1-0.1-0.2-0.2-0.3c0.1,0.1,1.7,1.5,1.6,1.5
			c-0.2,0.1-0.2,0.2-0.1,0.4c-0.1,0-0.1,0-0.2,0.1c-0.3,0.3-0.3,0-0.7,0c-0.1-0.1-0.1-0.1,0-0.2c-0.1-0.1-0.2-0.2-0.4-0.3
			c0,0.1,0,0.2,0,0.2c-0.1,0-0.2,0-0.2,0c0,0.2-0.1,0.1-0.1,0.4c-0.1,0-0.1,0-0.2,0c-0.1-0.1-0.1-0.3-0.1-0.4
			c-0.1-0.1,0-0.1-0.2-0.1c0,0,0,0.1,0.1,0.2c-0.3,0-0.6-0.3-0.8-0.4c-0.1,0,0,0,0-0.1c-0.1-0.1-0.2-0.1-0.4-0.2c0,0,0,0,0-0.1
			c0,0,0,0,0-0.1c0.3,0.2,0.5,0.3,0.8,0.5c-0.2-0.3-0.5-0.9-0.9-0.7c-0.1-0.1-0.1-0.4-0.2-0.6c0.1,0,0.1,0.1,0.2,0.1
			c0-0.1,0-0.1,0-0.2c-0.4-0.4-0.9-0.6-1.1-1.2c-0.1,0-0.1,0.1-0.2,0.1c0,0.1,0.1,0.2,0.1,0.3c-0.1,0-0.1,0-0.2,0
			c-0.1,0-0.1,0.1-0.2,0.1c0.1,0.7,1.6,1.8,1.5,2.1c0.1,0,0.2,0,0.3,0.1c0.2,0.3,0.3,0.4,0.5,0.7c-0.1,0.1-0.1,0-0.1,0.2
			c-0.2-0.1-0.3-0.1-0.6-0.1v0.2c-0.2,0-0.4,0-0.5,0c0,0.1-0.1,0.1-0.1,0.2c0.1,0.1,0.1,0.2,0.2,0.3c0.2,0.1,0.1,0.1,0.3,0
			c0.1,0.2,0.2,0.3,0.2,0.5c-0.1,0.1,0,0.1-0.2,0c0,0,0,0,0,0c0,0.3,0,0.3,0.2,0.5c-0.1,0-0.2,0-0.3,0c-0.1-0.4-0.3-0.8-0.4-1.2
			c0,0-0.1,0-0.1,0h0c0.1,0.5,0.6,1.4,0.2,1.6c-0.2,0.2-0.6,0.2-0.8,0.5c0.1,0.2,0.2,0.5,0.3,0.7c-0.1,0.1-0.2,0.2-0.4,0.2
			c-0.1,0.1-0.2,0.3,0,0.4c0,0-0.1,0.1-0.1,0.1c-0.5,0.1-1-0.3-1.4-0.5c0,0,0,0,0,0c0.2,0.3,0.5,0.5,0.6,0.9c0,0,0.1,0.1,0.1,0.1v0
			c-0.3,0-0.5-0.1-0.7,0.1c-0.1-0.1-0.3-0.2-0.5-0.4c-0.3,0.1-0.7,0.1-0.9,0.3h-0.1c0.1,0.3,0.3,0.3,0.5,0.5c-0.1,0-0.2,0-0.2,0
			c0.4,0.4,1,0.3,1.6,0.5c0,0,1.9,1.7,1.9,1.8c-0.1-0.1-0.1-0.1-0.2-0.2c0,0,0,0,0,0c0.5,0.6,1,1.6,1,2.8c-0.7,0.3-2.3-0.2-3.2-0.3
			c-0.2,0-0.8,0.2-1.2,0.1c-0.2-0.1-0.2-0.2-0.5-0.1c-0.2,0-0.3,0.2-0.2,0.4c-0.2,0.1-0.4,0.1-0.5,0.2c-0.1,0-0.1,0.1-0.2,0.1
			c0,0.4,0.3,0.4,0.3,0.7c0.1,0,0.1,0,0.2-0.1c0.1,0.7,0.5,1.1,0.7,1.8c0.2,0.6,0.1,2.2,0,2.8c0.2,0.1,0.3,0.3,0.4,0.5
			c0.1,0,0.2-0.1,0.2-0.1c0.2,0.5,0.3,1.1,0.3,1.9c0.4-0.1,0.8,0.1,1,0c0.1,0,0.2-0.2,0.5-0.3c0.7-0.3,1,1.3,1.7,1.4
			c0.1-0.2,0.7-0.7,0.8-0.8c0.5,0,0.9-0.1,1.3,0.1c0-0.1,0.1-0.1,0.1-0.2c0.2,0,0.2,0,0.3,0.1c0.1-0.3,0.2-0.8,0.3-1
			c0.1-0.1,0.2-0.1,0.4-0.1c0-0.2-0.2-0.6,0-1c0.1-0.2,0.2-0.2,0.3-0.5c-1.2-0.8-0.1-1.8-0.5-2.5c0.2-0.3,0.4-0.2,0.7-0.4
			c0.2-0.1,0.4-0.5,0.5-0.7c-0.1-0.4-0.7-1.1-0.6-1.5c0.1-0.1,0.2-0.2,0.3-0.4c0.6,0.2,1,0.5,1.5,0.7c0.3-0.2,0.2-0.7,0.7-0.8
			c0-0.2,0.1-0.4,0.1-0.5c0,0,0-0.1,0-0.1c1.1,0.2,1.7,1.6,2.2,2.4c0,0,1.5,1.4,1.5,1.5c0,0,0.2-0.1,0.4,0c0.1,0.1,0.2,0.3,0.3,0.5
			c1.1,1.1,1.5,1.4,2,3c-0.1,0.1-0.4,0.1-0.5,0.3c-0.4,0-0.4-0.1-0.6-0.3c-0.1,0.1,0,0-0.1,0.2c-0.1,0-0.1-0.1-0.2-0.1c0,0,0,0,0,0
			c0,0.2-0.1,0.4,0,0.5c0.1,0.1,1.5,1.3,1.7,1.3h0c-0.1-0.6-0.4-0.9-0.4-1.6c0.1,0.1,0.2,0.1,0.2,0.2h0c0.1-0.3,0-0.7-0.1-1
			c0-0.2,0-0.2,0.1-0.2c-0.1-0.5-0.4-0.6-0.6-0.9c-0.1-0.3-0.2-0.6-0.2-0.9c0,0,0.1,0,0.1-0.1c0.2,0.2,0.6,0.7,0.9,0.9
			c-0.2-0.9-1.1-1.6-1.8-1.9c-0.1-0.2-0.1-0.3-0.1-0.5c-0.2-0.1-0.4,0-0.7-0.2c-0.6-0.5-0.8-1.2-1.3-1.8c-0.4-0.5-1.1-0.7-1.3-1.4
			c0-0.1,0-0.2,0-0.3c-0.1-0.2-0.3-0.3-0.4-0.5c0.2,0,0.2-0.1,0.3-0.2c0.1,0,0.1,0,0.2,0c0.1,0.2,0.4,0.7,0.5,1c0,0,0.1,0,0.1,0
			c0-0.1,0-0.2,0-0.3c0.1,0.1,0.1,0.3,0.2,0.4c0,0,0.1,0.1,0.1,0.1c-0.1-0.1-0.1-0.3-0.1-0.4c0.4,0.1,0.5,0.8,0.7,1
			c0.3,0.4,0.7,0.5,1,0.8c0,0-0.1,0-0.1-0.1c0.1,0.2,0.2,0.2,0.3,0.4c0.1,0,0.1,0,0.2,0c-0.1-0.1-0.1-0.1-0.2-0.2c0,0,0.1,0,0.1,0
			c0.1,0.1,0.2,0.1,0.2,0.2c0,0,0,0,0,0.1c-0.1,0-0.2,0-0.2,0.1c0.2,0.2,0.1,0,0.3,0.1c0.4,0.2,1.1,0.9,1.4,1.4
			c0.2,0.6,0.4,1.1,0.6,1.7c0.3,0.5,0.9,1,1.1,1.5c0.1,0,0,0,0.1,0c0,0-0.1,0.2,0,0.4c0.1,0.2,0.3,0.4,0.6,0.4
			c-0.1,0.2-0.1,0.2-0.1,0.5c0.3,0.4,0.5,0.8,0.7,1.3c0,0,0.1,0.1,0.1,0.1h0c0-0.1,0-0.2-0.1-0.3c0,0,0,0,0,0
			c0.1,0.2,0.2,0.4,0.3,0.6c0,0,0,0,0.1,0c0-0.1,0-0.2-0.1-0.3C207.5,113.1,207.6,113.2,207.7,113.2L207.7,113.2L207.7,113.2z
			 M132.1,82.2c-0.2-0.1-0.5-0.2-0.8-0.2c-0.1,0-0.1,0-0.2,0.1c0.1,0.2,0.7,0.4,1,0.5h0C132.2,82.5,132.2,82.4,132.1,82.2
			 M151.6,83.4c0.1,0.1,0,0,0.1,0.1h0c0,0,0,0,0-0.1C151.7,83.4,151.7,83.4,151.6,83.4 M153.7,85.3c0,0,0.1,0.1,0.1,0.1c0,0,0,0,0,0
			v0C153.8,85.3,153.7,85.3,153.7,85.3 M152.4,86c-0.1,0-0.2,0-0.3,0.1c0,0.3,0,0.1-0.1,0.2c0.5,0,1.1-0.1,1.5-0.1
			C153.1,86.1,152.8,86,152.4,86 M155,86.8c0,0.1,0,0,0,0.2c0,0,0.1-0.1,0.1-0.1v0C155.1,86.8,155,86.8,155,86.8 M146.7,88
			C146.7,88.1,146.7,88.1,146.7,88c0.9,0.6,1.5,1.1,2.7,1.5c0,0,0.1,0,0.1,0v-0.1C148.8,88.8,147.8,88.1,146.7,88 M156.7,88.7
			c0,0,0,0.1,0,0.1C156.8,88.7,156.7,88.8,156.7,88.7C156.7,88.7,156.7,88.7,156.7,88.7"/>
		<path d="M190.1,96.1c-0.2,0-0.4,0-0.6,0c0.1-0.2,0.3-0.4,0.2-0.7c-0.1-0.4-0.8-1.2-1.2-0.7c0,0-0.1,0-0.1,0
			c-0.2-0.5-0.6-1.1-1.2-1.5c-0.2-0.1-0.5-0.2-0.7-0.3c-0.6-0.6-0.9-1.1-1.9-1.1c0.1-0.1,0.2-0.1,0.3-0.2c-0.1-0.1-0.1-0.1-0.2-0.2
			c0.2-0.3,0-0.6,0-0.9c-0.4-0.4-1-0.3-1.5-0.2c0-0.2,0.1-0.1-0.1-0.2c0-0.2,0.1-0.3,0.3-0.4c0-0.1-0.1-0.2-0.1-0.3
			c-0.4-0.1-0.8,0.1-1.2,0c-0.1,0.1-0.1,0.1,0,0.3c-0.1,0.2,0,0.2,0.1,0.3c0,0-0.1,0-0.1,0c-0.1,0-0.1,0-0.2,0.1
			c0.1,0.1,0.2,0.3,0.2,0.4v0c-0.2-0.1-0.4-0.3-0.5-0.4c-0.1,0.2,0,0.1-0.2,0.2c0.2,0.2,0.6,0.3,0.8,0.4c0,0.1,0.1,0.1,0.1,0.2
			c-0.1,0-0.1,0.1-0.2,0.1c0.1,0.2,0.2,0.2,0.1,0.4c0.1,0,0.3,0,0.4,0c0-0.1,0-0.1,0-0.2v-0.1c0,0,0,0,0,0c0.1,0.4,0.3,0.7,0.4,1.2
			h0.2c0,0,0-0.1,0-0.1c0-0.1-0.1-0.1-0.1-0.2l0.2,0.1h0c0-0.1-0.1-0.3-0.1-0.4c0.1,0.1,0.2,0.1,0.3,0.2c0.1,0.2,0.1,0.3,0,0.6
			c0.1,0.1,0.2,0.2,0.4,0.3h0.1c0-0.1-0.1-0.1-0.1-0.2v0c0.1,0,0.2,0.1,0.4,0.1v-0.2c0.3,0.1,0.4,0,0.6-0.1c0.3,0.3,0.2,0.9,0.8,0.8
			c0,0.3,0.1,0.4,0.2,0.6c-0.3,0.3-0.6,0.1-0.9,0c0,0.3,0.1,0.2,0.3,0.3c-0.1,0.1-0.1,0.1-0.2,0.2c0,0,0,0,0.1,0.1
			c0.1,0,0.2-0.1,0.3-0.1c0.1,0.1,0.2,0.3,0.3,0.4c0,0.2-0.3,0.4-0.5,0.4c0,0-0.1,0.1-0.1,0.1c0.1,0.1,0.3,0.2,0.4,0.3
			c0.4-0.2,0.8,0.1,1.3,0.2c0.1,0,0.2-0.1,0.3-0.2c-0.1,0.1,0,0.1,0,0.3h-0.8c0,0.4-0.2,0.7-0.5,1v0.1c0.2,0,0.2,0,0.4,0.1
			c0.1-0.2,0-0.3,0.3-0.4c0.2-0.1,0.4,0.1,0.6,0.1c0-0.1,0-0.4,0.1-0.5c0,0,1.3,0.1,1.3,0.1h0.1c0-0.1-0.1-0.1-0.1-0.2
			c0.6,0,0.9,0,1.4-0.2c0,0,0,0,0-0.1C190.1,96.3,190.1,96.2,190.1,96.1 M159,93.3c-0.2,0-0.2,0.1-0.6,0.2c0-0.1,0-0.1,0-0.2
			c0.1-0.2,0.2-0.3,0.4-0.3c0,0,0,0,0-0.1c0,0,0,0,0,0c-0.5,0-0.6,0.1-0.9,0.4c0-0.1,0-0.1-0.1-0.2c-0.1,0,0,0-0.1,0
			c0.3-0.2,0.8-0.4,1-0.5c0,0,0.1,0,0.1-0.1c-0.2-0.2-0.6-0.1-0.9-0.2c0.1-0.3,0-0.1,0-0.4c0.2,0,0.3-0.1,0.4-0.2
			c-0.3-0.2-0.7-0.5-1-0.4c-0.2-0.2,0-0.3-0.3-0.4c-0.1,0,0,0.1-0.1,0c0,0.1,0,0.1,0,0.2c-0.1,0-0.2,0-0.2,0c-0.2,0-0.1,0-0.1-0.2
			c-0.2,0-0.1,0-0.2,0.1c-0.1-0.1-0.2-0.1-0.4-0.1c0,0,0-0.1,0.1-0.1c-0.1-0.1,0,0-0.2,0c0,0-0.1,0-0.1-0.1v-0.2c0.2,0,0.3,0,0.5,0
			v0c-0.2-0.2-0.5-0.2-0.8-0.4c-0.2,0.1-0.5,0.2-0.7,0.3c0.1-0.4,0.8-0.7,1.2-0.8c0.1-0.1,0.1-0.1,0.2-0.2c-0.1-0.1-0.1-0.1-0.3-0.1
			v-0.1c0.2,0.1,0.3,0.1,0.6,0.1c0,0,0,0,0.1-0.1c0,0,0-0.1,0-0.1c-0.2-0.1-0.4-0.1-0.6-0.2c-0.2,0-0.5,0-0.7,0
			c-0.2,0-0.6,0.3-0.8,0.4c-0.4,0.2-0.6,0.8-1.2,0.9c-0.1,0.1-0.1,0.1,0,0.3v0c-0.2,0-0.1,0-0.2-0.1c-0.2,0.1-0.4,0.2-0.5,0.4
			c0.1,0.1,0.2,0.1,0.2,0.2c-0.3-0.1-0.7,0.1-1.1,0.2c0,0.1,0.1,0.3,0.1,0.4c0.7,0.2,3.3,0.7,3.5,0.9c0,0-0.1,0-0.2,0
			c0.3,0.1,0.5,0.2,0.8,0.3c0.1-0.1,0,0,0.1-0.2c0.2,0.1,0.3,0.1,0.5,0.2c-0.3,0.1-0.7,0.2-1.2,0.2c0,0,0,0.1,0,0.1
			c0.8,0.3,1.5-0.1,2.2-0.3c0.1,0.1,0.1,0.1,0.2,0.2c0,0.3-0.2,0.4-0.4,0.6c0.1,0.2,0,0.1,0.2,0.2c0.2,0,0.4-0.1,0.6-0.2
			c-0.1,0.1-0.1,0.2-0.1,0.5c0.2,0.1,0.4,0.1,0.6,0.1c0.3-0.1,0.4-0.5,0.6-0.6C159,93.5,159,93.4,159,93.3 M181.4,89.6
			c-0.1,0-0.1,0-0.2,0c-0.1,0.1-0.2,0.2-0.3,0.3c0.1,0.1,0.2,0.2,0.2,0.3c0,0,0.1,0,0.1,0.1c0.1-0.1,0.2-0.2,0.3-0.2
			C181.4,89.9,181.4,89.8,181.4,89.6"/>
		<path d="M156.2,89.5L156.2,89.5C156.3,89.6,156.3,89.6,156.2,89.5L156.2,89.5z M181.2,90.3c0,0-0.1,0-0.2-0.1c0,0-0.1,0.1-0.2,0.1
			c0.1,0.1,0.2,0.3,0.3,0.5c0,0,0.1,0,0.1,0C181.3,90.7,181.2,90.5,181.2,90.3 M156.2,89.7c0,0,0.1,0.1,0.1,0.1c0,0,0.1,0,0.1,0v0
			C156.3,89.7,156.3,89.7,156.2,89.7 M191.1,91c0,0,0,0.1,0.1,0.1h0C191.2,90.9,191.3,91,191.1,91 M181.9,90.8
			c0,0.1,0.1,0.1,0.1,0.1c0,0,0,0,0-0.1C182,90.9,182,90.9,181.9,90.8 M181.2,90.9L181.2,90.9c0,0.1,0.1,0,0.1,0v0H181.2z M182,91.2
			C182,91.2,182,91.2,182,91.2L182,91.2c0,0.1,0,0.1,0,0.1h0C182.1,91.3,182.1,91.2,182,91.2L182,91.2z M181.8,91.3v0.1h0.1
			C181.9,91.3,181.9,91.4,181.8,91.3 M152.3,90.6c-0.1,0-0.2,0-0.2,0c0,0-0.1,0-0.1,0c0,0,0,0.1,0,0.1c0.2,0,0.4,0,0.6,0.1
			C152.4,90.7,152.4,90.7,152.3,90.6 M157.5,91c0,0.1,0,0.1,0,0.2c0.1,0,0.2,0,0.3,0C157.7,91,157.7,91,157.5,91 M182.8,91.6
			c-0.1,0.2-0.1,0.2-0.3,0.3c0.1,0.2,0.1,0.2,0.3,0.3C182.9,92.1,182.9,91.8,182.8,91.6 M182.5,91.7
			C182.5,91.7,182.5,91.7,182.5,91.7L182.5,91.7c0,0.1,0,0.1,0,0.1C182.6,91.8,182.6,91.7,182.5,91.7
			C182.6,91.7,182.6,91.7,182.5,91.7 M146.6,91.3c-0.1-0.1-0.1,0-0.1-0.2c-0.2-0.2-0.1-0.1,0-0.4c0,0-0.1,0-0.1,0
			c-0.1,0.1-0.3,0.1-0.4,0.2c0,0,0,0,0,0.1c0.4,0.4,0.8,0.6,1.4,0.8c0.1,0.1,0,0,0.1,0.1c0.1,0.1,0.2,0.1,0.3,0.2
			c0.4-0.1,0.3-0.3,0.8-0.2c0,0,0,0,0,0v0C148.2,91.7,146.6,91.3,146.6,91.3 M183.4,91.9L183.4,91.9l-0.1,0.2c0.1,0,0.1,0,0.2,0
			C183.4,92,183.4,92,183.4,91.9 M183.6,93.7C183.6,93.7,183.6,93.7,183.6,93.7c0.2-0.2,0.2-0.3,0.4-0.4v-0.2
			c-0.3-0.3-0.5-0.3-0.8-0.6c-0.3-0.1-0.5-0.1-0.8,0.1c0-0.1,0,0,0.1-0.2c-0.1,0-0.2-0.1-0.4-0.1c-0.1,0.1-0.3,0.2-0.6,0.2
			c0,0.3,0,0.3-0.2,0.4c0.1,0.1,0.3,0.1,0.5,0.1c-0.1,0.2-0.1,0.1-0.2,0.3c-0.4,0-0.7,0-1.1,0c0,0.2,0.1,0.1,0.2,0.2l-0.1,0
			c0.1,0.1,0.3,0.1,0.5,0.1c-0.1,0.1-0.2,0.2-0.3,0.3c0.3,0.4,0.6,0.2,1,0.3c-0.3,0.2-0.2,0.2-0.2,0.5c-0.2,0.2-0.2,0.1,0,0.2
			c-0.1,0.2-0.1,0.1,0,0.3c-0.1,0-0.2,0-0.3,0c0,0.1-0.1,0.1-0.1,0.2c0.2,0,0.3,0,0.4-0.1c-0.1,0.1-0.2,0.1-0.3,0.2
			c0.5,1.1,2.1-0.3,2.9-0.3C184.4,94.8,184.1,94,183.6,93.7 M158,91.9l0,0.1C158,92,158.1,92,158,91.9C158.1,92,158.1,92,158,91.9
			 M194,92.9c0,0.1,0,0.1,0.1,0.2c0.1,0,0.2,0.1,0.3,0.1C194.2,93,194.2,92.9,194,92.9 M142.6,92c0,0.1-0.1,0.1-0.1,0.1
			c0,0,0,0,0.1,0c0.1-0.1,0.1,0,0.2-0.2H142.6z M145.5,92.2c0,0,0,0.1,0,0.2c0,0,0.1,0.1,0.1,0.1c0.2,0,0.5-0.1,0.7-0.1
			C146.1,92.3,145.8,92.2,145.5,92.2 M184.6,93.2c0,0.1-0.1,0.2-0.1,0.2c0,0,0,0.1,0,0.1c0.1,0,0.1,0,0.2,0c0,0,0-0.1,0-0.1
			C184.8,93.3,184.7,93.3,184.6,93.2 M140.1,92.1c0,0.1,0,0.1,0,0.2c0,0,0.1-0.1,0.1-0.1C140.2,92.1,140.1,92.1,140.1,92.1
			 M149.8,92.5L149.8,92.5c-0.1,0-0.1,0-0.1,0.1C149.8,92.5,149.9,92.6,149.8,92.5 M140.3,92.2L140.3,92.2
			C140.3,92.3,140.4,92.2,140.3,92.2L140.3,92.2z M149.7,92.6c-0.1,0-0.1,0-0.2,0c-0.1,0.1-0.2,0.1-0.2,0.2c0.2,0,0.3,0,0.5,0v0
			C149.7,92.7,149.7,92.6,149.7,92.6 M154.8,92.8c0,0,0,0.1,0.1,0.2c0,0,0.1-0.1,0.1-0.1C154.9,92.9,154.9,92.8,154.8,92.8
			 M157.4,93c-0.1,0-0.1,0.1-0.2,0.1c0,0,0,0.1,0,0.1h0.1c0.1,0,0.1-0.1,0.2-0.1V93H157.4z M143.1,92.6
			C143.1,92.6,143.1,92.6,143.1,92.6L143.1,92.6z M154.8,93C154.8,93,154.8,93,154.8,93c0,0.1,0,0.1,0.1,0.1c0,0,0.1,0,0.1,0
			C154.9,93.1,154.8,93,154.8,93 M155,93.1L155,93.1C155,93.2,155,93.2,155,93.1C155,93.1,155,93.1,155,93.1 M194.7,94.2
			c0.1,0,0.2,0.1,0.2,0.1v0C194.8,94.2,194.8,94.2,194.7,94.2 M191.9,94.5C191.9,94.5,191.9,94.5,191.9,94.5
			C192,94.5,191.9,94.5,191.9,94.5L191.9,94.5z M191.5,94.7C191.5,94.7,191.4,94.7,191.5,94.7c0,0.1,0,0.1,0,0.1V94.7L191.5,94.7
			C191.5,94.7,191.5,94.7,191.5,94.7 M191.4,94.9C191.4,95,191.4,95,191.4,94.9c0,0.1,0.1,0.1,0.1,0.1
			C191.4,94.9,191.5,95,191.4,94.9 M137.9,93.7L137.9,93.7C137.9,93.8,137.9,93.7,137.9,93.7L137.9,93.7z M136.4,93.9
			c0,0,0,0.1,0,0.1C136.4,93.9,136.4,94,136.4,93.9 M137.1,94.2c-0.1,0-0.1,0-0.2,0.1v0.1c0.1,0,0.3,0,0.4,0v0
			C137.2,94.2,137.3,94.2,137.1,94.2 M134.9,94.2C134.9,94.2,134.9,94.3,134.9,94.2L134.9,94.2c0,0,0.1,0,0.1,0
			C135,94.2,135,94.2,134.9,94.2 M135.9,94.2C136,94.3,136,94.3,135.9,94.2L135.9,94.2z M135.5,94.3L135.5,94.3l0.1,0.1
			C135.5,94.3,135.6,94.3,135.5,94.3 M137.6,94.5C137.6,94.5,137.6,94.5,137.6,94.5c0,0.1,0.1,0.1,0.2,0.2h0c0,0,0-0.1,0-0.1
			C137.8,94.5,137.8,94.5,137.6,94.5 M93.5,97.2c-0.1,0.4-0.3,0.7-0.4,1.1c0,0,0,0,0,0C93.4,98,93.8,97.7,93.5,97.2 M92.9,98.7
			c0.1-0.1,0.1,0,0.1-0.1C92.9,98.6,92.9,98.6,92.9,98.7 M129,99.3C129,99.3,128.9,99.3,129,99.3L129,99.3
			C129,99.3,129,99.3,129,99.3 M92.2,101.8c0,0.2-0.1,0.4-0.1,0.6c0,0,0,0,0,0.1c0,0,0,0,0,0c0-0.2,0.1-0.4,0.1-0.6
			C92.3,101.8,92.2,101.8,92.2,101.8 M200.1,102.9c0,0,0.1,0.1,0.1,0.2v-0.1C200.2,102.9,200.1,102.9,200.1,102.9 M107.2,102.2
			c0,0.1,0,0.1-0.1,0.2C107.2,102.3,107.2,102.3,107.2,102.2 M110.8,102.1c-0.1,0.1-0.2,0.1-0.3,0.3c0.3,0,0.4,0,0.7,0v0
			C111.1,102.3,111,102.2,110.8,102.1 M106.1,102.7c0,0,0,0.1-0.1,0.1C106.1,102.7,106.1,102.7,106.1,102.7
			C106.1,102.7,106.1,102.7,106.1,102.7 M202,105.4v0.1h0.1C202,105.4,202,105.5,202,105.4 M198.9,105.3c0,0.1,0.1,0.2,0.1,0.3
			c-0.1,0-0.2,0.1-0.2,0.1c0,0.5,0.4,1.1,0.7,1.3c0,0,0,0,0.1,0.1h0C199.6,106.5,199.3,105.5,198.9,105.3 M199.5,105.5
			C199.4,105.5,199.4,105.5,199.5,105.5l-0.1,0.1c0.1,0,0.1,0,0.2,0C199.5,105.5,199.5,105.5,199.5,105.5 M90.3,107.8
			C90.3,107.8,90.2,107.8,90.3,107.8c0,0.1,0,0.2,0.1,0.2h0C90.4,107.8,90.4,107.8,90.3,107.8 M200.8,109.8c-0.1-0.9-0.5-1.9-1-2.5
			c0,0-0.1,0-0.1-0.1c0,0.1,0,0.2-0.1,0.4c-0.2,0.1-0.1,0.1-0.3,0c0,0.5,0.5,0.9,0.6,1.3c0.1,0.3,0,0.6,0.1,0.9
			c0.2,0.1,0.2,0.2,0.5,0.3c0-0.1,0-0.2,0-0.3C200.6,109.7,200.6,109.7,200.8,109.8L200.8,109.8z M206,108.2v0.2c0,0,0.1,0,0.1,0.1
			C206.1,108.3,206.1,108.3,206,108.2 M206.4,108.5c0,0,0,0.1,0.1,0.2h0C206.4,108.5,206.5,108.6,206.4,108.5 M206.1,108.9
			c0,0.1,0,0.1,0.1,0.2C206.1,109.1,206.1,109,206.1,108.9c0,0.2,0,0.2,0.1,0.3c0,0,0.1-0.1,0.1-0.1
			C206.2,109.1,206.2,109,206.1,108.9 M206.5,109.1v0.1c0,0,0.1,0.1,0.2,0.1v-0.2C206.6,109.2,206.6,109.1,206.5,109.1 M205.2,109.5
			c0.1,0.1,0.1,0.1,0.2,0.2C205.3,109.6,205.3,109.6,205.2,109.5 M206.9,110.3v0.1c0.1,0,0.1,0.1,0.2,0.1
			C207,110.5,207,110.4,206.9,110.3 M187.7,109.7c0,0.1,0,0.1,0,0.2C187.7,109.8,187.7,109.8,187.7,109.7
			C187.7,109.7,187.7,109.7,187.7,109.7 M205.9,110.9v0.3c0,0,0.1,0.1,0.1,0.1c0,0,0.1,0,0.1,0c0,0,0,0,0-0.1
			C206.1,111.2,206,111,205.9,110.9 M206.7,111.1c-0.1,0-0.1,0-0.2,0c0.1,0.1,0.2,0.2,0.4,0.3c0,0,0,0,0.1-0.1
			C206.8,111.2,206.8,111.2,206.7,111.1 M206.2,111.5c0,0,0,0.1,0,0.2c0,0,0.1,0.1,0.2,0.1v-0.2
			C206.3,111.6,206.3,111.6,206.2,111.5 M99.6,111.6v0.3c0,0,0.1,0,0.1,0v0C99.7,111.7,99.7,111.7,99.6,111.6 M207.7,113.4
			c0,0.1,0.1,0.2,0.1,0.2c0,0,0-0.1,0.1-0.1C207.8,113.5,207.7,113.4,207.7,113.4 M150.8,180.2c0,0,0,0.1,0,0.2
			c0.1-0.1,0.1-0.1,0.2-0.2H150.8z M149.6,180.3c0,0-0.1,0.1-0.1,0.1c0,0,0.1,0,0.1,0.1h0.2v0C149.7,180.4,149.6,180.3,149.6,180.3
			 M149.9,180.4L149.9,180.4C149.9,180.4,149.9,180.4,149.9,180.4L149.9,180.4z M143.6,184.2c0,0,0,0.1,0,0.1
			C143.6,184.2,143.6,184.3,143.6,184.2L143.6,184.2z M143.5,184.4c0,0,0,0.1,0,0.1C143.5,184.4,143.5,184.4,143.5,184.4
			C143.5,184.4,143.5,184.4,143.5,184.4 M140.7,186.6c-0.2,0-0.4,0-0.6,0.1c-0.2,0.5-0.7,0.7-1.1,1v0c0.1,0,0.1,0.1,0.2,0.1
			c0.4-0.1,0.6-0.2,0.9-0.4c0-0.1,0-0.1,0-0.2c0.3,0,0.4-0.2,0.6-0.3L140.7,186.6L140.7,186.6z M119,188.1
			C119.1,188.1,119,188.1,119,188.1L119,188.1z M118.9,189.3C118.8,189.3,118.8,189.3,118.9,189.3c0,0.1,0,0.1,0,0.1
			C118.9,189.4,118.9,189.4,118.9,189.3C118.9,189.3,118.9,189.3,118.9,189.3 M128.9,192.1c0,0.2,0,0.2,0.2,0.3v0
			C129,192.2,129.1,192.1,128.9,192.1 M120.2,193.1c0.1,0.1,0,0,0.1,0.1c0,0,0,0,0,0v0H120.2z M119.5,194c-0.1-0.1-0.1-0.1-0.2-0.1
			c0,0,0.1,0.1,0.1,0.1L119.5,194C119.5,194,119.5,194,119.5,194 M119.6,194.7v0.1h0.1C119.7,194.8,119.6,194.8,119.6,194.7
			 M120,195.3C120,195.3,119.9,195.3,120,195.3L120,195.3C120,195.3,120,195.3,120,195.3 M123.5,201.3
			C123.5,201.3,123.5,201.3,123.5,201.3c0,0.1,0,0.1,0,0.1c0,0,0.1,0,0.1,0C123.7,201.3,123.6,201.3,123.5,201.3 M124.3,201.6
			c0,0-0.1,0-0.1,0c-0.1,0-0.2,0.1-0.2,0.2C124.1,201.8,124.2,201.9,124.3,201.6L124.3,201.6z M125.2,201.6c-0.1,0-0.1,0-0.2,0
			c0,0-0.1,0-0.1,0c0,0,0.1,0,0.1,0c0,0,0.1,0.1,0.1,0.1C125.1,201.8,125.2,201.7,125.2,201.6C125.2,201.7,125.2,201.7,125.2,201.6
			 M125.6,202.3L125.6,202.3c-0.3-0.1-0.5-0.1-0.7-0.2c0-0.3,0-0.4-0.3-0.4c0.1,0.3,0.1,0.6,0.1,0.8c0,0,0.1,0,0.1,0
			c0-0.1,0.1-0.2,0.1-0.3c0,0,0.1,0,0.1,0c0.1,0.2,0.2,0.3,0.4,0.4c-0.1-0.1-0.1-0.2-0.2-0.3v0C125.3,202.3,125.4,202.3,125.6,202.3
			 M124.9,202.9L124.9,202.9C125,202.9,125,202.9,124.9,202.9L124.9,202.9z M127.4,203.7c0,0.1,0,0.1,0.1,0.1
			C127.5,203.8,127.4,203.7,127.4,203.7 M128.5,203.7c0.1,0.1,0.3,0.1,0.5,0.2c0,0,0-0.1,0-0.1C128.9,203.8,128.7,203.8,128.5,203.7
			 M127.1,203.8c0.1,0.2,0.2,0.3,0.4,0.3C127.4,204,127.3,203.9,127.1,203.8"/>
		<path d="M144.2,69.3c-29.7,0-55.2,18-66.2,43.8c10.1-18,31.4-39.5,66.1-39.5c31.3,0,54.7,18.9,66.2,39.6
			C199.5,87.4,173.9,69.3,144.2,69.3 M212.8,163c-9.3,28.5-35.5,50.6-68.7,50.6c-35.2,0-58.9-21.9-68.4-50
			c9.9,26.2,36.8,45.1,68.4,45.1C176,208.7,203.1,189.5,212.8,163 M292.7,159.4c-0.3,1.1-1.1,1.9-2.2,1.9c-1.6,0-2.6-1.2-2.6-2.7
			c0-1.6,1-2.7,2.6-2.7c1.1,0,2,0.6,2.2,1.8H292c-0.1-0.7-0.7-1.1-1.5-1.1c-1.2,0-1.8,0.9-1.8,2c0,1.1,0.7,2.1,1.8,2.1
			c0.8,0,1.3-0.5,1.4-1.2L292.7,159.4L292.7,159.4z M290.4,162.3c2,0,3.6-1.6,3.6-3.8c0-2.1-1.6-3.7-3.6-3.7c-2.1,0-3.6,1.6-3.6,3.7
			C286.7,160.7,288.3,162.3,290.4,162.3 M290.4,154.1c2.4,0,4.4,1.9,4.4,4.4c0,2.5-2,4.4-4.4,4.4c-2.4,0-4.4-1.9-4.4-4.4
			C285.9,156,287.9,154.1,290.4,154.1"/>
	</g>
</g>
</svg>
